<svg width="337" height="104" viewBox="0 0 337 104" fill="none" xmlns="http://www.w3.org/2000/svg">
<g filter="url(#filter0_d_817_1759)">
<path d="M55.4492 57.1902V55.4279H35.6332V48.6548H55.4492V37.7954H35.6332V31.0224H62.1234V57.1902H55.4492Z" fill="#FFE262"/>
<path d="M31.8814 73.498V59.0727H66.2508V73.1412H58.3132V72.3527H39.8172V73.5L31.8814 73.498ZM58.3132 67.5272V63.8963H39.8172V67.5272H58.3132Z" fill="#FFE262"/>
<path d="M67.312 59.4945L69.6328 58.7849C79.4979 55.763 84.8189 49.2679 85.8236 38.9604H65.8323V31.2491H87.7179L90.3638 30.5L93 33.6539L92.9805 34.4424C92.6048 50.9848 85.8859 61.7082 73.0127 66.3386L71.8172 66.7683L67.312 59.4945Z" fill="#FFE262"/>
<path d="M24.9854 66.3385C12.1122 61.7082 5.39523 50.9848 5.01752 34.4444L5 33.6559L7.63422 30.502L10.2801 31.251H32.1657V38.9644H12.1745C13.1869 49.2698 18.5001 55.765 28.3653 58.7868L30.686 59.4965L26.1808 66.7702L24.9854 66.3385Z" fill="#FFE262"/>
<path d="M91.8984 29.2178L94.5342 32.3711L95.0176 32.9492L94.999 33.7031L94.9795 34.4873C94.7859 43.0092 92.9555 50.2055 89.3779 55.9189C85.8958 61.4799 80.8374 65.5087 74.3242 67.9854L73.6895 68.2207L72.4941 68.6504L70.9697 69.1982L70.1172 67.8213L68.251 64.8086V75.1416H56.3135V74.3525H41.8174V75.501L39.8164 75.5L31.8809 75.498L29.8818 75.4971V64.5928L27.8809 67.8232L27.0273 69.2021L25.502 68.6514L24.3057 68.2197V68.2188C17.487 65.7655 12.2137 61.6582 8.62012 55.9189C5.043 50.2059 3.21217 43.0108 3.01758 34.4902V34.4893L3.00098 33.7002L2.9834 32.9502L3.46484 32.374L6.09961 29.2197L6.93066 28.2246L8.17871 28.5771L10.5596 29.251H33.6328V29.0225H64.123V29.249H87.4385L89.8193 28.5752L91.0664 28.2227L91.8984 29.2178ZM34.166 40.9639H14.4639C15.1262 44.7834 16.4845 47.8763 18.499 50.3418C20.8858 53.2627 24.3106 55.4528 28.9492 56.874L29.8818 57.1582V57.0723H33.6328V46.6553H53.4492V39.7959H34.166V40.9639ZM64.123 57.0723H68.251V57.1152L69.0479 56.8721C73.6873 55.4508 77.1141 53.2603 79.502 50.3389C81.5174 47.873 82.8762 44.7802 83.5361 40.96H64.123V57.0723Z" stroke="black" stroke-width="4"/>
</g>
<g filter="url(#filter1_d_817_1759)">
<mask id="path-3-outside-1_817_1759" maskUnits="userSpaceOnUse" x="119.4" y="28.0195" width="211" height="51" fill="black">
<rect fill="white" x="119.4" y="28.0195" width="211" height="51"/>
<path d="M156.586 65.1487C157.363 66.3572 157.585 67.6207 157.252 68.9391C156.975 70.2575 156.253 71.3012 155.087 72.0703C154.199 72.6196 153.283 72.8943 152.34 72.8943C151.507 72.8943 150.702 72.702 149.925 72.3175C149.148 71.9329 148.51 71.3561 148.01 70.5871C148.01 70.5871 147.816 70.3124 147.427 69.7631C147.094 69.2137 146.622 68.4996 146.012 67.6207C145.401 66.7417 144.679 65.7529 143.847 64.6543C143.014 63.5556 142.126 62.4295 141.182 61.2759C140.738 60.6716 140.294 60.1223 139.85 59.6279C139.461 59.1335 139.073 58.6665 138.684 58.2271C138.074 57.5129 137.546 56.9636 137.102 56.5791C136.658 56.1945 136.27 55.8924 135.936 55.6727C135.603 55.398 135.298 55.2332 135.021 55.1783C135.576 55.7825 136.047 56.3868 136.436 56.9911C136.88 57.5404 137.241 58.0897 137.518 58.6391C137.907 59.2433 138.101 59.9575 138.101 60.7815V67.8679C138.101 69.2961 137.574 70.5047 136.519 71.4935C135.52 72.4823 134.299 72.9492 132.856 72.8943C131.468 72.8393 130.302 72.3175 129.358 71.3287C128.47 70.3399 128.026 69.1588 128.026 67.7855V58.8863C128.026 58.3919 127.804 58.0623 127.36 57.8975C125.528 56.7988 124.307 55.1783 123.696 53.0359C123.252 51.3879 123.308 49.7399 123.863 48.0919C124.474 46.3889 125.445 45.0431 126.777 44.0543C126.833 43.9444 126.972 43.8345 127.194 43.7247C127.749 43.3401 128.026 42.8457 128.026 42.2415V37.0503C128.026 35.622 128.526 34.4135 129.525 33.4247C130.58 32.4359 131.829 31.9689 133.272 32.0239C134.66 32.0788 135.798 32.6007 136.686 33.5895C137.63 34.5783 138.101 35.7593 138.101 37.1327V42.0767C138.101 42.5161 138.296 42.8183 138.684 42.9831C139.073 43.0929 139.406 43.0105 139.683 42.7359C139.961 42.4612 140.183 42.214 140.35 41.9943C140.572 41.7196 140.821 41.4449 141.099 41.1703C142.043 40.0716 142.847 39.1377 143.514 38.3687C144.18 37.5447 144.735 36.858 145.179 36.3087C145.678 35.7044 146.067 35.1825 146.345 34.7431C147.177 33.5895 148.287 32.9028 149.675 32.6831C151.063 32.4084 152.312 32.6556 153.422 33.4247C154.588 34.2487 155.282 35.3473 155.504 36.7207C155.781 38.0391 155.504 39.2751 154.671 40.4287C154.671 40.4836 154.283 40.978 153.505 41.9119C152.728 42.8457 151.868 43.862 150.924 44.9607C149.981 46.0593 149.12 47.1031 148.343 48.0919C147.566 49.0257 147.122 49.5476 147.011 49.6575C146.622 50.042 146.428 50.4815 146.428 50.9759C146.428 51.4703 146.594 51.9372 146.927 52.3767C147.038 52.4865 147.344 52.8985 147.843 53.6127C148.398 54.2719 149.009 55.0684 149.675 56.0023C150.397 56.9361 151.146 57.9524 151.923 59.0511C152.756 60.0948 153.505 61.0836 154.172 62.0175C154.838 62.8964 155.393 63.638 155.837 64.2423C156.281 64.8465 156.531 65.1487 156.586 65.1487Z"/>
<path d="M180.276 36.0615C182.274 37.3799 183.662 38.9729 184.439 40.8407C185.216 42.6535 185.855 44.4113 186.354 46.1143C187.076 48.2567 187.437 50.5913 187.437 53.1183C187.437 56.634 186.882 59.8476 185.771 62.7591C184.661 65.6705 183.079 68.0876 181.025 70.0103C178.305 72.5372 175.197 73.8007 171.7 73.8007C171.255 73.8007 170.95 73.7732 170.784 73.7183C166.898 73.4436 163.734 71.8231 161.291 68.8567C159.349 66.4396 158.016 63.3633 157.295 59.6279C156.629 55.8375 156.629 51.5527 157.295 46.7735C157.406 45.8945 157.711 45.1255 158.211 44.4663C158.766 43.8071 159.432 43.2852 160.209 42.9007C160.931 42.5711 161.375 41.9943 161.541 41.1703C161.597 40.8956 161.652 40.6484 161.708 40.4287C161.763 40.154 161.846 39.8793 161.958 39.6047C162.568 37.7369 163.678 36.1439 165.288 34.8255C166.898 33.5071 168.646 32.738 170.534 32.5183C172.199 32.3535 173.864 32.5732 175.53 33.1775C177.251 33.7817 178.833 34.7431 180.276 36.0615ZM177.611 52.6239C178.833 51.8548 179.721 51.0308 180.276 50.1519C180.609 49.7124 180.886 49.3004 181.109 48.9159C180.553 49.3553 179.721 49.7948 178.611 50.2343C177.5 50.6737 176.335 51.0583 175.113 51.3879C173.892 51.6625 172.726 51.8823 171.616 52.0471C170.562 52.2119 169.784 52.2393 169.285 52.1295C168.674 52.0196 168.119 52.1569 167.62 52.5415C167.175 52.8711 166.953 53.338 166.953 53.9423C167.009 56.1396 167.231 57.9524 167.62 59.3807C168.064 60.754 168.563 61.7977 169.118 62.5119C169.729 63.2809 170.478 63.6929 171.366 63.7479C171.7 63.7479 172.088 63.7204 172.532 63.6655C173.032 63.5556 173.559 63.226 174.114 62.6767C175.058 61.7977 175.807 60.5068 176.362 58.8039C176.973 57.046 177.278 55.1508 177.278 53.1183C177.278 52.8985 177.389 52.7337 177.611 52.6239Z"/>
<path d="M222.739 64.9015C223.682 65.9452 224.099 67.1537 223.988 68.5271C223.877 69.9004 223.294 71.054 222.239 71.9879C221.295 72.7569 220.185 73.1415 218.908 73.1415C217.354 73.1415 216.077 72.5647 215.078 71.4111C215.078 71.4111 214.884 71.2188 214.495 70.8343C214.107 70.3948 213.579 69.8455 212.913 69.1863C212.303 68.4721 211.553 67.6756 210.665 66.7967C209.832 65.8628 208.917 64.9289 207.917 63.9951C207.806 63.8852 207.446 63.5556 206.835 63.0063C206.224 62.402 205.53 61.7977 204.753 61.1935C203.921 60.4244 202.977 59.5729 201.922 58.6391C202.477 59.3532 202.977 60.0124 203.421 60.6167C203.865 61.2209 204.281 61.8252 204.67 62.4295C205.447 63.5281 205.836 64.7367 205.836 66.0551V68.6919C205.836 70.1201 205.308 71.3287 204.254 72.3175C203.255 73.3063 202.033 73.7732 200.59 73.7183C199.202 73.6084 198.037 73.0591 197.093 72.0703C196.149 71.0815 195.677 69.9004 195.677 68.5271V61.9351C195.122 61.6604 194.706 61.3857 194.428 61.1111C193.429 60.3969 192.652 59.5455 192.097 58.5567C191.597 57.5129 191.292 56.3868 191.181 55.1783C191.126 53.9148 191.32 52.7063 191.764 51.5527C192.208 50.3991 192.846 49.4377 193.679 48.6687C194.234 48.1193 194.9 47.6799 195.677 47.3503V38.2863C195.677 36.858 196.149 35.6769 197.093 34.7431C198.092 33.7543 199.313 33.2599 200.757 33.2599H201.256C201.589 33.2599 202.505 33.2599 204.004 33.2599C205.558 33.2599 207.335 33.4247 209.333 33.7543C211.331 34.0289 213.385 34.5783 215.495 35.4023C217.604 36.2263 219.38 37.4623 220.823 39.1103C223.432 42.1316 224.404 45.8121 223.738 50.1519C223.238 53.2831 221.49 56.0023 218.492 58.3095C218.215 58.5292 218.048 58.8313 217.992 59.2159C217.937 59.5455 218.048 59.8476 218.326 60.1223C219.602 61.4407 220.629 62.5393 221.406 63.4183C222.239 64.2972 222.683 64.7916 222.739 64.9015ZM213.746 48.5039C213.857 47.7348 213.829 47.158 213.663 46.7735C213.552 46.334 213.385 45.9769 213.163 45.7023C212.663 45.098 211.914 44.6311 210.915 44.3015C209.916 43.9719 208.833 43.7521 207.668 43.6423C207.168 43.5324 206.724 43.6423 206.335 43.9719C206.002 44.3015 205.836 44.7135 205.836 45.2079V48.0095C205.836 48.7785 206.113 49.5201 206.668 50.2343C207.279 50.9484 207.973 51.3604 208.75 51.4703C209.583 51.5801 210.138 51.5527 210.415 51.3879C210.859 51.2231 211.22 51.0308 211.498 50.8111C211.886 50.5913 212.33 50.2892 212.83 49.9047C213.33 49.4652 213.635 48.9983 213.746 48.5039Z"/>
<path d="M288.198 33.6719C289.586 33.6719 290.779 34.1663 291.779 35.1551C292.778 36.0889 293.277 37.2425 293.277 38.6159C293.277 40.0441 292.778 41.2527 291.779 42.2415C290.835 43.1753 289.641 43.6423 288.198 43.6423C286.089 43.6972 283.813 43.862 281.37 44.1367C278.983 44.3564 276.541 44.686 274.043 45.1255C273.266 45.2353 272.35 45.3727 271.295 45.5375C270.241 45.7023 269.075 45.8945 267.798 46.1143C268.076 46.2241 268.464 46.3065 268.964 46.3615C269.574 46.4713 270.768 46.5812 272.544 46.6911C272.988 46.6911 273.349 46.8284 273.627 47.1031C273.96 47.3777 274.126 47.7348 274.126 48.1743C274.126 48.7236 274.099 49.3004 274.043 49.9047C274.043 50.5089 274.043 51.1132 274.043 51.7175C274.043 52.3217 274.265 52.8711 274.709 53.3655C275.153 53.8049 275.681 54.0247 276.291 54.0247H282.203C283.646 54.0247 284.868 54.5465 285.867 55.5903C286.866 56.5791 287.338 57.7876 287.282 59.2159C287.227 60.5892 286.699 61.7428 285.7 62.6767C284.701 63.5556 283.508 63.9951 282.12 63.9951H275.292C274.737 63.9951 274.237 64.1873 273.793 64.5719C273.405 64.9564 273.183 65.4508 273.127 66.0551C273.016 67.1537 272.905 68.0327 272.794 68.6919C272.739 69.3511 272.711 69.7081 272.711 69.7631C272.544 71.0265 271.961 72.0703 270.962 72.8943C270.019 73.7732 268.908 74.2127 267.632 74.2127H267.049C265.661 74.0479 264.523 73.4436 263.635 72.3999C262.802 71.3012 262.469 70.0377 262.636 68.6095C262.636 68.6095 262.663 68.2524 262.719 67.5383C262.83 66.7692 262.941 65.7804 263.052 64.5719C263.163 63.3633 263.274 61.9625 263.385 60.3695C263.552 58.7764 263.663 57.1284 263.718 55.4255C263.885 52.7887 263.968 50.5639 263.968 48.7511C263.968 48.3116 263.774 47.9271 263.385 47.5975C262.997 47.2679 262.58 47.158 262.136 47.2679L260.887 47.5151C259.666 47.7348 258.5 47.982 257.39 48.2567C256.946 48.3116 256.613 48.5039 256.391 48.8335C256.169 49.1081 256.085 49.4652 256.141 49.9047C256.308 50.9484 256.391 52.0196 256.391 53.1183C256.391 56.634 255.836 59.8476 254.725 62.7591C253.615 65.6705 252.033 68.0876 249.979 70.0103C247.259 72.5372 244.151 73.8007 240.654 73.8007C240.21 73.8007 239.904 73.7732 239.738 73.7183C235.852 73.4436 232.688 71.8231 230.245 68.8567C228.303 66.4396 226.97 63.3633 226.249 59.6279C225.583 55.8375 225.583 51.5527 226.249 46.7735C226.526 44.9607 227.47 43.6972 229.08 42.9831C229.524 42.7633 229.857 42.4612 230.079 42.0767C230.356 41.6372 230.468 41.1977 230.412 40.7583C230.412 39.8244 230.606 38.8356 230.995 37.7919C231.716 35.8692 232.993 34.4135 234.825 33.4247C236.712 32.4359 238.766 32.1612 240.987 32.6007C242.874 32.9303 244.734 33.6719 246.565 34.8255C248.397 35.9241 250.035 37.3524 251.478 39.1103C252.644 38.8905 253.837 38.6708 255.059 38.4511C256.335 38.2313 257.612 37.9841 258.889 37.7095L262.636 36.9679C262.747 36.1988 263.024 35.4847 263.468 34.8255C263.912 34.1113 264.523 33.562 265.3 33.1775C266.577 32.5183 267.854 32.4084 269.13 32.8479C270.463 33.2324 271.462 34.0289 272.128 35.2375C274.903 34.798 277.623 34.4409 280.288 34.1663C283.008 33.8367 285.617 33.6719 288.115 33.6719H288.198ZM247.232 51.5527C248.397 51.2231 249.313 50.9209 249.979 50.6463C250.701 50.3716 251.284 50.0969 251.728 49.8223C252.172 49.5476 252.505 49.3004 252.727 49.0807C252.005 49.2455 251.228 49.3828 250.396 49.4927C249.619 49.6025 248.897 49.7124 248.231 49.8223C247.454 49.9321 246.676 50.042 245.899 50.1519C244.123 50.3167 242.569 50.3991 241.236 50.3991C239.96 50.3441 238.794 50.1793 237.739 49.9047C237.295 49.7948 236.907 49.8497 236.574 50.0695C236.241 50.2892 236.046 50.6188 235.991 51.0583C235.769 54.0796 235.88 56.5516 236.324 58.4743C236.823 60.342 237.406 61.6879 238.072 62.5119C238.683 63.2809 239.432 63.6929 240.321 63.7479C240.654 63.7479 241.042 63.7204 241.486 63.6655C241.986 63.5556 242.513 63.226 243.068 62.6767C244.012 61.7977 244.761 60.5068 245.316 58.8039C245.927 57.046 246.232 55.1508 246.232 53.1183V52.9535C246.232 52.2943 246.565 51.8273 247.232 51.5527Z"/>
<path d="M322.535 59.2159C322.813 61.6879 323.063 63.7479 323.285 65.3959C323.507 67.0439 323.646 67.8953 323.701 67.9503C323.923 69.3236 323.618 70.5596 322.785 71.6583C321.952 72.7569 320.842 73.4161 319.454 73.6359C319.288 73.6908 319.01 73.7183 318.622 73.7183C317.678 73.7183 316.79 73.4711 315.957 72.9767C315.18 72.4823 314.57 71.8231 314.126 70.9991C313.903 70.6145 313.654 70.5596 313.376 70.8343C312.377 71.6033 311.378 72.1527 310.379 72.4823C309.435 72.8119 308.519 73.0041 307.631 73.0591C306.743 73.1689 305.91 73.1415 305.133 72.9767C304.411 72.8668 303.773 72.702 303.218 72.4823C299.665 71.2737 297.167 68.2524 295.724 63.4183C295.28 61.99 294.947 60.342 294.725 58.4743C294.503 56.6065 294.364 54.574 294.308 52.3767C294.308 50.6188 294.336 48.9159 294.392 47.2679C294.503 45.6199 294.614 44.1641 294.725 42.9007C294.891 41.5823 295.03 40.5385 295.141 39.7695C295.252 38.9455 295.308 38.506 295.308 38.4511C295.53 37.0777 296.196 35.9791 297.306 35.1551C298.416 34.3311 299.665 34.0289 301.053 34.2487C302.496 34.4684 303.606 35.1276 304.383 36.2263C305.216 37.3249 305.521 38.5609 305.299 39.9343C305.299 39.9892 305.244 40.3463 305.133 41.0055C305.077 41.6647 304.994 42.5436 304.883 43.6423C304.772 44.7409 304.661 46.0044 304.55 47.4327C304.494 48.806 304.467 50.2343 304.467 51.7175C304.467 54.1345 304.522 56.0847 304.633 57.5679C304.744 59.0511 304.883 60.2047 305.05 61.0287C305.272 61.7977 305.494 62.3471 305.716 62.6767C305.993 62.9513 306.299 63.0887 306.632 63.0887C307.131 63.0887 307.631 62.7865 308.13 62.1823C308.686 61.578 309.185 60.8913 309.629 60.1223C310.129 59.3532 310.545 58.6116 310.878 57.8975C311.267 57.1284 311.517 56.6065 311.628 56.3319C311.905 55.8375 311.988 55.3156 311.877 54.7663C311.655 51.4703 311.544 48.7236 311.544 46.5263C311.6 44.274 311.739 42.4337 311.961 41.0055C312.238 39.5772 312.571 38.4511 312.96 37.6271C313.404 36.8031 313.848 36.1164 314.292 35.5671C315.569 34.0289 317.206 33.2599 319.205 33.2599H319.288C321.397 33.2599 323.063 34.1663 324.284 35.9791C325.061 37.0777 325.533 38.4236 325.699 40.0167C325.921 41.5548 325.949 43.1753 325.783 44.8783C325.616 46.5263 325.339 48.1743 324.95 49.8223C324.561 51.4153 324.117 52.8161 323.618 54.0247L323.535 54.1895C323.423 54.4092 323.229 54.5191 322.952 54.5191C322.73 54.5191 322.563 54.4092 322.452 54.1895C322.23 53.6401 322.008 53.1183 321.786 52.6239C321.564 52.1295 321.342 51.6625 321.12 51.2231C320.953 50.6737 320.759 50.1793 320.537 49.7399C320.759 50.6188 320.981 51.5527 321.203 52.5415C321.425 53.4753 321.619 54.3817 321.786 55.2607C321.952 56.1396 322.091 56.9361 322.202 57.6503C322.369 58.3095 322.48 58.8313 322.535 59.2159Z"/>
</mask>
<path d="M156.586 65.1487C157.363 66.3572 157.585 67.6207 157.252 68.9391C156.975 70.2575 156.253 71.3012 155.087 72.0703C154.199 72.6196 153.283 72.8943 152.34 72.8943C151.507 72.8943 150.702 72.702 149.925 72.3175C149.148 71.9329 148.51 71.3561 148.01 70.5871C148.01 70.5871 147.816 70.3124 147.427 69.7631C147.094 69.2137 146.622 68.4996 146.012 67.6207C145.401 66.7417 144.679 65.7529 143.847 64.6543C143.014 63.5556 142.126 62.4295 141.182 61.2759C140.738 60.6716 140.294 60.1223 139.85 59.6279C139.461 59.1335 139.073 58.6665 138.684 58.2271C138.074 57.5129 137.546 56.9636 137.102 56.5791C136.658 56.1945 136.27 55.8924 135.936 55.6727C135.603 55.398 135.298 55.2332 135.021 55.1783C135.576 55.7825 136.047 56.3868 136.436 56.9911C136.88 57.5404 137.241 58.0897 137.518 58.6391C137.907 59.2433 138.101 59.9575 138.101 60.7815V67.8679C138.101 69.2961 137.574 70.5047 136.519 71.4935C135.52 72.4823 134.299 72.9492 132.856 72.8943C131.468 72.8393 130.302 72.3175 129.358 71.3287C128.47 70.3399 128.026 69.1588 128.026 67.7855V58.8863C128.026 58.3919 127.804 58.0623 127.36 57.8975C125.528 56.7988 124.307 55.1783 123.696 53.0359C123.252 51.3879 123.308 49.7399 123.863 48.0919C124.474 46.3889 125.445 45.0431 126.777 44.0543C126.833 43.9444 126.972 43.8345 127.194 43.7247C127.749 43.3401 128.026 42.8457 128.026 42.2415V37.0503C128.026 35.622 128.526 34.4135 129.525 33.4247C130.58 32.4359 131.829 31.9689 133.272 32.0239C134.66 32.0788 135.798 32.6007 136.686 33.5895C137.63 34.5783 138.101 35.7593 138.101 37.1327V42.0767C138.101 42.5161 138.296 42.8183 138.684 42.9831C139.073 43.0929 139.406 43.0105 139.683 42.7359C139.961 42.4612 140.183 42.214 140.35 41.9943C140.572 41.7196 140.821 41.4449 141.099 41.1703C142.043 40.0716 142.847 39.1377 143.514 38.3687C144.18 37.5447 144.735 36.858 145.179 36.3087C145.678 35.7044 146.067 35.1825 146.345 34.7431C147.177 33.5895 148.287 32.9028 149.675 32.6831C151.063 32.4084 152.312 32.6556 153.422 33.4247C154.588 34.2487 155.282 35.3473 155.504 36.7207C155.781 38.0391 155.504 39.2751 154.671 40.4287C154.671 40.4836 154.283 40.978 153.505 41.9119C152.728 42.8457 151.868 43.862 150.924 44.9607C149.981 46.0593 149.12 47.1031 148.343 48.0919C147.566 49.0257 147.122 49.5476 147.011 49.6575C146.622 50.042 146.428 50.4815 146.428 50.9759C146.428 51.4703 146.594 51.9372 146.927 52.3767C147.038 52.4865 147.344 52.8985 147.843 53.6127C148.398 54.2719 149.009 55.0684 149.675 56.0023C150.397 56.9361 151.146 57.9524 151.923 59.0511C152.756 60.0948 153.505 61.0836 154.172 62.0175C154.838 62.8964 155.393 63.638 155.837 64.2423C156.281 64.8465 156.531 65.1487 156.586 65.1487Z" fill="#FFE262"/>
<path d="M180.276 36.0615C182.274 37.3799 183.662 38.9729 184.439 40.8407C185.216 42.6535 185.855 44.4113 186.354 46.1143C187.076 48.2567 187.437 50.5913 187.437 53.1183C187.437 56.634 186.882 59.8476 185.771 62.7591C184.661 65.6705 183.079 68.0876 181.025 70.0103C178.305 72.5372 175.197 73.8007 171.7 73.8007C171.255 73.8007 170.95 73.7732 170.784 73.7183C166.898 73.4436 163.734 71.8231 161.291 68.8567C159.349 66.4396 158.016 63.3633 157.295 59.6279C156.629 55.8375 156.629 51.5527 157.295 46.7735C157.406 45.8945 157.711 45.1255 158.211 44.4663C158.766 43.8071 159.432 43.2852 160.209 42.9007C160.931 42.5711 161.375 41.9943 161.541 41.1703C161.597 40.8956 161.652 40.6484 161.708 40.4287C161.763 40.154 161.846 39.8793 161.958 39.6047C162.568 37.7369 163.678 36.1439 165.288 34.8255C166.898 33.5071 168.646 32.738 170.534 32.5183C172.199 32.3535 173.864 32.5732 175.53 33.1775C177.251 33.7817 178.833 34.7431 180.276 36.0615ZM177.611 52.6239C178.833 51.8548 179.721 51.0308 180.276 50.1519C180.609 49.7124 180.886 49.3004 181.109 48.9159C180.553 49.3553 179.721 49.7948 178.611 50.2343C177.5 50.6737 176.335 51.0583 175.113 51.3879C173.892 51.6625 172.726 51.8823 171.616 52.0471C170.562 52.2119 169.784 52.2393 169.285 52.1295C168.674 52.0196 168.119 52.1569 167.62 52.5415C167.175 52.8711 166.953 53.338 166.953 53.9423C167.009 56.1396 167.231 57.9524 167.62 59.3807C168.064 60.754 168.563 61.7977 169.118 62.5119C169.729 63.2809 170.478 63.6929 171.366 63.7479C171.7 63.7479 172.088 63.7204 172.532 63.6655C173.032 63.5556 173.559 63.226 174.114 62.6767C175.058 61.7977 175.807 60.5068 176.362 58.8039C176.973 57.046 177.278 55.1508 177.278 53.1183C177.278 52.8985 177.389 52.7337 177.611 52.6239Z" fill="#FFE262"/>
<path d="M222.739 64.9015C223.682 65.9452 224.099 67.1537 223.988 68.5271C223.877 69.9004 223.294 71.054 222.239 71.9879C221.295 72.7569 220.185 73.1415 218.908 73.1415C217.354 73.1415 216.077 72.5647 215.078 71.4111C215.078 71.4111 214.884 71.2188 214.495 70.8343C214.107 70.3948 213.579 69.8455 212.913 69.1863C212.303 68.4721 211.553 67.6756 210.665 66.7967C209.832 65.8628 208.917 64.9289 207.917 63.9951C207.806 63.8852 207.446 63.5556 206.835 63.0063C206.224 62.402 205.53 61.7977 204.753 61.1935C203.921 60.4244 202.977 59.5729 201.922 58.6391C202.477 59.3532 202.977 60.0124 203.421 60.6167C203.865 61.2209 204.281 61.8252 204.67 62.4295C205.447 63.5281 205.836 64.7367 205.836 66.0551V68.6919C205.836 70.1201 205.308 71.3287 204.254 72.3175C203.255 73.3063 202.033 73.7732 200.59 73.7183C199.202 73.6084 198.037 73.0591 197.093 72.0703C196.149 71.0815 195.677 69.9004 195.677 68.5271V61.9351C195.122 61.6604 194.706 61.3857 194.428 61.1111C193.429 60.3969 192.652 59.5455 192.097 58.5567C191.597 57.5129 191.292 56.3868 191.181 55.1783C191.126 53.9148 191.32 52.7063 191.764 51.5527C192.208 50.3991 192.846 49.4377 193.679 48.6687C194.234 48.1193 194.9 47.6799 195.677 47.3503V38.2863C195.677 36.858 196.149 35.6769 197.093 34.7431C198.092 33.7543 199.313 33.2599 200.757 33.2599H201.256C201.589 33.2599 202.505 33.2599 204.004 33.2599C205.558 33.2599 207.335 33.4247 209.333 33.7543C211.331 34.0289 213.385 34.5783 215.495 35.4023C217.604 36.2263 219.38 37.4623 220.823 39.1103C223.432 42.1316 224.404 45.8121 223.738 50.1519C223.238 53.2831 221.49 56.0023 218.492 58.3095C218.215 58.5292 218.048 58.8313 217.992 59.2159C217.937 59.5455 218.048 59.8476 218.326 60.1223C219.602 61.4407 220.629 62.5393 221.406 63.4183C222.239 64.2972 222.683 64.7916 222.739 64.9015ZM213.746 48.5039C213.857 47.7348 213.829 47.158 213.663 46.7735C213.552 46.334 213.385 45.9769 213.163 45.7023C212.663 45.098 211.914 44.6311 210.915 44.3015C209.916 43.9719 208.833 43.7521 207.668 43.6423C207.168 43.5324 206.724 43.6423 206.335 43.9719C206.002 44.3015 205.836 44.7135 205.836 45.2079V48.0095C205.836 48.7785 206.113 49.5201 206.668 50.2343C207.279 50.9484 207.973 51.3604 208.75 51.4703C209.583 51.5801 210.138 51.5527 210.415 51.3879C210.859 51.2231 211.22 51.0308 211.498 50.8111C211.886 50.5913 212.33 50.2892 212.83 49.9047C213.33 49.4652 213.635 48.9983 213.746 48.5039Z" fill="#FFE262"/>
<path d="M288.198 33.6719C289.586 33.6719 290.779 34.1663 291.779 35.1551C292.778 36.0889 293.277 37.2425 293.277 38.6159C293.277 40.0441 292.778 41.2527 291.779 42.2415C290.835 43.1753 289.641 43.6423 288.198 43.6423C286.089 43.6972 283.813 43.862 281.37 44.1367C278.983 44.3564 276.541 44.686 274.043 45.1255C273.266 45.2353 272.35 45.3727 271.295 45.5375C270.241 45.7023 269.075 45.8945 267.798 46.1143C268.076 46.2241 268.464 46.3065 268.964 46.3615C269.574 46.4713 270.768 46.5812 272.544 46.6911C272.988 46.6911 273.349 46.8284 273.627 47.1031C273.96 47.3777 274.126 47.7348 274.126 48.1743C274.126 48.7236 274.099 49.3004 274.043 49.9047C274.043 50.5089 274.043 51.1132 274.043 51.7175C274.043 52.3217 274.265 52.8711 274.709 53.3655C275.153 53.8049 275.681 54.0247 276.291 54.0247H282.203C283.646 54.0247 284.868 54.5465 285.867 55.5903C286.866 56.5791 287.338 57.7876 287.282 59.2159C287.227 60.5892 286.699 61.7428 285.7 62.6767C284.701 63.5556 283.508 63.9951 282.12 63.9951H275.292C274.737 63.9951 274.237 64.1873 273.793 64.5719C273.405 64.9564 273.183 65.4508 273.127 66.0551C273.016 67.1537 272.905 68.0327 272.794 68.6919C272.739 69.3511 272.711 69.7081 272.711 69.7631C272.544 71.0265 271.961 72.0703 270.962 72.8943C270.019 73.7732 268.908 74.2127 267.632 74.2127H267.049C265.661 74.0479 264.523 73.4436 263.635 72.3999C262.802 71.3012 262.469 70.0377 262.636 68.6095C262.636 68.6095 262.663 68.2524 262.719 67.5383C262.83 66.7692 262.941 65.7804 263.052 64.5719C263.163 63.3633 263.274 61.9625 263.385 60.3695C263.552 58.7764 263.663 57.1284 263.718 55.4255C263.885 52.7887 263.968 50.5639 263.968 48.7511C263.968 48.3116 263.774 47.9271 263.385 47.5975C262.997 47.2679 262.58 47.158 262.136 47.2679L260.887 47.5151C259.666 47.7348 258.5 47.982 257.39 48.2567C256.946 48.3116 256.613 48.5039 256.391 48.8335C256.169 49.1081 256.085 49.4652 256.141 49.9047C256.308 50.9484 256.391 52.0196 256.391 53.1183C256.391 56.634 255.836 59.8476 254.725 62.7591C253.615 65.6705 252.033 68.0876 249.979 70.0103C247.259 72.5372 244.151 73.8007 240.654 73.8007C240.21 73.8007 239.904 73.7732 239.738 73.7183C235.852 73.4436 232.688 71.8231 230.245 68.8567C228.303 66.4396 226.97 63.3633 226.249 59.6279C225.583 55.8375 225.583 51.5527 226.249 46.7735C226.526 44.9607 227.47 43.6972 229.08 42.9831C229.524 42.7633 229.857 42.4612 230.079 42.0767C230.356 41.6372 230.468 41.1977 230.412 40.7583C230.412 39.8244 230.606 38.8356 230.995 37.7919C231.716 35.8692 232.993 34.4135 234.825 33.4247C236.712 32.4359 238.766 32.1612 240.987 32.6007C242.874 32.9303 244.734 33.6719 246.565 34.8255C248.397 35.9241 250.035 37.3524 251.478 39.1103C252.644 38.8905 253.837 38.6708 255.059 38.4511C256.335 38.2313 257.612 37.9841 258.889 37.7095L262.636 36.9679C262.747 36.1988 263.024 35.4847 263.468 34.8255C263.912 34.1113 264.523 33.562 265.3 33.1775C266.577 32.5183 267.854 32.4084 269.13 32.8479C270.463 33.2324 271.462 34.0289 272.128 35.2375C274.903 34.798 277.623 34.4409 280.288 34.1663C283.008 33.8367 285.617 33.6719 288.115 33.6719H288.198ZM247.232 51.5527C248.397 51.2231 249.313 50.9209 249.979 50.6463C250.701 50.3716 251.284 50.0969 251.728 49.8223C252.172 49.5476 252.505 49.3004 252.727 49.0807C252.005 49.2455 251.228 49.3828 250.396 49.4927C249.619 49.6025 248.897 49.7124 248.231 49.8223C247.454 49.9321 246.676 50.042 245.899 50.1519C244.123 50.3167 242.569 50.3991 241.236 50.3991C239.96 50.3441 238.794 50.1793 237.739 49.9047C237.295 49.7948 236.907 49.8497 236.574 50.0695C236.241 50.2892 236.046 50.6188 235.991 51.0583C235.769 54.0796 235.88 56.5516 236.324 58.4743C236.823 60.342 237.406 61.6879 238.072 62.5119C238.683 63.2809 239.432 63.6929 240.321 63.7479C240.654 63.7479 241.042 63.7204 241.486 63.6655C241.986 63.5556 242.513 63.226 243.068 62.6767C244.012 61.7977 244.761 60.5068 245.316 58.8039C245.927 57.046 246.232 55.1508 246.232 53.1183V52.9535C246.232 52.2943 246.565 51.8273 247.232 51.5527Z" fill="#FFE262"/>
<path d="M322.535 59.2159C322.813 61.6879 323.063 63.7479 323.285 65.3959C323.507 67.0439 323.646 67.8953 323.701 67.9503C323.923 69.3236 323.618 70.5596 322.785 71.6583C321.952 72.7569 320.842 73.4161 319.454 73.6359C319.288 73.6908 319.01 73.7183 318.622 73.7183C317.678 73.7183 316.79 73.4711 315.957 72.9767C315.18 72.4823 314.57 71.8231 314.126 70.9991C313.903 70.6145 313.654 70.5596 313.376 70.8343C312.377 71.6033 311.378 72.1527 310.379 72.4823C309.435 72.8119 308.519 73.0041 307.631 73.0591C306.743 73.1689 305.91 73.1415 305.133 72.9767C304.411 72.8668 303.773 72.702 303.218 72.4823C299.665 71.2737 297.167 68.2524 295.724 63.4183C295.28 61.99 294.947 60.342 294.725 58.4743C294.503 56.6065 294.364 54.574 294.308 52.3767C294.308 50.6188 294.336 48.9159 294.392 47.2679C294.503 45.6199 294.614 44.1641 294.725 42.9007C294.891 41.5823 295.03 40.5385 295.141 39.7695C295.252 38.9455 295.308 38.506 295.308 38.4511C295.53 37.0777 296.196 35.9791 297.306 35.1551C298.416 34.3311 299.665 34.0289 301.053 34.2487C302.496 34.4684 303.606 35.1276 304.383 36.2263C305.216 37.3249 305.521 38.5609 305.299 39.9343C305.299 39.9892 305.244 40.3463 305.133 41.0055C305.077 41.6647 304.994 42.5436 304.883 43.6423C304.772 44.7409 304.661 46.0044 304.55 47.4327C304.494 48.806 304.467 50.2343 304.467 51.7175C304.467 54.1345 304.522 56.0847 304.633 57.5679C304.744 59.0511 304.883 60.2047 305.05 61.0287C305.272 61.7977 305.494 62.3471 305.716 62.6767C305.993 62.9513 306.299 63.0887 306.632 63.0887C307.131 63.0887 307.631 62.7865 308.13 62.1823C308.686 61.578 309.185 60.8913 309.629 60.1223C310.129 59.3532 310.545 58.6116 310.878 57.8975C311.267 57.1284 311.517 56.6065 311.628 56.3319C311.905 55.8375 311.988 55.3156 311.877 54.7663C311.655 51.4703 311.544 48.7236 311.544 46.5263C311.6 44.274 311.739 42.4337 311.961 41.0055C312.238 39.5772 312.571 38.4511 312.96 37.6271C313.404 36.8031 313.848 36.1164 314.292 35.5671C315.569 34.0289 317.206 33.2599 319.205 33.2599H319.288C321.397 33.2599 323.063 34.1663 324.284 35.9791C325.061 37.0777 325.533 38.4236 325.699 40.0167C325.921 41.5548 325.949 43.1753 325.783 44.8783C325.616 46.5263 325.339 48.1743 324.95 49.8223C324.561 51.4153 324.117 52.8161 323.618 54.0247L323.535 54.1895C323.423 54.4092 323.229 54.5191 322.952 54.5191C322.73 54.5191 322.563 54.4092 322.452 54.1895C322.23 53.6401 322.008 53.1183 321.786 52.6239C321.564 52.1295 321.342 51.6625 321.12 51.2231C320.953 50.6737 320.759 50.1793 320.537 49.7399C320.759 50.6188 320.981 51.5527 321.203 52.5415C321.425 53.4753 321.619 54.3817 321.786 55.2607C321.952 56.1396 322.091 56.9361 322.202 57.6503C322.369 58.3095 322.48 58.8313 322.535 59.2159Z" fill="#FFE262"/>
<path d="M156.586 65.1487C157.363 66.3572 157.585 67.6207 157.252 68.9391C156.975 70.2575 156.253 71.3012 155.087 72.0703C154.199 72.6196 153.283 72.8943 152.34 72.8943C151.507 72.8943 150.702 72.702 149.925 72.3175C149.148 71.9329 148.51 71.3561 148.01 70.5871C148.01 70.5871 147.816 70.3124 147.427 69.7631C147.094 69.2137 146.622 68.4996 146.012 67.6207C145.401 66.7417 144.679 65.7529 143.847 64.6543C143.014 63.5556 142.126 62.4295 141.182 61.2759C140.738 60.6716 140.294 60.1223 139.85 59.6279C139.461 59.1335 139.073 58.6665 138.684 58.2271C138.074 57.5129 137.546 56.9636 137.102 56.5791C136.658 56.1945 136.27 55.8924 135.936 55.6727C135.603 55.398 135.298 55.2332 135.021 55.1783C135.576 55.7825 136.047 56.3868 136.436 56.9911C136.88 57.5404 137.241 58.0897 137.518 58.6391C137.907 59.2433 138.101 59.9575 138.101 60.7815V67.8679C138.101 69.2961 137.574 70.5047 136.519 71.4935C135.52 72.4823 134.299 72.9492 132.856 72.8943C131.468 72.8393 130.302 72.3175 129.358 71.3287C128.47 70.3399 128.026 69.1588 128.026 67.7855V58.8863C128.026 58.3919 127.804 58.0623 127.36 57.8975C125.528 56.7988 124.307 55.1783 123.696 53.0359C123.252 51.3879 123.308 49.7399 123.863 48.0919C124.474 46.3889 125.445 45.0431 126.777 44.0543C126.833 43.9444 126.972 43.8345 127.194 43.7247C127.749 43.3401 128.026 42.8457 128.026 42.2415V37.0503C128.026 35.622 128.526 34.4135 129.525 33.4247C130.58 32.4359 131.829 31.9689 133.272 32.0239C134.66 32.0788 135.798 32.6007 136.686 33.5895C137.63 34.5783 138.101 35.7593 138.101 37.1327V42.0767C138.101 42.5161 138.296 42.8183 138.684 42.9831C139.073 43.0929 139.406 43.0105 139.683 42.7359C139.961 42.4612 140.183 42.214 140.35 41.9943C140.572 41.7196 140.821 41.4449 141.099 41.1703C142.043 40.0716 142.847 39.1377 143.514 38.3687C144.18 37.5447 144.735 36.858 145.179 36.3087C145.678 35.7044 146.067 35.1825 146.345 34.7431C147.177 33.5895 148.287 32.9028 149.675 32.6831C151.063 32.4084 152.312 32.6556 153.422 33.4247C154.588 34.2487 155.282 35.3473 155.504 36.7207C155.781 38.0391 155.504 39.2751 154.671 40.4287C154.671 40.4836 154.283 40.978 153.505 41.9119C152.728 42.8457 151.868 43.862 150.924 44.9607C149.981 46.0593 149.12 47.1031 148.343 48.0919C147.566 49.0257 147.122 49.5476 147.011 49.6575C146.622 50.042 146.428 50.4815 146.428 50.9759C146.428 51.4703 146.594 51.9372 146.927 52.3767C147.038 52.4865 147.344 52.8985 147.843 53.6127C148.398 54.2719 149.009 55.0684 149.675 56.0023C150.397 56.9361 151.146 57.9524 151.923 59.0511C152.756 60.0948 153.505 61.0836 154.172 62.0175C154.838 62.8964 155.393 63.638 155.837 64.2423C156.281 64.8465 156.531 65.1487 156.586 65.1487Z" stroke="black" stroke-width="8" mask="url(#path-3-outside-1_817_1759)"/>
<path d="M180.276 36.0615C182.274 37.3799 183.662 38.9729 184.439 40.8407C185.216 42.6535 185.855 44.4113 186.354 46.1143C187.076 48.2567 187.437 50.5913 187.437 53.1183C187.437 56.634 186.882 59.8476 185.771 62.7591C184.661 65.6705 183.079 68.0876 181.025 70.0103C178.305 72.5372 175.197 73.8007 171.7 73.8007C171.255 73.8007 170.95 73.7732 170.784 73.7183C166.898 73.4436 163.734 71.8231 161.291 68.8567C159.349 66.4396 158.016 63.3633 157.295 59.6279C156.629 55.8375 156.629 51.5527 157.295 46.7735C157.406 45.8945 157.711 45.1255 158.211 44.4663C158.766 43.8071 159.432 43.2852 160.209 42.9007C160.931 42.5711 161.375 41.9943 161.541 41.1703C161.597 40.8956 161.652 40.6484 161.708 40.4287C161.763 40.154 161.846 39.8793 161.958 39.6047C162.568 37.7369 163.678 36.1439 165.288 34.8255C166.898 33.5071 168.646 32.738 170.534 32.5183C172.199 32.3535 173.864 32.5732 175.53 33.1775C177.251 33.7817 178.833 34.7431 180.276 36.0615ZM177.611 52.6239C178.833 51.8548 179.721 51.0308 180.276 50.1519C180.609 49.7124 180.886 49.3004 181.109 48.9159C180.553 49.3553 179.721 49.7948 178.611 50.2343C177.5 50.6737 176.335 51.0583 175.113 51.3879C173.892 51.6625 172.726 51.8823 171.616 52.0471C170.562 52.2119 169.784 52.2393 169.285 52.1295C168.674 52.0196 168.119 52.1569 167.62 52.5415C167.175 52.8711 166.953 53.338 166.953 53.9423C167.009 56.1396 167.231 57.9524 167.62 59.3807C168.064 60.754 168.563 61.7977 169.118 62.5119C169.729 63.2809 170.478 63.6929 171.366 63.7479C171.7 63.7479 172.088 63.7204 172.532 63.6655C173.032 63.5556 173.559 63.226 174.114 62.6767C175.058 61.7977 175.807 60.5068 176.362 58.8039C176.973 57.046 177.278 55.1508 177.278 53.1183C177.278 52.8985 177.389 52.7337 177.611 52.6239Z" stroke="black" stroke-width="8" mask="url(#path-3-outside-1_817_1759)"/>
<path d="M222.739 64.9015C223.682 65.9452 224.099 67.1537 223.988 68.5271C223.877 69.9004 223.294 71.054 222.239 71.9879C221.295 72.7569 220.185 73.1415 218.908 73.1415C217.354 73.1415 216.077 72.5647 215.078 71.4111C215.078 71.4111 214.884 71.2188 214.495 70.8343C214.107 70.3948 213.579 69.8455 212.913 69.1863C212.303 68.4721 211.553 67.6756 210.665 66.7967C209.832 65.8628 208.917 64.9289 207.917 63.9951C207.806 63.8852 207.446 63.5556 206.835 63.0063C206.224 62.402 205.53 61.7977 204.753 61.1935C203.921 60.4244 202.977 59.5729 201.922 58.6391C202.477 59.3532 202.977 60.0124 203.421 60.6167C203.865 61.2209 204.281 61.8252 204.67 62.4295C205.447 63.5281 205.836 64.7367 205.836 66.0551V68.6919C205.836 70.1201 205.308 71.3287 204.254 72.3175C203.255 73.3063 202.033 73.7732 200.59 73.7183C199.202 73.6084 198.037 73.0591 197.093 72.0703C196.149 71.0815 195.677 69.9004 195.677 68.5271V61.9351C195.122 61.6604 194.706 61.3857 194.428 61.1111C193.429 60.3969 192.652 59.5455 192.097 58.5567C191.597 57.5129 191.292 56.3868 191.181 55.1783C191.126 53.9148 191.32 52.7063 191.764 51.5527C192.208 50.3991 192.846 49.4377 193.679 48.6687C194.234 48.1193 194.9 47.6799 195.677 47.3503V38.2863C195.677 36.858 196.149 35.6769 197.093 34.7431C198.092 33.7543 199.313 33.2599 200.757 33.2599H201.256C201.589 33.2599 202.505 33.2599 204.004 33.2599C205.558 33.2599 207.335 33.4247 209.333 33.7543C211.331 34.0289 213.385 34.5783 215.495 35.4023C217.604 36.2263 219.38 37.4623 220.823 39.1103C223.432 42.1316 224.404 45.8121 223.738 50.1519C223.238 53.2831 221.49 56.0023 218.492 58.3095C218.215 58.5292 218.048 58.8313 217.992 59.2159C217.937 59.5455 218.048 59.8476 218.326 60.1223C219.602 61.4407 220.629 62.5393 221.406 63.4183C222.239 64.2972 222.683 64.7916 222.739 64.9015ZM213.746 48.5039C213.857 47.7348 213.829 47.158 213.663 46.7735C213.552 46.334 213.385 45.9769 213.163 45.7023C212.663 45.098 211.914 44.6311 210.915 44.3015C209.916 43.9719 208.833 43.7521 207.668 43.6423C207.168 43.5324 206.724 43.6423 206.335 43.9719C206.002 44.3015 205.836 44.7135 205.836 45.2079V48.0095C205.836 48.7785 206.113 49.5201 206.668 50.2343C207.279 50.9484 207.973 51.3604 208.75 51.4703C209.583 51.5801 210.138 51.5527 210.415 51.3879C210.859 51.2231 211.22 51.0308 211.498 50.8111C211.886 50.5913 212.33 50.2892 212.83 49.9047C213.33 49.4652 213.635 48.9983 213.746 48.5039Z" stroke="black" stroke-width="8" mask="url(#path-3-outside-1_817_1759)"/>
<path d="M288.198 33.6719C289.586 33.6719 290.779 34.1663 291.779 35.1551C292.778 36.0889 293.277 37.2425 293.277 38.6159C293.277 40.0441 292.778 41.2527 291.779 42.2415C290.835 43.1753 289.641 43.6423 288.198 43.6423C286.089 43.6972 283.813 43.862 281.37 44.1367C278.983 44.3564 276.541 44.686 274.043 45.1255C273.266 45.2353 272.35 45.3727 271.295 45.5375C270.241 45.7023 269.075 45.8945 267.798 46.1143C268.076 46.2241 268.464 46.3065 268.964 46.3615C269.574 46.4713 270.768 46.5812 272.544 46.6911C272.988 46.6911 273.349 46.8284 273.627 47.1031C273.96 47.3777 274.126 47.7348 274.126 48.1743C274.126 48.7236 274.099 49.3004 274.043 49.9047C274.043 50.5089 274.043 51.1132 274.043 51.7175C274.043 52.3217 274.265 52.8711 274.709 53.3655C275.153 53.8049 275.681 54.0247 276.291 54.0247H282.203C283.646 54.0247 284.868 54.5465 285.867 55.5903C286.866 56.5791 287.338 57.7876 287.282 59.2159C287.227 60.5892 286.699 61.7428 285.7 62.6767C284.701 63.5556 283.508 63.9951 282.12 63.9951H275.292C274.737 63.9951 274.237 64.1873 273.793 64.5719C273.405 64.9564 273.183 65.4508 273.127 66.0551C273.016 67.1537 272.905 68.0327 272.794 68.6919C272.739 69.3511 272.711 69.7081 272.711 69.7631C272.544 71.0265 271.961 72.0703 270.962 72.8943C270.019 73.7732 268.908 74.2127 267.632 74.2127H267.049C265.661 74.0479 264.523 73.4436 263.635 72.3999C262.802 71.3012 262.469 70.0377 262.636 68.6095C262.636 68.6095 262.663 68.2524 262.719 67.5383C262.83 66.7692 262.941 65.7804 263.052 64.5719C263.163 63.3633 263.274 61.9625 263.385 60.3695C263.552 58.7764 263.663 57.1284 263.718 55.4255C263.885 52.7887 263.968 50.5639 263.968 48.7511C263.968 48.3116 263.774 47.9271 263.385 47.5975C262.997 47.2679 262.58 47.158 262.136 47.2679L260.887 47.5151C259.666 47.7348 258.5 47.982 257.39 48.2567C256.946 48.3116 256.613 48.5039 256.391 48.8335C256.169 49.1081 256.085 49.4652 256.141 49.9047C256.308 50.9484 256.391 52.0196 256.391 53.1183C256.391 56.634 255.836 59.8476 254.725 62.7591C253.615 65.6705 252.033 68.0876 249.979 70.0103C247.259 72.5372 244.151 73.8007 240.654 73.8007C240.21 73.8007 239.904 73.7732 239.738 73.7183C235.852 73.4436 232.688 71.8231 230.245 68.8567C228.303 66.4396 226.97 63.3633 226.249 59.6279C225.583 55.8375 225.583 51.5527 226.249 46.7735C226.526 44.9607 227.47 43.6972 229.08 42.9831C229.524 42.7633 229.857 42.4612 230.079 42.0767C230.356 41.6372 230.468 41.1977 230.412 40.7583C230.412 39.8244 230.606 38.8356 230.995 37.7919C231.716 35.8692 232.993 34.4135 234.825 33.4247C236.712 32.4359 238.766 32.1612 240.987 32.6007C242.874 32.9303 244.734 33.6719 246.565 34.8255C248.397 35.9241 250.035 37.3524 251.478 39.1103C252.644 38.8905 253.837 38.6708 255.059 38.4511C256.335 38.2313 257.612 37.9841 258.889 37.7095L262.636 36.9679C262.747 36.1988 263.024 35.4847 263.468 34.8255C263.912 34.1113 264.523 33.562 265.3 33.1775C266.577 32.5183 267.854 32.4084 269.13 32.8479C270.463 33.2324 271.462 34.0289 272.128 35.2375C274.903 34.798 277.623 34.4409 280.288 34.1663C283.008 33.8367 285.617 33.6719 288.115 33.6719H288.198ZM247.232 51.5527C248.397 51.2231 249.313 50.9209 249.979 50.6463C250.701 50.3716 251.284 50.0969 251.728 49.8223C252.172 49.5476 252.505 49.3004 252.727 49.0807C252.005 49.2455 251.228 49.3828 250.396 49.4927C249.619 49.6025 248.897 49.7124 248.231 49.8223C247.454 49.9321 246.676 50.042 245.899 50.1519C244.123 50.3167 242.569 50.3991 241.236 50.3991C239.96 50.3441 238.794 50.1793 237.739 49.9047C237.295 49.7948 236.907 49.8497 236.574 50.0695C236.241 50.2892 236.046 50.6188 235.991 51.0583C235.769 54.0796 235.88 56.5516 236.324 58.4743C236.823 60.342 237.406 61.6879 238.072 62.5119C238.683 63.2809 239.432 63.6929 240.321 63.7479C240.654 63.7479 241.042 63.7204 241.486 63.6655C241.986 63.5556 242.513 63.226 243.068 62.6767C244.012 61.7977 244.761 60.5068 245.316 58.8039C245.927 57.046 246.232 55.1508 246.232 53.1183V52.9535C246.232 52.2943 246.565 51.8273 247.232 51.5527Z" stroke="black" stroke-width="8" mask="url(#path-3-outside-1_817_1759)"/>
<path d="M322.535 59.2159C322.813 61.6879 323.063 63.7479 323.285 65.3959C323.507 67.0439 323.646 67.8953 323.701 67.9503C323.923 69.3236 323.618 70.5596 322.785 71.6583C321.952 72.7569 320.842 73.4161 319.454 73.6359C319.288 73.6908 319.01 73.7183 318.622 73.7183C317.678 73.7183 316.79 73.4711 315.957 72.9767C315.18 72.4823 314.57 71.8231 314.126 70.9991C313.903 70.6145 313.654 70.5596 313.376 70.8343C312.377 71.6033 311.378 72.1527 310.379 72.4823C309.435 72.8119 308.519 73.0041 307.631 73.0591C306.743 73.1689 305.91 73.1415 305.133 72.9767C304.411 72.8668 303.773 72.702 303.218 72.4823C299.665 71.2737 297.167 68.2524 295.724 63.4183C295.28 61.99 294.947 60.342 294.725 58.4743C294.503 56.6065 294.364 54.574 294.308 52.3767C294.308 50.6188 294.336 48.9159 294.392 47.2679C294.503 45.6199 294.614 44.1641 294.725 42.9007C294.891 41.5823 295.03 40.5385 295.141 39.7695C295.252 38.9455 295.308 38.506 295.308 38.4511C295.53 37.0777 296.196 35.9791 297.306 35.1551C298.416 34.3311 299.665 34.0289 301.053 34.2487C302.496 34.4684 303.606 35.1276 304.383 36.2263C305.216 37.3249 305.521 38.5609 305.299 39.9343C305.299 39.9892 305.244 40.3463 305.133 41.0055C305.077 41.6647 304.994 42.5436 304.883 43.6423C304.772 44.7409 304.661 46.0044 304.55 47.4327C304.494 48.806 304.467 50.2343 304.467 51.7175C304.467 54.1345 304.522 56.0847 304.633 57.5679C304.744 59.0511 304.883 60.2047 305.05 61.0287C305.272 61.7977 305.494 62.3471 305.716 62.6767C305.993 62.9513 306.299 63.0887 306.632 63.0887C307.131 63.0887 307.631 62.7865 308.13 62.1823C308.686 61.578 309.185 60.8913 309.629 60.1223C310.129 59.3532 310.545 58.6116 310.878 57.8975C311.267 57.1284 311.517 56.6065 311.628 56.3319C311.905 55.8375 311.988 55.3156 311.877 54.7663C311.655 51.4703 311.544 48.7236 311.544 46.5263C311.6 44.274 311.739 42.4337 311.961 41.0055C312.238 39.5772 312.571 38.4511 312.96 37.6271C313.404 36.8031 313.848 36.1164 314.292 35.5671C315.569 34.0289 317.206 33.2599 319.205 33.2599H319.288C321.397 33.2599 323.063 34.1663 324.284 35.9791C325.061 37.0777 325.533 38.4236 325.699 40.0167C325.921 41.5548 325.949 43.1753 325.783 44.8783C325.616 46.5263 325.339 48.1743 324.95 49.8223C324.561 51.4153 324.117 52.8161 323.618 54.0247L323.535 54.1895C323.423 54.4092 323.229 54.5191 322.952 54.5191C322.73 54.5191 322.563 54.4092 322.452 54.1895C322.23 53.6401 322.008 53.1183 321.786 52.6239C321.564 52.1295 321.342 51.6625 321.12 51.2231C320.953 50.6737 320.759 50.1793 320.537 49.7399C320.759 50.6188 320.981 51.5527 321.203 52.5415C321.425 53.4753 321.619 54.3817 321.786 55.2607C321.952 56.1396 322.091 56.9361 322.202 57.6503C322.369 58.3095 322.48 58.8313 322.535 59.2159Z" stroke="black" stroke-width="8" mask="url(#path-3-outside-1_817_1759)"/>
</g>
<defs>
<filter id="filter0_d_817_1759" x="0.967773" y="25.9448" width="103.068" height="55.5562" filterUnits="userSpaceOnUse" color-interpolation-filters="sRGB">
<feFlood flood-opacity="0" result="BackgroundImageFix"/>
<feColorMatrix in="SourceAlpha" type="matrix" values="0 0 0 0 0 0 0 0 0 0 0 0 0 0 0 0 0 0 127 0" result="hardAlpha"/>
<feOffset dx="7" dy="4"/>
<feComposite in2="hardAlpha" operator="out"/>
<feColorMatrix type="matrix" values="0 0 0 0 0 0 0 0 0 0 0 0 0 0 0 0 0 0 1 0"/>
<feBlend mode="normal" in2="BackgroundImageFix" result="effect1_dropShadow_817_1759"/>
<feBlend mode="normal" in="SourceGraphic" in2="effect1_dropShadow_817_1759" result="shape"/>
</filter>
<filter id="filter1_d_817_1759" x="119.4" y="28.0195" width="217.489" height="54.1931" filterUnits="userSpaceOnUse" color-interpolation-filters="sRGB">
<feFlood flood-opacity="0" result="BackgroundImageFix"/>
<feColorMatrix in="SourceAlpha" type="matrix" values="0 0 0 0 0 0 0 0 0 0 0 0 0 0 0 0 0 0 127 0" result="hardAlpha"/>
<feOffset dx="7" dy="4"/>
<feComposite in2="hardAlpha" operator="out"/>
<feColorMatrix type="matrix" values="0 0 0 0 0 0 0 0 0 0 0 0 0 0 0 0 0 0 1 0"/>
<feBlend mode="normal" in2="BackgroundImageFix" result="effect1_dropShadow_817_1759"/>
<feBlend mode="normal" in="SourceGraphic" in2="effect1_dropShadow_817_1759" result="shape"/>
</filter>
</defs>
</svg>
