<svg width="186" height="95" viewBox="0 0 186 95" fill="none" xmlns="http://www.w3.org/2000/svg">
<g filter="url(#filter0_d_449_85)">
<path d="M101.885 55.8975V52.537H63.8297V39.6209H101.885V18.9122H63.8297V5.99614H114.703V55.8975H101.885Z" fill="white"/>
<path d="M56.6246 86.9962V59.4875H122.629V86.3158H107.385V84.8122H71.8648V87L56.6246 86.9962ZM107.385 75.6101V68.6859H71.8648V75.6101H107.385Z" fill="white"/>
<path d="M124.667 60.2919L129.124 58.9386C148.07 53.176 158.289 40.7899 160.218 21.1339H121.826V6.42844H163.856L168.937 5L174 11.0145L173.963 12.5181C173.241 44.0641 160.338 64.5133 135.615 73.3433L133.319 74.1628L124.667 60.2919Z" fill="white"/>
<path d="M43.381 73.3433C18.6586 64.5133 5.75902 44.064 5.03365 12.5218L5 11.0182L10.0589 5.00372L15.1402 6.43216H57.1705V21.1413H18.7783C20.7226 40.7936 30.9264 53.1797 49.872 58.9423L54.3289 60.2956L45.6768 74.1665L43.381 73.3433Z" fill="white"/>
<path d="M73.8652 73.6104H105.386V70.6855H73.8652V73.6104ZM116.703 57.4873H124.63V58.2119L128.542 57.0254L129.396 56.7588C138.155 53.9589 144.798 49.6974 149.508 43.9756C153.989 38.531 156.823 31.6375 157.971 23.1338H119.826V4.42871H163.578L168.396 3.07422L169.638 2.72559L170.468 3.71191L175.53 9.72656L176.019 10.3066L175.999 11.0645L175.962 12.5674C175.595 28.5916 172.13 41.9702 165.48 52.5156C158.814 63.0881 149.03 70.6754 136.288 75.2266H136.287L133.992 76.0469L132.475 76.5879L131.622 75.2217L124.63 64.0107V88.3154H105.386V86.8125H73.8652V89.001L71.8643 89L56.624 88.9961H54.625V63.5996L47.374 75.2246L46.5205 76.5938L45.002 76.0488L42.708 75.2256V75.2266C29.9657 70.6754 20.183 63.0885 13.5166 52.5166C6.86677 41.9709 3.40268 28.5912 3.03418 12.5674V12.5664L3.00098 11.0625L2.9834 10.3086L3.46973 9.73047L8.52832 3.7168L9.3584 2.72949L10.6006 3.07812L15.418 4.43262H59.1709V23.1416H21.0273C22.181 31.6436 25.0145 38.5356 29.4941 43.9795C34.3538 49.8852 41.271 54.2354 50.4521 57.0283L54.625 58.2949V57.4873H99.8857V54.5371H61.8301V37.6211H99.8857V20.9121H61.8301V3.99609H116.703V57.4873Z" stroke="black" stroke-width="4"/>
</g>
<defs>
<filter id="filter0_d_449_85" x="0.967224" y="0.451477" width="184.069" height="94.5495" filterUnits="userSpaceOnUse" color-interpolation-filters="sRGB">
<feFlood flood-opacity="0" result="BackgroundImageFix"/>
<feColorMatrix in="SourceAlpha" type="matrix" values="0 0 0 0 0 0 0 0 0 0 0 0 0 0 0 0 0 0 127 0" result="hardAlpha"/>
<feOffset dx="7" dy="4"/>
<feComposite in2="hardAlpha" operator="out"/>
<feColorMatrix type="matrix" values="0 0 0 0 0 0 0 0 0 0 0 0 0 0 0 0 0 0 1 0"/>
<feBlend mode="normal" in2="BackgroundImageFix" result="effect1_dropShadow_449_85"/>
<feBlend mode="normal" in="SourceGraphic" in2="effect1_dropShadow_449_85" result="shape"/>
</filter>
</defs>
</svg>
