<svg width="357" height="85" viewBox="0 0 357 85" fill="none" xmlns="http://www.w3.org/2000/svg">
<g filter="url(#filter0_d_460_35)">
<mask id="path-1-outside-1_460_35" maskUnits="userSpaceOnUse" x="0.673645" y="0.552612" width="349" height="80" fill="black">
<rect fill="white" x="0.673645" y="0.552612" width="349" height="80"/>
<path d="M60.4714 60.84C61.7781 62.8933 62.1514 65.04 61.5914 67.28C61.1248 69.52 59.9114 71.2933 57.9514 72.6C56.4581 73.5333 54.9181 74 53.3314 74C51.9314 74 50.5781 73.6733 49.2714 73.02C47.9648 72.3666 46.8914 71.3867 46.0514 70.08C46.0514 70.08 45.7248 69.6133 45.0714 68.68C44.5114 67.7467 43.7181 66.5333 42.6914 65.04C41.6648 63.5466 40.4514 61.8666 39.0514 60C37.6514 58.1333 36.1581 56.22 34.5714 54.26C33.8248 53.2333 33.0781 52.3 32.3314 51.46C31.6781 50.62 31.0248 49.8266 30.3714 49.08C29.3448 47.8666 28.4581 46.9333 27.7114 46.28C26.9648 45.6267 26.3114 45.1133 25.7514 44.74C25.1914 44.2733 24.6781 43.9933 24.2114 43.9C25.1448 44.9266 25.9381 45.9533 26.5914 46.98C27.3381 47.9133 27.9448 48.8466 28.4114 49.78C29.0648 50.8067 29.3914 52.02 29.3914 53.42V65.46C29.3914 67.8867 28.5048 69.94 26.7314 71.62C25.0514 73.3 22.9981 74.0933 20.5714 74C18.2381 73.9067 16.2781 73.02 14.6914 71.34C13.1981 69.66 12.4514 67.6533 12.4514 65.32V50.2C12.4514 49.36 12.0781 48.8 11.3314 48.52C8.25142 46.6533 6.19809 43.9 5.17142 40.26C4.42476 37.46 4.51809 34.66 5.45142 31.86C6.47809 28.9666 8.11142 26.68 10.3514 25C10.4448 24.8133 10.6781 24.6266 11.0514 24.44C11.9848 23.7866 12.4514 22.9466 12.4514 21.92V13.1C12.4514 10.6733 13.2914 8.61998 14.9714 6.93998C16.7448 5.25998 18.8448 4.46665 21.2714 4.55998C23.6048 4.65331 25.5181 5.53998 27.0114 7.21998C28.5981 8.89998 29.3914 10.9066 29.3914 13.24V21.64C29.3914 22.3866 29.7181 22.9 30.3714 23.18C31.0248 23.3666 31.5848 23.2266 32.0514 22.76C32.5181 22.2933 32.8914 21.8733 33.1714 21.5C33.5448 21.0333 33.9648 20.5666 34.4314 20.1C36.0181 18.2333 37.3714 16.6466 38.4914 15.34C39.6114 13.94 40.5448 12.7733 41.2914 11.84C42.1314 10.8133 42.7848 9.92665 43.2514 9.17998C44.6514 7.21998 46.5181 6.05331 48.8514 5.67998C51.1848 5.21331 53.2848 5.63331 55.1514 6.93998C57.1114 8.33998 58.2781 10.2066 58.6514 12.54C59.1181 14.78 58.6514 16.88 57.2514 18.84C57.2514 18.9333 56.5981 19.7733 55.2914 21.36C53.9848 22.9466 52.5381 24.6733 50.9514 26.54C49.3648 28.4066 47.9181 30.18 46.6114 31.86C45.3048 33.4466 44.5581 34.3333 44.3714 34.52C43.7181 35.1733 43.3914 35.92 43.3914 36.76C43.3914 37.6 43.6714 38.3933 44.2314 39.14C44.4181 39.3266 44.9314 40.0266 45.7714 41.24C46.7048 42.36 47.7314 43.7133 48.8514 45.3C50.0648 46.8866 51.3248 48.6133 52.6314 50.48C54.0314 52.2533 55.2914 53.9333 56.4114 55.52C57.5314 57.0133 58.4648 58.2733 59.2114 59.3C59.9581 60.3267 60.3781 60.84 60.4714 60.84Z"/>
<path d="M100.303 11.42C103.663 13.66 105.996 16.3666 107.303 19.54C108.609 22.62 109.683 25.6066 110.523 28.5C111.736 32.14 112.343 36.1066 112.343 40.4C112.343 46.3733 111.409 51.8333 109.543 56.78C107.676 61.7267 105.016 65.8333 101.563 69.1C96.9892 73.3933 91.7625 75.54 85.8825 75.54C85.1358 75.54 84.6225 75.4933 84.3425 75.4C77.8092 74.9333 72.4892 72.18 68.3825 67.14C65.1158 63.0333 62.8759 57.8066 61.6625 51.46C60.5425 45.02 60.5425 37.74 61.6625 29.62C61.8492 28.1266 62.3625 26.82 63.2025 25.7C64.1359 24.58 65.2558 23.6933 66.5625 23.04C67.7758 22.48 68.5225 21.5 68.8025 20.1C68.8958 19.6333 68.9892 19.2133 69.0825 18.84C69.1758 18.3733 69.3158 17.9066 69.5025 17.44C70.5292 14.2666 72.3959 11.56 75.1025 9.31998C77.8092 7.07998 80.7492 5.77331 83.9225 5.39998C86.7225 5.11998 89.5225 5.49331 92.3225 6.51998C95.2159 7.54665 97.8759 9.17998 100.303 11.42ZM95.8225 39.56C97.8759 38.2533 99.3692 36.8533 100.303 35.36C100.863 34.6133 101.329 33.9133 101.703 33.26C100.769 34.0066 99.3692 34.7533 97.5025 35.5C95.6358 36.2466 93.6759 36.9 91.6225 37.46C89.5692 37.9267 87.6092 38.3 85.7425 38.58C83.9692 38.86 82.6625 38.9067 81.8225 38.72C80.7959 38.5333 79.8625 38.7667 79.0225 39.42C78.2759 39.98 77.9025 40.7733 77.9025 41.8C77.9958 45.5333 78.3692 48.6133 79.0225 51.04C79.7692 53.3733 80.6092 55.1466 81.5425 56.36C82.5692 57.6666 83.8292 58.3666 85.3225 58.46C85.8825 58.46 86.5359 58.4133 87.2825 58.32C88.1225 58.1333 89.0092 57.5733 89.9425 56.64C91.5292 55.1467 92.7892 52.9533 93.7225 50.06C94.7492 47.0733 95.2625 43.8533 95.2625 40.4C95.2625 40.0266 95.4492 39.7466 95.8225 39.56Z"/>
<path d="M171.698 60.42C173.285 62.1933 173.985 64.2467 173.798 66.58C173.611 68.9133 172.631 70.8733 170.858 72.46C169.271 73.7666 167.405 74.42 165.258 74.42C162.645 74.42 160.498 73.44 158.818 71.48C158.818 71.48 158.491 71.1533 157.838 70.5C157.185 69.7533 156.298 68.82 155.178 67.7C154.151 66.4866 152.891 65.1333 151.398 63.64C149.998 62.0533 148.458 60.4666 146.778 58.88C146.591 58.6933 145.985 58.1333 144.958 57.2C143.931 56.1733 142.765 55.1466 141.458 54.12C140.058 52.8133 138.471 51.3666 136.698 49.78C137.631 50.9933 138.471 52.1133 139.218 53.14C139.965 54.1666 140.665 55.1933 141.318 56.22C142.625 58.0866 143.278 60.14 143.278 62.38V66.86C143.278 69.2867 142.391 71.34 140.618 73.02C138.938 74.7 136.885 75.4933 134.458 75.4C132.125 75.2133 130.165 74.28 128.578 72.6C126.991 70.92 126.198 68.9133 126.198 66.58V55.38C125.265 54.9133 124.565 54.4467 124.098 53.98C122.418 52.7667 121.111 51.32 120.178 49.64C119.338 47.8666 118.825 45.9533 118.638 43.9C118.545 41.7533 118.871 39.7 119.618 37.74C120.365 35.78 121.438 34.1467 122.838 32.84C123.771 31.9066 124.891 31.16 126.198 30.6V15.2C126.198 12.7733 126.991 10.7666 128.578 9.17998C130.258 7.49998 132.311 6.65998 134.738 6.65998H135.578C136.138 6.65998 137.678 6.65998 140.198 6.65998C142.811 6.65998 145.798 6.93998 149.158 7.49998C152.518 7.96665 155.971 8.89998 159.518 10.3C163.065 11.7 166.051 13.8 168.478 16.6C172.865 21.7333 174.498 27.9866 173.378 35.36C172.538 40.68 169.598 45.3 164.558 49.22C164.091 49.5933 163.811 50.1067 163.718 50.76C163.625 51.32 163.811 51.8333 164.278 52.3C166.425 54.54 168.151 56.4066 169.458 57.9C170.858 59.3933 171.605 60.2333 171.698 60.42ZM156.578 32.56C156.765 31.2533 156.718 30.2733 156.438 29.62C156.251 28.8733 155.971 28.2666 155.598 27.8C154.758 26.7733 153.498 25.98 151.818 25.42C150.138 24.86 148.318 24.4866 146.358 24.3C145.518 24.1133 144.771 24.3 144.118 24.86C143.558 25.42 143.278 26.12 143.278 26.96V31.72C143.278 33.0266 143.745 34.2866 144.678 35.5C145.705 36.7133 146.871 37.4133 148.178 37.6C149.578 37.7866 150.511 37.74 150.978 37.46C151.725 37.18 152.331 36.8533 152.798 36.48C153.451 36.1066 154.198 35.5933 155.038 34.94C155.878 34.1933 156.391 33.4 156.578 32.56Z"/>
<path d="M281.76 7.35998C284.093 7.35998 286.1 8.19998 287.78 9.87998C289.46 11.4666 290.3 13.4266 290.3 15.76C290.3 18.1866 289.46 20.24 287.78 21.92C286.193 23.5066 284.187 24.3 281.76 24.3C278.213 24.3933 274.387 24.6733 270.28 25.14C266.267 25.5133 262.16 26.0733 257.96 26.82C256.653 27.0066 255.113 27.24 253.34 27.52C251.567 27.8 249.607 28.1266 247.46 28.5C247.927 28.6866 248.58 28.8266 249.42 28.92C250.447 29.1066 252.453 29.2933 255.44 29.48C256.187 29.48 256.793 29.7133 257.26 30.18C257.82 30.6466 258.1 31.2533 258.1 32C258.1 32.9333 258.053 33.9133 257.96 34.94C257.96 35.9666 257.96 36.9933 257.96 38.02C257.96 39.0466 258.333 39.98 259.08 40.82C259.827 41.5666 260.713 41.94 261.74 41.94H271.68C274.107 41.94 276.16 42.8266 277.84 44.6C279.52 46.28 280.313 48.3333 280.22 50.76C280.127 53.0933 279.24 55.0533 277.56 56.64C275.88 58.1333 273.873 58.88 271.54 58.88H260.06C259.127 58.88 258.287 59.2066 257.54 59.86C256.887 60.5133 256.513 61.3533 256.42 62.38C256.233 64.2467 256.047 65.74 255.86 66.86C255.767 67.98 255.72 68.5867 255.72 68.68C255.44 70.8267 254.46 72.6 252.78 74C251.193 75.4933 249.327 76.24 247.18 76.24H246.2C243.867 75.96 241.953 74.9333 240.46 73.16C239.06 71.2933 238.5 69.1467 238.78 66.72C238.78 66.72 238.827 66.1133 238.92 64.9C239.107 63.5933 239.293 61.9133 239.48 59.86C239.667 57.8066 239.853 55.4267 240.04 52.72C240.32 50.0133 240.507 47.2133 240.6 44.32C240.88 39.84 241.02 36.06 241.02 32.98C241.02 32.2333 240.693 31.58 240.04 31.02C239.387 30.46 238.687 30.2733 237.94 30.46L235.84 30.88C233.787 31.2533 231.827 31.6733 229.96 32.14C229.213 32.2333 228.653 32.56 228.28 33.12C227.907 33.5866 227.767 34.1933 227.86 34.94C228.14 36.7133 228.28 38.5333 228.28 40.4C228.28 46.3733 227.347 51.8333 225.48 56.78C223.613 61.7267 220.953 65.8333 217.5 69.1C212.927 73.3933 207.7 75.54 201.82 75.54C201.073 75.54 200.56 75.4933 200.28 75.4C193.747 74.9333 188.427 72.18 184.32 67.14C181.053 63.0333 178.813 57.8066 177.6 51.46C176.48 45.02 176.48 37.74 177.6 29.62C178.067 26.54 179.653 24.3933 182.36 23.18C183.107 22.8066 183.667 22.2933 184.04 21.64C184.507 20.8933 184.693 20.1466 184.6 19.4C184.6 17.8133 184.927 16.1333 185.58 14.36C186.793 11.0933 188.94 8.61998 192.02 6.93998C195.193 5.25998 198.647 4.79332 202.38 5.53998C205.553 6.09998 208.68 7.35998 211.76 9.31998C214.84 11.1866 217.593 13.6133 220.02 16.6C221.98 16.2266 223.987 15.8533 226.04 15.48C228.187 15.1066 230.333 14.6866 232.48 14.22L238.78 12.96C238.967 11.6533 239.433 10.44 240.18 9.31998C240.927 8.10665 241.953 7.17331 243.26 6.51998C245.407 5.39998 247.553 5.21331 249.7 5.95998C251.94 6.61331 253.62 7.96665 254.74 10.02C259.407 9.27331 263.98 8.66665 268.46 8.19998C273.033 7.63998 277.42 7.35998 281.62 7.35998H281.76ZM212.88 37.74C214.84 37.18 216.38 36.6666 217.5 36.2C218.713 35.7333 219.693 35.2667 220.44 34.8C221.187 34.3333 221.747 33.9133 222.12 33.54C220.907 33.82 219.6 34.0533 218.2 34.24C216.893 34.4266 215.68 34.6133 214.56 34.8C213.253 34.9866 211.947 35.1733 210.64 35.36C207.653 35.64 205.04 35.78 202.8 35.78C200.653 35.6866 198.693 35.4066 196.92 34.94C196.173 34.7533 195.52 34.8466 194.96 35.22C194.4 35.5933 194.073 36.1533 193.98 36.9C193.607 42.0333 193.793 46.2333 194.54 49.5C195.38 52.6733 196.36 54.96 197.48 56.36C198.507 57.6666 199.767 58.3666 201.26 58.46C201.82 58.46 202.473 58.4133 203.22 58.32C204.06 58.1333 204.947 57.5733 205.88 56.64C207.467 55.1467 208.727 52.9533 209.66 50.06C210.687 47.0733 211.2 43.8533 211.2 40.4V40.12C211.2 39 211.76 38.2066 212.88 37.74Z"/>
<path d="M339.494 50.76C339.96 54.96 340.38 58.46 340.754 61.26C341.127 64.06 341.36 65.5066 341.454 65.6C341.827 67.9333 341.314 70.0333 339.914 71.9C338.514 73.7667 336.647 74.8867 334.314 75.26C334.034 75.3533 333.567 75.4 332.914 75.4C331.327 75.4 329.834 74.98 328.434 74.14C327.127 73.3 326.1 72.18 325.354 70.78C324.98 70.1266 324.56 70.0333 324.094 70.5C322.414 71.8066 320.734 72.74 319.054 73.3C317.467 73.86 315.927 74.1867 314.434 74.28C312.94 74.4667 311.54 74.42 310.234 74.14C309.02 73.9533 307.947 73.6733 307.014 73.3C301.04 71.2466 296.84 66.1133 294.414 57.9C293.667 55.4733 293.107 52.6733 292.734 49.5C292.36 46.3266 292.127 42.8733 292.034 39.14C292.034 36.1533 292.08 33.26 292.174 30.46C292.36 27.66 292.547 25.1866 292.734 23.04C293.014 20.8 293.247 19.0266 293.434 17.72C293.62 16.32 293.714 15.5733 293.714 15.48C294.087 13.1466 295.207 11.28 297.074 9.87998C298.94 8.47998 301.04 7.96665 303.374 8.33998C305.8 8.71331 307.667 9.83331 308.974 11.7C310.374 13.5666 310.887 15.6666 310.514 18C310.514 18.0933 310.42 18.7 310.234 19.82C310.14 20.94 310 22.4333 309.814 24.3C309.627 26.1666 309.44 28.3133 309.254 30.74C309.16 33.0733 309.114 35.5 309.114 38.02C309.114 42.1267 309.207 45.44 309.394 47.96C309.58 50.48 309.814 52.44 310.094 53.84C310.467 55.1466 310.84 56.08 311.214 56.64C311.68 57.1067 312.194 57.34 312.754 57.34C313.594 57.34 314.434 56.8267 315.274 55.8C316.207 54.7733 317.047 53.6067 317.794 52.3C318.634 50.9933 319.334 49.7333 319.894 48.52C320.547 47.2133 320.967 46.3266 321.154 45.86C321.62 45.02 321.76 44.1333 321.574 43.2C321.2 37.6 321.014 32.9333 321.014 29.2C321.107 25.3733 321.34 22.2466 321.714 19.82C322.18 17.3933 322.74 15.48 323.394 14.08C324.14 12.68 324.887 11.5133 325.634 10.58C327.78 7.96665 330.534 6.65998 333.894 6.65998H334.034C337.58 6.65998 340.38 8.19998 342.434 11.28C343.74 13.1466 344.534 15.4333 344.814 18.14C345.187 20.7533 345.234 23.5066 344.954 26.4C344.674 29.2 344.207 32 343.554 34.8C342.9 37.5066 342.154 39.8866 341.314 41.94L341.174 42.22C340.987 42.5933 340.66 42.78 340.194 42.78C339.82 42.78 339.54 42.5933 339.354 42.22C338.98 41.2866 338.607 40.4 338.234 39.56C337.86 38.72 337.487 37.9266 337.114 37.18C336.834 36.2466 336.507 35.4066 336.134 34.66C336.507 36.1533 336.88 37.74 337.254 39.42C337.627 41.0066 337.954 42.5466 338.234 44.04C338.514 45.5333 338.747 46.8867 338.934 48.1C339.214 49.22 339.4 50.1067 339.494 50.76Z"/>
</mask>
<path d="M60.4714 60.84C61.7781 62.8933 62.1514 65.04 61.5914 67.28C61.1248 69.52 59.9114 71.2933 57.9514 72.6C56.4581 73.5333 54.9181 74 53.3314 74C51.9314 74 50.5781 73.6733 49.2714 73.02C47.9648 72.3666 46.8914 71.3867 46.0514 70.08C46.0514 70.08 45.7248 69.6133 45.0714 68.68C44.5114 67.7467 43.7181 66.5333 42.6914 65.04C41.6648 63.5466 40.4514 61.8666 39.0514 60C37.6514 58.1333 36.1581 56.22 34.5714 54.26C33.8248 53.2333 33.0781 52.3 32.3314 51.46C31.6781 50.62 31.0248 49.8266 30.3714 49.08C29.3448 47.8666 28.4581 46.9333 27.7114 46.28C26.9648 45.6267 26.3114 45.1133 25.7514 44.74C25.1914 44.2733 24.6781 43.9933 24.2114 43.9C25.1448 44.9266 25.9381 45.9533 26.5914 46.98C27.3381 47.9133 27.9448 48.8466 28.4114 49.78C29.0648 50.8067 29.3914 52.02 29.3914 53.42V65.46C29.3914 67.8867 28.5048 69.94 26.7314 71.62C25.0514 73.3 22.9981 74.0933 20.5714 74C18.2381 73.9067 16.2781 73.02 14.6914 71.34C13.1981 69.66 12.4514 67.6533 12.4514 65.32V50.2C12.4514 49.36 12.0781 48.8 11.3314 48.52C8.25142 46.6533 6.19809 43.9 5.17142 40.26C4.42476 37.46 4.51809 34.66 5.45142 31.86C6.47809 28.9666 8.11142 26.68 10.3514 25C10.4448 24.8133 10.6781 24.6266 11.0514 24.44C11.9848 23.7866 12.4514 22.9466 12.4514 21.92V13.1C12.4514 10.6733 13.2914 8.61998 14.9714 6.93998C16.7448 5.25998 18.8448 4.46665 21.2714 4.55998C23.6048 4.65331 25.5181 5.53998 27.0114 7.21998C28.5981 8.89998 29.3914 10.9066 29.3914 13.24V21.64C29.3914 22.3866 29.7181 22.9 30.3714 23.18C31.0248 23.3666 31.5848 23.2266 32.0514 22.76C32.5181 22.2933 32.8914 21.8733 33.1714 21.5C33.5448 21.0333 33.9648 20.5666 34.4314 20.1C36.0181 18.2333 37.3714 16.6466 38.4914 15.34C39.6114 13.94 40.5448 12.7733 41.2914 11.84C42.1314 10.8133 42.7848 9.92665 43.2514 9.17998C44.6514 7.21998 46.5181 6.05331 48.8514 5.67998C51.1848 5.21331 53.2848 5.63331 55.1514 6.93998C57.1114 8.33998 58.2781 10.2066 58.6514 12.54C59.1181 14.78 58.6514 16.88 57.2514 18.84C57.2514 18.9333 56.5981 19.7733 55.2914 21.36C53.9848 22.9466 52.5381 24.6733 50.9514 26.54C49.3648 28.4066 47.9181 30.18 46.6114 31.86C45.3048 33.4466 44.5581 34.3333 44.3714 34.52C43.7181 35.1733 43.3914 35.92 43.3914 36.76C43.3914 37.6 43.6714 38.3933 44.2314 39.14C44.4181 39.3266 44.9314 40.0266 45.7714 41.24C46.7048 42.36 47.7314 43.7133 48.8514 45.3C50.0648 46.8866 51.3248 48.6133 52.6314 50.48C54.0314 52.2533 55.2914 53.9333 56.4114 55.52C57.5314 57.0133 58.4648 58.2733 59.2114 59.3C59.9581 60.3267 60.3781 60.84 60.4714 60.84Z" fill="#E9B349"/>
<path d="M100.303 11.42C103.663 13.66 105.996 16.3666 107.303 19.54C108.609 22.62 109.683 25.6066 110.523 28.5C111.736 32.14 112.343 36.1066 112.343 40.4C112.343 46.3733 111.409 51.8333 109.543 56.78C107.676 61.7267 105.016 65.8333 101.563 69.1C96.9892 73.3933 91.7625 75.54 85.8825 75.54C85.1358 75.54 84.6225 75.4933 84.3425 75.4C77.8092 74.9333 72.4892 72.18 68.3825 67.14C65.1158 63.0333 62.8759 57.8066 61.6625 51.46C60.5425 45.02 60.5425 37.74 61.6625 29.62C61.8492 28.1266 62.3625 26.82 63.2025 25.7C64.1359 24.58 65.2558 23.6933 66.5625 23.04C67.7758 22.48 68.5225 21.5 68.8025 20.1C68.8958 19.6333 68.9892 19.2133 69.0825 18.84C69.1758 18.3733 69.3158 17.9066 69.5025 17.44C70.5292 14.2666 72.3959 11.56 75.1025 9.31998C77.8092 7.07998 80.7492 5.77331 83.9225 5.39998C86.7225 5.11998 89.5225 5.49331 92.3225 6.51998C95.2159 7.54665 97.8759 9.17998 100.303 11.42ZM95.8225 39.56C97.8759 38.2533 99.3692 36.8533 100.303 35.36C100.863 34.6133 101.329 33.9133 101.703 33.26C100.769 34.0066 99.3692 34.7533 97.5025 35.5C95.6358 36.2466 93.6759 36.9 91.6225 37.46C89.5692 37.9267 87.6092 38.3 85.7425 38.58C83.9692 38.86 82.6625 38.9067 81.8225 38.72C80.7959 38.5333 79.8625 38.7667 79.0225 39.42C78.2759 39.98 77.9025 40.7733 77.9025 41.8C77.9958 45.5333 78.3692 48.6133 79.0225 51.04C79.7692 53.3733 80.6092 55.1466 81.5425 56.36C82.5692 57.6666 83.8292 58.3666 85.3225 58.46C85.8825 58.46 86.5359 58.4133 87.2825 58.32C88.1225 58.1333 89.0092 57.5733 89.9425 56.64C91.5292 55.1467 92.7892 52.9533 93.7225 50.06C94.7492 47.0733 95.2625 43.8533 95.2625 40.4C95.2625 40.0266 95.4492 39.7466 95.8225 39.56Z" fill="#E9B349"/>
<path d="M171.698 60.42C173.285 62.1933 173.985 64.2467 173.798 66.58C173.611 68.9133 172.631 70.8733 170.858 72.46C169.271 73.7666 167.405 74.42 165.258 74.42C162.645 74.42 160.498 73.44 158.818 71.48C158.818 71.48 158.491 71.1533 157.838 70.5C157.185 69.7533 156.298 68.82 155.178 67.7C154.151 66.4866 152.891 65.1333 151.398 63.64C149.998 62.0533 148.458 60.4666 146.778 58.88C146.591 58.6933 145.985 58.1333 144.958 57.2C143.931 56.1733 142.765 55.1466 141.458 54.12C140.058 52.8133 138.471 51.3666 136.698 49.78C137.631 50.9933 138.471 52.1133 139.218 53.14C139.965 54.1666 140.665 55.1933 141.318 56.22C142.625 58.0866 143.278 60.14 143.278 62.38V66.86C143.278 69.2867 142.391 71.34 140.618 73.02C138.938 74.7 136.885 75.4933 134.458 75.4C132.125 75.2133 130.165 74.28 128.578 72.6C126.991 70.92 126.198 68.9133 126.198 66.58V55.38C125.265 54.9133 124.565 54.4467 124.098 53.98C122.418 52.7667 121.111 51.32 120.178 49.64C119.338 47.8666 118.825 45.9533 118.638 43.9C118.545 41.7533 118.871 39.7 119.618 37.74C120.365 35.78 121.438 34.1467 122.838 32.84C123.771 31.9066 124.891 31.16 126.198 30.6V15.2C126.198 12.7733 126.991 10.7666 128.578 9.17998C130.258 7.49998 132.311 6.65998 134.738 6.65998H135.578C136.138 6.65998 137.678 6.65998 140.198 6.65998C142.811 6.65998 145.798 6.93998 149.158 7.49998C152.518 7.96665 155.971 8.89998 159.518 10.3C163.065 11.7 166.051 13.8 168.478 16.6C172.865 21.7333 174.498 27.9866 173.378 35.36C172.538 40.68 169.598 45.3 164.558 49.22C164.091 49.5933 163.811 50.1067 163.718 50.76C163.625 51.32 163.811 51.8333 164.278 52.3C166.425 54.54 168.151 56.4066 169.458 57.9C170.858 59.3933 171.605 60.2333 171.698 60.42ZM156.578 32.56C156.765 31.2533 156.718 30.2733 156.438 29.62C156.251 28.8733 155.971 28.2666 155.598 27.8C154.758 26.7733 153.498 25.98 151.818 25.42C150.138 24.86 148.318 24.4866 146.358 24.3C145.518 24.1133 144.771 24.3 144.118 24.86C143.558 25.42 143.278 26.12 143.278 26.96V31.72C143.278 33.0266 143.745 34.2866 144.678 35.5C145.705 36.7133 146.871 37.4133 148.178 37.6C149.578 37.7866 150.511 37.74 150.978 37.46C151.725 37.18 152.331 36.8533 152.798 36.48C153.451 36.1066 154.198 35.5933 155.038 34.94C155.878 34.1933 156.391 33.4 156.578 32.56Z" fill="#E9B349"/>
<path d="M281.76 7.35998C284.093 7.35998 286.1 8.19998 287.78 9.87998C289.46 11.4666 290.3 13.4266 290.3 15.76C290.3 18.1866 289.46 20.24 287.78 21.92C286.193 23.5066 284.187 24.3 281.76 24.3C278.213 24.3933 274.387 24.6733 270.28 25.14C266.267 25.5133 262.16 26.0733 257.96 26.82C256.653 27.0066 255.113 27.24 253.34 27.52C251.567 27.8 249.607 28.1266 247.46 28.5C247.927 28.6866 248.58 28.8266 249.42 28.92C250.447 29.1066 252.453 29.2933 255.44 29.48C256.187 29.48 256.793 29.7133 257.26 30.18C257.82 30.6466 258.1 31.2533 258.1 32C258.1 32.9333 258.053 33.9133 257.96 34.94C257.96 35.9666 257.96 36.9933 257.96 38.02C257.96 39.0466 258.333 39.98 259.08 40.82C259.827 41.5666 260.713 41.94 261.74 41.94H271.68C274.107 41.94 276.16 42.8266 277.84 44.6C279.52 46.28 280.313 48.3333 280.22 50.76C280.127 53.0933 279.24 55.0533 277.56 56.64C275.88 58.1333 273.873 58.88 271.54 58.88H260.06C259.127 58.88 258.287 59.2066 257.54 59.86C256.887 60.5133 256.513 61.3533 256.42 62.38C256.233 64.2467 256.047 65.74 255.86 66.86C255.767 67.98 255.72 68.5867 255.72 68.68C255.44 70.8267 254.46 72.6 252.78 74C251.193 75.4933 249.327 76.24 247.18 76.24H246.2C243.867 75.96 241.953 74.9333 240.46 73.16C239.06 71.2933 238.5 69.1467 238.78 66.72C238.78 66.72 238.827 66.1133 238.92 64.9C239.107 63.5933 239.293 61.9133 239.48 59.86C239.667 57.8066 239.853 55.4267 240.04 52.72C240.32 50.0133 240.507 47.2133 240.6 44.32C240.88 39.84 241.02 36.06 241.02 32.98C241.02 32.2333 240.693 31.58 240.04 31.02C239.387 30.46 238.687 30.2733 237.94 30.46L235.84 30.88C233.787 31.2533 231.827 31.6733 229.96 32.14C229.213 32.2333 228.653 32.56 228.28 33.12C227.907 33.5866 227.767 34.1933 227.86 34.94C228.14 36.7133 228.28 38.5333 228.28 40.4C228.28 46.3733 227.347 51.8333 225.48 56.78C223.613 61.7267 220.953 65.8333 217.5 69.1C212.927 73.3933 207.7 75.54 201.82 75.54C201.073 75.54 200.56 75.4933 200.28 75.4C193.747 74.9333 188.427 72.18 184.32 67.14C181.053 63.0333 178.813 57.8066 177.6 51.46C176.48 45.02 176.48 37.74 177.6 29.62C178.067 26.54 179.653 24.3933 182.36 23.18C183.107 22.8066 183.667 22.2933 184.04 21.64C184.507 20.8933 184.693 20.1466 184.6 19.4C184.6 17.8133 184.927 16.1333 185.58 14.36C186.793 11.0933 188.94 8.61998 192.02 6.93998C195.193 5.25998 198.647 4.79332 202.38 5.53998C205.553 6.09998 208.68 7.35998 211.76 9.31998C214.84 11.1866 217.593 13.6133 220.02 16.6C221.98 16.2266 223.987 15.8533 226.04 15.48C228.187 15.1066 230.333 14.6866 232.48 14.22L238.78 12.96C238.967 11.6533 239.433 10.44 240.18 9.31998C240.927 8.10665 241.953 7.17331 243.26 6.51998C245.407 5.39998 247.553 5.21331 249.7 5.95998C251.94 6.61331 253.62 7.96665 254.74 10.02C259.407 9.27331 263.98 8.66665 268.46 8.19998C273.033 7.63998 277.42 7.35998 281.62 7.35998H281.76ZM212.88 37.74C214.84 37.18 216.38 36.6666 217.5 36.2C218.713 35.7333 219.693 35.2667 220.44 34.8C221.187 34.3333 221.747 33.9133 222.12 33.54C220.907 33.82 219.6 34.0533 218.2 34.24C216.893 34.4266 215.68 34.6133 214.56 34.8C213.253 34.9866 211.947 35.1733 210.64 35.36C207.653 35.64 205.04 35.78 202.8 35.78C200.653 35.6866 198.693 35.4066 196.92 34.94C196.173 34.7533 195.52 34.8466 194.96 35.22C194.4 35.5933 194.073 36.1533 193.98 36.9C193.607 42.0333 193.793 46.2333 194.54 49.5C195.38 52.6733 196.36 54.96 197.48 56.36C198.507 57.6666 199.767 58.3666 201.26 58.46C201.82 58.46 202.473 58.4133 203.22 58.32C204.06 58.1333 204.947 57.5733 205.88 56.64C207.467 55.1467 208.727 52.9533 209.66 50.06C210.687 47.0733 211.2 43.8533 211.2 40.4V40.12C211.2 39 211.76 38.2066 212.88 37.74Z" fill="#E9B349"/>
<path d="M339.494 50.76C339.96 54.96 340.38 58.46 340.754 61.26C341.127 64.06 341.36 65.5066 341.454 65.6C341.827 67.9333 341.314 70.0333 339.914 71.9C338.514 73.7667 336.647 74.8867 334.314 75.26C334.034 75.3533 333.567 75.4 332.914 75.4C331.327 75.4 329.834 74.98 328.434 74.14C327.127 73.3 326.1 72.18 325.354 70.78C324.98 70.1266 324.56 70.0333 324.094 70.5C322.414 71.8066 320.734 72.74 319.054 73.3C317.467 73.86 315.927 74.1867 314.434 74.28C312.94 74.4667 311.54 74.42 310.234 74.14C309.02 73.9533 307.947 73.6733 307.014 73.3C301.04 71.2466 296.84 66.1133 294.414 57.9C293.667 55.4733 293.107 52.6733 292.734 49.5C292.36 46.3266 292.127 42.8733 292.034 39.14C292.034 36.1533 292.08 33.26 292.174 30.46C292.36 27.66 292.547 25.1866 292.734 23.04C293.014 20.8 293.247 19.0266 293.434 17.72C293.62 16.32 293.714 15.5733 293.714 15.48C294.087 13.1466 295.207 11.28 297.074 9.87998C298.94 8.47998 301.04 7.96665 303.374 8.33998C305.8 8.71331 307.667 9.83331 308.974 11.7C310.374 13.5666 310.887 15.6666 310.514 18C310.514 18.0933 310.42 18.7 310.234 19.82C310.14 20.94 310 22.4333 309.814 24.3C309.627 26.1666 309.44 28.3133 309.254 30.74C309.16 33.0733 309.114 35.5 309.114 38.02C309.114 42.1267 309.207 45.44 309.394 47.96C309.58 50.48 309.814 52.44 310.094 53.84C310.467 55.1466 310.84 56.08 311.214 56.64C311.68 57.1067 312.194 57.34 312.754 57.34C313.594 57.34 314.434 56.8267 315.274 55.8C316.207 54.7733 317.047 53.6067 317.794 52.3C318.634 50.9933 319.334 49.7333 319.894 48.52C320.547 47.2133 320.967 46.3266 321.154 45.86C321.62 45.02 321.76 44.1333 321.574 43.2C321.2 37.6 321.014 32.9333 321.014 29.2C321.107 25.3733 321.34 22.2466 321.714 19.82C322.18 17.3933 322.74 15.48 323.394 14.08C324.14 12.68 324.887 11.5133 325.634 10.58C327.78 7.96665 330.534 6.65998 333.894 6.65998H334.034C337.58 6.65998 340.38 8.19998 342.434 11.28C343.74 13.1466 344.534 15.4333 344.814 18.14C345.187 20.7533 345.234 23.5066 344.954 26.4C344.674 29.2 344.207 32 343.554 34.8C342.9 37.5066 342.154 39.8866 341.314 41.94L341.174 42.22C340.987 42.5933 340.66 42.78 340.194 42.78C339.82 42.78 339.54 42.5933 339.354 42.22C338.98 41.2866 338.607 40.4 338.234 39.56C337.86 38.72 337.487 37.9266 337.114 37.18C336.834 36.2466 336.507 35.4066 336.134 34.66C336.507 36.1533 336.88 37.74 337.254 39.42C337.627 41.0066 337.954 42.5466 338.234 44.04C338.514 45.5333 338.747 46.8867 338.934 48.1C339.214 49.22 339.4 50.1067 339.494 50.76Z" fill="#E9B349"/>
<path d="M60.4714 60.84C61.7781 62.8933 62.1514 65.04 61.5914 67.28C61.1248 69.52 59.9114 71.2933 57.9514 72.6C56.4581 73.5333 54.9181 74 53.3314 74C51.9314 74 50.5781 73.6733 49.2714 73.02C47.9648 72.3666 46.8914 71.3867 46.0514 70.08C46.0514 70.08 45.7248 69.6133 45.0714 68.68C44.5114 67.7467 43.7181 66.5333 42.6914 65.04C41.6648 63.5466 40.4514 61.8666 39.0514 60C37.6514 58.1333 36.1581 56.22 34.5714 54.26C33.8248 53.2333 33.0781 52.3 32.3314 51.46C31.6781 50.62 31.0248 49.8266 30.3714 49.08C29.3448 47.8666 28.4581 46.9333 27.7114 46.28C26.9648 45.6267 26.3114 45.1133 25.7514 44.74C25.1914 44.2733 24.6781 43.9933 24.2114 43.9C25.1448 44.9266 25.9381 45.9533 26.5914 46.98C27.3381 47.9133 27.9448 48.8466 28.4114 49.78C29.0648 50.8067 29.3914 52.02 29.3914 53.42V65.46C29.3914 67.8867 28.5048 69.94 26.7314 71.62C25.0514 73.3 22.9981 74.0933 20.5714 74C18.2381 73.9067 16.2781 73.02 14.6914 71.34C13.1981 69.66 12.4514 67.6533 12.4514 65.32V50.2C12.4514 49.36 12.0781 48.8 11.3314 48.52C8.25142 46.6533 6.19809 43.9 5.17142 40.26C4.42476 37.46 4.51809 34.66 5.45142 31.86C6.47809 28.9666 8.11142 26.68 10.3514 25C10.4448 24.8133 10.6781 24.6266 11.0514 24.44C11.9848 23.7866 12.4514 22.9466 12.4514 21.92V13.1C12.4514 10.6733 13.2914 8.61998 14.9714 6.93998C16.7448 5.25998 18.8448 4.46665 21.2714 4.55998C23.6048 4.65331 25.5181 5.53998 27.0114 7.21998C28.5981 8.89998 29.3914 10.9066 29.3914 13.24V21.64C29.3914 22.3866 29.7181 22.9 30.3714 23.18C31.0248 23.3666 31.5848 23.2266 32.0514 22.76C32.5181 22.2933 32.8914 21.8733 33.1714 21.5C33.5448 21.0333 33.9648 20.5666 34.4314 20.1C36.0181 18.2333 37.3714 16.6466 38.4914 15.34C39.6114 13.94 40.5448 12.7733 41.2914 11.84C42.1314 10.8133 42.7848 9.92665 43.2514 9.17998C44.6514 7.21998 46.5181 6.05331 48.8514 5.67998C51.1848 5.21331 53.2848 5.63331 55.1514 6.93998C57.1114 8.33998 58.2781 10.2066 58.6514 12.54C59.1181 14.78 58.6514 16.88 57.2514 18.84C57.2514 18.9333 56.5981 19.7733 55.2914 21.36C53.9848 22.9466 52.5381 24.6733 50.9514 26.54C49.3648 28.4066 47.9181 30.18 46.6114 31.86C45.3048 33.4466 44.5581 34.3333 44.3714 34.52C43.7181 35.1733 43.3914 35.92 43.3914 36.76C43.3914 37.6 43.6714 38.3933 44.2314 39.14C44.4181 39.3266 44.9314 40.0266 45.7714 41.24C46.7048 42.36 47.7314 43.7133 48.8514 45.3C50.0648 46.8866 51.3248 48.6133 52.6314 50.48C54.0314 52.2533 55.2914 53.9333 56.4114 55.52C57.5314 57.0133 58.4648 58.2733 59.2114 59.3C59.9581 60.3267 60.3781 60.84 60.4714 60.84Z" stroke="black" stroke-width="8" mask="url(#path-1-outside-1_460_35)"/>
<path d="M100.303 11.42C103.663 13.66 105.996 16.3666 107.303 19.54C108.609 22.62 109.683 25.6066 110.523 28.5C111.736 32.14 112.343 36.1066 112.343 40.4C112.343 46.3733 111.409 51.8333 109.543 56.78C107.676 61.7267 105.016 65.8333 101.563 69.1C96.9892 73.3933 91.7625 75.54 85.8825 75.54C85.1358 75.54 84.6225 75.4933 84.3425 75.4C77.8092 74.9333 72.4892 72.18 68.3825 67.14C65.1158 63.0333 62.8759 57.8066 61.6625 51.46C60.5425 45.02 60.5425 37.74 61.6625 29.62C61.8492 28.1266 62.3625 26.82 63.2025 25.7C64.1359 24.58 65.2558 23.6933 66.5625 23.04C67.7758 22.48 68.5225 21.5 68.8025 20.1C68.8958 19.6333 68.9892 19.2133 69.0825 18.84C69.1758 18.3733 69.3158 17.9066 69.5025 17.44C70.5292 14.2666 72.3959 11.56 75.1025 9.31998C77.8092 7.07998 80.7492 5.77331 83.9225 5.39998C86.7225 5.11998 89.5225 5.49331 92.3225 6.51998C95.2159 7.54665 97.8759 9.17998 100.303 11.42ZM95.8225 39.56C97.8759 38.2533 99.3692 36.8533 100.303 35.36C100.863 34.6133 101.329 33.9133 101.703 33.26C100.769 34.0066 99.3692 34.7533 97.5025 35.5C95.6358 36.2466 93.6759 36.9 91.6225 37.46C89.5692 37.9267 87.6092 38.3 85.7425 38.58C83.9692 38.86 82.6625 38.9067 81.8225 38.72C80.7959 38.5333 79.8625 38.7667 79.0225 39.42C78.2759 39.98 77.9025 40.7733 77.9025 41.8C77.9958 45.5333 78.3692 48.6133 79.0225 51.04C79.7692 53.3733 80.6092 55.1466 81.5425 56.36C82.5692 57.6666 83.8292 58.3666 85.3225 58.46C85.8825 58.46 86.5359 58.4133 87.2825 58.32C88.1225 58.1333 89.0092 57.5733 89.9425 56.64C91.5292 55.1467 92.7892 52.9533 93.7225 50.06C94.7492 47.0733 95.2625 43.8533 95.2625 40.4C95.2625 40.0266 95.4492 39.7466 95.8225 39.56Z" stroke="black" stroke-width="8" mask="url(#path-1-outside-1_460_35)"/>
<path d="M171.698 60.42C173.285 62.1933 173.985 64.2467 173.798 66.58C173.611 68.9133 172.631 70.8733 170.858 72.46C169.271 73.7666 167.405 74.42 165.258 74.42C162.645 74.42 160.498 73.44 158.818 71.48C158.818 71.48 158.491 71.1533 157.838 70.5C157.185 69.7533 156.298 68.82 155.178 67.7C154.151 66.4866 152.891 65.1333 151.398 63.64C149.998 62.0533 148.458 60.4666 146.778 58.88C146.591 58.6933 145.985 58.1333 144.958 57.2C143.931 56.1733 142.765 55.1466 141.458 54.12C140.058 52.8133 138.471 51.3666 136.698 49.78C137.631 50.9933 138.471 52.1133 139.218 53.14C139.965 54.1666 140.665 55.1933 141.318 56.22C142.625 58.0866 143.278 60.14 143.278 62.38V66.86C143.278 69.2867 142.391 71.34 140.618 73.02C138.938 74.7 136.885 75.4933 134.458 75.4C132.125 75.2133 130.165 74.28 128.578 72.6C126.991 70.92 126.198 68.9133 126.198 66.58V55.38C125.265 54.9133 124.565 54.4467 124.098 53.98C122.418 52.7667 121.111 51.32 120.178 49.64C119.338 47.8666 118.825 45.9533 118.638 43.9C118.545 41.7533 118.871 39.7 119.618 37.74C120.365 35.78 121.438 34.1467 122.838 32.84C123.771 31.9066 124.891 31.16 126.198 30.6V15.2C126.198 12.7733 126.991 10.7666 128.578 9.17998C130.258 7.49998 132.311 6.65998 134.738 6.65998H135.578C136.138 6.65998 137.678 6.65998 140.198 6.65998C142.811 6.65998 145.798 6.93998 149.158 7.49998C152.518 7.96665 155.971 8.89998 159.518 10.3C163.065 11.7 166.051 13.8 168.478 16.6C172.865 21.7333 174.498 27.9866 173.378 35.36C172.538 40.68 169.598 45.3 164.558 49.22C164.091 49.5933 163.811 50.1067 163.718 50.76C163.625 51.32 163.811 51.8333 164.278 52.3C166.425 54.54 168.151 56.4066 169.458 57.9C170.858 59.3933 171.605 60.2333 171.698 60.42ZM156.578 32.56C156.765 31.2533 156.718 30.2733 156.438 29.62C156.251 28.8733 155.971 28.2666 155.598 27.8C154.758 26.7733 153.498 25.98 151.818 25.42C150.138 24.86 148.318 24.4866 146.358 24.3C145.518 24.1133 144.771 24.3 144.118 24.86C143.558 25.42 143.278 26.12 143.278 26.96V31.72C143.278 33.0266 143.745 34.2866 144.678 35.5C145.705 36.7133 146.871 37.4133 148.178 37.6C149.578 37.7866 150.511 37.74 150.978 37.46C151.725 37.18 152.331 36.8533 152.798 36.48C153.451 36.1066 154.198 35.5933 155.038 34.94C155.878 34.1933 156.391 33.4 156.578 32.56Z" stroke="black" stroke-width="8" mask="url(#path-1-outside-1_460_35)"/>
<path d="M281.76 7.35998C284.093 7.35998 286.1 8.19998 287.78 9.87998C289.46 11.4666 290.3 13.4266 290.3 15.76C290.3 18.1866 289.46 20.24 287.78 21.92C286.193 23.5066 284.187 24.3 281.76 24.3C278.213 24.3933 274.387 24.6733 270.28 25.14C266.267 25.5133 262.16 26.0733 257.96 26.82C256.653 27.0066 255.113 27.24 253.34 27.52C251.567 27.8 249.607 28.1266 247.46 28.5C247.927 28.6866 248.58 28.8266 249.42 28.92C250.447 29.1066 252.453 29.2933 255.44 29.48C256.187 29.48 256.793 29.7133 257.26 30.18C257.82 30.6466 258.1 31.2533 258.1 32C258.1 32.9333 258.053 33.9133 257.96 34.94C257.96 35.9666 257.96 36.9933 257.96 38.02C257.96 39.0466 258.333 39.98 259.08 40.82C259.827 41.5666 260.713 41.94 261.74 41.94H271.68C274.107 41.94 276.16 42.8266 277.84 44.6C279.52 46.28 280.313 48.3333 280.22 50.76C280.127 53.0933 279.24 55.0533 277.56 56.64C275.88 58.1333 273.873 58.88 271.54 58.88H260.06C259.127 58.88 258.287 59.2066 257.54 59.86C256.887 60.5133 256.513 61.3533 256.42 62.38C256.233 64.2467 256.047 65.74 255.86 66.86C255.767 67.98 255.72 68.5867 255.72 68.68C255.44 70.8267 254.46 72.6 252.78 74C251.193 75.4933 249.327 76.24 247.18 76.24H246.2C243.867 75.96 241.953 74.9333 240.46 73.16C239.06 71.2933 238.5 69.1467 238.78 66.72C238.78 66.72 238.827 66.1133 238.92 64.9C239.107 63.5933 239.293 61.9133 239.48 59.86C239.667 57.8066 239.853 55.4267 240.04 52.72C240.32 50.0133 240.507 47.2133 240.6 44.32C240.88 39.84 241.02 36.06 241.02 32.98C241.02 32.2333 240.693 31.58 240.04 31.02C239.387 30.46 238.687 30.2733 237.94 30.46L235.84 30.88C233.787 31.2533 231.827 31.6733 229.96 32.14C229.213 32.2333 228.653 32.56 228.28 33.12C227.907 33.5866 227.767 34.1933 227.86 34.94C228.14 36.7133 228.28 38.5333 228.28 40.4C228.28 46.3733 227.347 51.8333 225.48 56.78C223.613 61.7267 220.953 65.8333 217.5 69.1C212.927 73.3933 207.7 75.54 201.82 75.54C201.073 75.54 200.56 75.4933 200.28 75.4C193.747 74.9333 188.427 72.18 184.32 67.14C181.053 63.0333 178.813 57.8066 177.6 51.46C176.48 45.02 176.48 37.74 177.6 29.62C178.067 26.54 179.653 24.3933 182.36 23.18C183.107 22.8066 183.667 22.2933 184.04 21.64C184.507 20.8933 184.693 20.1466 184.6 19.4C184.6 17.8133 184.927 16.1333 185.58 14.36C186.793 11.0933 188.94 8.61998 192.02 6.93998C195.193 5.25998 198.647 4.79332 202.38 5.53998C205.553 6.09998 208.68 7.35998 211.76 9.31998C214.84 11.1866 217.593 13.6133 220.02 16.6C221.98 16.2266 223.987 15.8533 226.04 15.48C228.187 15.1066 230.333 14.6866 232.48 14.22L238.78 12.96C238.967 11.6533 239.433 10.44 240.18 9.31998C240.927 8.10665 241.953 7.17331 243.26 6.51998C245.407 5.39998 247.553 5.21331 249.7 5.95998C251.94 6.61331 253.62 7.96665 254.74 10.02C259.407 9.27331 263.98 8.66665 268.46 8.19998C273.033 7.63998 277.42 7.35998 281.62 7.35998H281.76ZM212.88 37.74C214.84 37.18 216.38 36.6666 217.5 36.2C218.713 35.7333 219.693 35.2667 220.44 34.8C221.187 34.3333 221.747 33.9133 222.12 33.54C220.907 33.82 219.6 34.0533 218.2 34.24C216.893 34.4266 215.68 34.6133 214.56 34.8C213.253 34.9866 211.947 35.1733 210.64 35.36C207.653 35.64 205.04 35.78 202.8 35.78C200.653 35.6866 198.693 35.4066 196.92 34.94C196.173 34.7533 195.52 34.8466 194.96 35.22C194.4 35.5933 194.073 36.1533 193.98 36.9C193.607 42.0333 193.793 46.2333 194.54 49.5C195.38 52.6733 196.36 54.96 197.48 56.36C198.507 57.6666 199.767 58.3666 201.26 58.46C201.82 58.46 202.473 58.4133 203.22 58.32C204.06 58.1333 204.947 57.5733 205.88 56.64C207.467 55.1467 208.727 52.9533 209.66 50.06C210.687 47.0733 211.2 43.8533 211.2 40.4V40.12C211.2 39 211.76 38.2066 212.88 37.74Z" stroke="black" stroke-width="8" mask="url(#path-1-outside-1_460_35)"/>
<path d="M339.494 50.76C339.96 54.96 340.38 58.46 340.754 61.26C341.127 64.06 341.36 65.5066 341.454 65.6C341.827 67.9333 341.314 70.0333 339.914 71.9C338.514 73.7667 336.647 74.8867 334.314 75.26C334.034 75.3533 333.567 75.4 332.914 75.4C331.327 75.4 329.834 74.98 328.434 74.14C327.127 73.3 326.1 72.18 325.354 70.78C324.98 70.1266 324.56 70.0333 324.094 70.5C322.414 71.8066 320.734 72.74 319.054 73.3C317.467 73.86 315.927 74.1867 314.434 74.28C312.94 74.4667 311.54 74.42 310.234 74.14C309.02 73.9533 307.947 73.6733 307.014 73.3C301.04 71.2466 296.84 66.1133 294.414 57.9C293.667 55.4733 293.107 52.6733 292.734 49.5C292.36 46.3266 292.127 42.8733 292.034 39.14C292.034 36.1533 292.08 33.26 292.174 30.46C292.36 27.66 292.547 25.1866 292.734 23.04C293.014 20.8 293.247 19.0266 293.434 17.72C293.62 16.32 293.714 15.5733 293.714 15.48C294.087 13.1466 295.207 11.28 297.074 9.87998C298.94 8.47998 301.04 7.96665 303.374 8.33998C305.8 8.71331 307.667 9.83331 308.974 11.7C310.374 13.5666 310.887 15.6666 310.514 18C310.514 18.0933 310.42 18.7 310.234 19.82C310.14 20.94 310 22.4333 309.814 24.3C309.627 26.1666 309.44 28.3133 309.254 30.74C309.16 33.0733 309.114 35.5 309.114 38.02C309.114 42.1267 309.207 45.44 309.394 47.96C309.58 50.48 309.814 52.44 310.094 53.84C310.467 55.1466 310.84 56.08 311.214 56.64C311.68 57.1067 312.194 57.34 312.754 57.34C313.594 57.34 314.434 56.8267 315.274 55.8C316.207 54.7733 317.047 53.6067 317.794 52.3C318.634 50.9933 319.334 49.7333 319.894 48.52C320.547 47.2133 320.967 46.3266 321.154 45.86C321.62 45.02 321.76 44.1333 321.574 43.2C321.2 37.6 321.014 32.9333 321.014 29.2C321.107 25.3733 321.34 22.2466 321.714 19.82C322.18 17.3933 322.74 15.48 323.394 14.08C324.14 12.68 324.887 11.5133 325.634 10.58C327.78 7.96665 330.534 6.65998 333.894 6.65998H334.034C337.58 6.65998 340.38 8.19998 342.434 11.28C343.74 13.1466 344.534 15.4333 344.814 18.14C345.187 20.7533 345.234 23.5066 344.954 26.4C344.674 29.2 344.207 32 343.554 34.8C342.9 37.5066 342.154 39.8866 341.314 41.94L341.174 42.22C340.987 42.5933 340.66 42.78 340.194 42.78C339.82 42.78 339.54 42.5933 339.354 42.22C338.98 41.2866 338.607 40.4 338.234 39.56C337.86 38.72 337.487 37.9266 337.114 37.18C336.834 36.2466 336.507 35.4066 336.134 34.66C336.507 36.1533 336.88 37.74 337.254 39.42C337.627 41.0066 337.954 42.5466 338.234 44.04C338.514 45.5333 338.747 46.8867 338.934 48.1C339.214 49.22 339.4 50.1067 339.494 50.76Z" stroke="black" stroke-width="8" mask="url(#path-1-outside-1_460_35)"/>
</g>
<defs>
<filter id="filter0_d_460_35" x="0.673645" y="0.552612" width="355.46" height="83.6874" filterUnits="userSpaceOnUse" color-interpolation-filters="sRGB">
<feFlood flood-opacity="0" result="BackgroundImageFix"/>
<feColorMatrix in="SourceAlpha" type="matrix" values="0 0 0 0 0 0 0 0 0 0 0 0 0 0 0 0 0 0 127 0" result="hardAlpha"/>
<feOffset dx="7" dy="4"/>
<feComposite in2="hardAlpha" operator="out"/>
<feColorMatrix type="matrix" values="0 0 0 0 0 0 0 0 0 0 0 0 0 0 0 0 0 0 1 0"/>
<feBlend mode="normal" in2="BackgroundImageFix" result="effect1_dropShadow_460_35"/>
<feBlend mode="normal" in="SourceGraphic" in2="effect1_dropShadow_460_35" result="shape"/>
</filter>
</defs>
</svg>
