<svg width="259" height="249" viewBox="0 0 259 249" fill="none" xmlns="http://www.w3.org/2000/svg">
<path d="M166.402 139.189C166.398 139.194 166.394 139.198 166.391 139.203L166.39 139.204C166.387 139.208 166.384 139.212 166.381 139.215L166.38 139.216C166.379 139.217 166.377 139.219 166.375 139.222V139.223C166.374 139.224 166.372 139.225 166.371 139.227L166.37 139.229L166.364 139.235C166.363 139.237 166.361 139.24 166.359 139.241C166.355 139.247 166.352 139.25 166.351 139.252C166.288 139.328 166.162 139.477 165.975 139.69C165.602 140.116 164.991 140.787 164.154 141.622C162.473 143.301 159.935 145.59 156.643 147.882C150.021 152.49 140.804 156.809 129.5 156.809C118.196 156.809 108.978 152.49 102.357 147.882C99.0648 145.59 96.5273 143.301 94.8457 141.622C94.0095 140.787 93.3984 140.116 93.0254 139.69C92.8381 139.477 92.711 139.328 92.6484 139.252L92.6113 139.206C92.6086 139.203 92.6053 139.2 92.6025 139.196C88.5452 134.08 81.1605 133.123 75.9365 136.995L75.6885 137.184C70.4445 141.28 69.5092 148.841 73.5908 154.088C73.5925 154.09 73.5941 154.093 73.5957 154.095L73.626 154.133C73.6283 154.136 73.631 154.139 73.6338 154.143C73.6443 154.156 73.6526 154.167 73.6582 154.174C73.6597 154.176 73.6609 154.177 73.6621 154.179C73.6668 154.185 73.6727 154.192 73.6787 154.199L73.7666 154.309V154.31C73.834 154.393 73.9189 154.497 74.0205 154.62C74.225 154.867 74.5014 155.194 74.8477 155.589C75.5387 156.377 76.513 157.441 77.7598 158.686C80.244 161.166 83.8648 164.424 88.541 167.679C97.8579 174.163 111.824 180.939 129.5 180.939C147.176 180.939 161.142 174.163 170.459 167.679C175.135 164.424 178.756 161.166 181.24 158.686C182.487 157.441 183.461 156.377 184.152 155.589C184.499 155.194 184.775 154.867 184.979 154.62L185.233 154.31V154.309C185.267 154.267 185.297 154.23 185.321 154.199L185.348 154.166C185.349 154.164 185.35 154.163 185.351 154.162L185.335 154.182C185.333 154.184 185.331 154.187 185.33 154.188C185.33 154.187 185.331 154.185 185.333 154.183C185.335 154.181 185.338 154.178 185.341 154.174C185.347 154.166 185.357 154.154 185.369 154.139H185.37C185.375 154.132 185.38 154.126 185.383 154.122C185.386 154.118 185.388 154.114 185.391 154.111C185.392 154.11 185.393 154.109 185.394 154.107C189.429 148.941 188.59 141.522 183.555 137.379L183.312 137.184C178.089 133.104 170.556 133.994 166.428 139.158M166.402 139.189C166.405 139.186 166.408 139.182 166.411 139.179C166.417 139.172 166.421 139.166 166.425 139.162L166.428 139.158M166.402 139.189C166.411 139.179 166.419 139.169 166.428 139.158M166.402 139.189C166.4 139.192 166.398 139.194 166.396 139.196C166.402 139.189 166.407 139.183 166.41 139.179C166.414 139.174 166.417 139.171 166.419 139.168C166.423 139.164 166.426 139.161 166.427 139.159L166.428 139.158M129.5 1.5C199.701 1.5 257.5 56.0885 257.5 124.5C257.5 192.911 199.701 247.5 129.5 247.5C59.299 247.5 1.5 192.911 1.5 124.5C1.5 56.0885 59.299 1.5 129.5 1.5ZM129.5 25.6309C71.6647 25.6309 25.6631 70.373 25.6631 124.5L25.6719 125.767C26.3828 179.323 72.1164 223.369 129.5 223.369C187.335 223.369 233.337 178.627 233.337 124.5C233.337 70.373 187.335 25.6309 129.5 25.6309ZM166.328 139.285C166.318 139.299 166.31 139.312 166.303 139.322C166.309 139.313 166.315 139.303 166.323 139.292C166.328 139.285 166.334 139.277 166.34 139.269C166.336 139.274 166.332 139.28 166.328 139.285ZM92.6641 139.274C92.6715 139.284 92.678 139.294 92.6836 139.302C92.6848 139.303 92.6863 139.305 92.6875 139.307C92.6829 139.3 92.6778 139.292 92.6719 139.284C92.6679 139.279 92.6631 139.273 92.6582 139.267C92.6602 139.269 92.6622 139.272 92.6641 139.274ZM92.6562 139.264C92.6587 139.267 92.6608 139.27 92.6621 139.271L92.6631 139.272V139.271C92.6619 139.27 92.6595 139.268 92.6572 139.265C92.6552 139.262 92.6525 139.258 92.6494 139.254C92.6523 139.258 92.6543 139.261 92.6562 139.264ZM94.8408 79.1543C101.511 79.1545 106.922 84.5536 106.923 91.2188C106.923 97.8843 101.511 103.284 94.8408 103.284H94.7236C88.0538 103.284 82.6426 97.8842 82.6426 91.2188C82.643 84.5538 88.054 79.1548 94.7236 79.1543H94.8408ZM164.392 79.1543C171.062 79.1544 176.472 84.5536 176.473 91.2188H176.474C176.474 97.8843 171.062 103.284 164.392 103.284H164.275C157.605 103.284 152.194 97.8842 152.194 91.2188C152.195 84.5537 157.605 79.1545 164.275 79.1543H164.392Z" fill="#91A8EC" stroke="black" stroke-width="3" stroke-linecap="round" stroke-linejoin="round"/>
</svg>
