<svg width="674" height="332" viewBox="0 0 674 332" fill="none" xmlns="http://www.w3.org/2000/svg">
<g filter="url(#filter0_d_1648_4839)">
<path d="M381.723 202.587V189.513H233.553V139.267H381.723V58.705H233.553V8.45825H431.627V202.587H381.723Z" fill="#FF6D4D"/>
<path d="M205.5 323.568V216.553H462.489V320.922H403.137V315.072H264.837V323.583L205.5 323.568ZM403.137 279.273V252.337H264.837V279.273H403.137Z" fill="#FF6D4D"/>
<path d="M470.424 219.682L487.777 214.417C561.541 191.999 601.328 143.815 608.84 67.3476H459.36V10.14H623.005L642.789 4.58301L662.5 27.9808L662.354 33.8303C659.545 156.552 609.306 236.104 513.049 270.455L504.111 273.643L470.424 219.682Z" fill="#FF6D4D"/>
<path d="M153.936 270.455C57.6798 236.104 7.45524 156.552 4.63102 33.8447L4.5 27.9953L24.1968 4.59749L43.9809 10.1545H207.626V67.3767H58.1456C65.7157 143.829 105.444 192.014 179.209 214.432L196.562 219.696L162.875 273.658L153.936 270.455Z" fill="#FF6D4D"/>
<path d="M464.489 214.553V322.922H401.137V317.072H266.838V325.584L264.837 325.583L205.499 325.568H203.5V214.553H464.489ZM266.838 277.273H401.137V254.337H266.838V277.273ZM24.7373 2.67188L44.2568 8.1543H209.626V69.377H60.3643C64.3488 106.29 75.9863 136.324 95.3984 159.896C115.195 183.933 143.197 201.397 179.788 212.518H179.789L197.143 217.782L199.641 218.541L198.258 220.756L164.571 274.717L163.718 276.084L162.2 275.54L153.264 272.338C104.755 255.026 67.7576 226.284 42.5557 186.351C17.3702 146.443 4.04977 95.4971 2.63184 33.8906V33.8896L2.50098 28.04L2.4834 27.2852L2.96973 26.707L22.667 3.30957L23.4971 2.32324L24.7373 2.67188ZM644.318 3.29395L664.029 26.6924L664.519 27.2725L664.499 28.0303L664.354 33.8799C662.942 95.4919 649.622 146.44 624.436 186.349C599.232 226.284 562.231 255.027 513.722 272.339H513.721L504.782 275.527L503.267 276.067L502.414 274.702L468.728 220.741L467.345 218.526L469.843 217.768L487.195 212.504L488.904 211.978C524.661 200.835 552.115 183.543 571.609 159.879C591.029 136.306 602.666 106.267 606.623 69.3477H457.36V8.13965H622.731L642.248 2.65723L643.488 2.30957L644.318 3.29395ZM433.627 6.45801V204.587H379.723V191.514H231.553V137.267H379.723V60.7051H231.553V6.45801H433.627Z" stroke="black" stroke-width="4"/>
</g>
<defs>
<filter id="filter0_d_1648_4839" x="0.466797" y="0.0351562" width="673.069" height="331.549" filterUnits="userSpaceOnUse" color-interpolation-filters="sRGB">
<feFlood flood-opacity="0" result="BackgroundImageFix"/>
<feColorMatrix in="SourceAlpha" type="matrix" values="0 0 0 0 0 0 0 0 0 0 0 0 0 0 0 0 0 0 127 0" result="hardAlpha"/>
<feOffset dx="7" dy="4"/>
<feComposite in2="hardAlpha" operator="out"/>
<feColorMatrix type="matrix" values="0 0 0 0 0 0 0 0 0 0 0 0 0 0 0 0 0 0 1 0"/>
<feBlend mode="normal" in2="BackgroundImageFix" result="effect1_dropShadow_1648_4839"/>
<feBlend mode="normal" in="SourceGraphic" in2="effect1_dropShadow_1648_4839" result="shape"/>
</filter>
</defs>
</svg>
