<svg width="181" height="268" viewBox="0 0 181 268" fill="none" xmlns="http://www.w3.org/2000/svg">
<mask id="path-1-outside-1_1124_4403" maskUnits="userSpaceOnUse" x="-0.148438" y="0" width="181" height="267" fill="black">
<rect fill="white" x="-0.148438" width="181" height="267"/>
<path d="M176.385 239.244H176.116C176.795 240.32 177.148 241.422 177.148 242.544C177.148 254.321 138.354 263.867 90.5 263.867C42.6459 263.867 3.85206 254.321 3.85156 242.544C3.85156 241.422 4.20484 240.32 4.88379 239.244H4.61523L90.5 9L176.385 239.244Z"/>
</mask>
<path d="M176.385 239.244H176.116C176.795 240.32 177.148 241.422 177.148 242.544C177.148 254.321 138.354 263.867 90.5 263.867C42.6459 263.867 3.85206 254.321 3.85156 242.544C3.85156 241.422 4.20484 240.32 4.88379 239.244H4.61523L90.5 9L176.385 239.244Z" fill="#FFF5CC"/>
<path d="M176.385 239.244V242.244H180.706L179.196 238.196L176.385 239.244ZM176.116 239.244V236.244H170.675L173.579 240.846L176.116 239.244ZM177.148 242.544L180.148 242.544V242.544H177.148ZM90.5 263.867V266.867V263.867ZM3.85156 242.544H0.851562V242.544L3.85156 242.544ZM4.88379 239.244L7.42059 240.846L10.3254 236.244H4.88379V239.244ZM4.61523 239.244L1.80442 238.196L0.29427 242.244H4.61523V239.244ZM90.5 9L93.3108 7.95152L90.5 0.416143L87.6892 7.95152L90.5 9ZM176.385 239.244V236.244H176.116V239.244V242.244H176.385V239.244ZM176.116 239.244L173.579 240.846C174.01 241.527 174.148 242.082 174.148 242.544H177.148H180.148C180.148 240.761 179.58 239.112 178.653 237.643L176.116 239.244ZM177.148 242.544L174.148 242.544C174.148 243.749 173.075 245.781 168.83 248.251C164.8 250.596 158.768 252.81 151.052 254.709C135.668 258.495 114.258 260.867 90.5 260.867V263.867V266.867C114.596 266.867 136.51 264.467 152.486 260.535C160.451 258.575 167.109 256.194 171.848 253.437C176.372 250.805 180.148 247.227 180.148 242.544L177.148 242.544ZM90.5 263.867V260.867C66.7416 260.867 45.3316 258.495 29.9476 254.709C22.2322 252.81 16.2004 250.596 12.1698 248.251C7.92472 245.781 6.85161 243.749 6.85156 242.544L3.85156 242.544L0.851562 242.544C0.851761 247.227 4.62807 250.805 9.15244 253.437C13.8913 256.194 20.5489 258.575 28.5138 260.535C44.4903 264.467 66.4044 266.867 90.5 266.867V263.867ZM3.85156 242.544H6.85156C6.85156 242.082 6.99015 241.527 7.42059 240.846L4.88379 239.244L2.34698 237.643C1.41953 239.112 0.851562 240.761 0.851562 242.544H3.85156ZM4.88379 239.244V236.244H4.61523V239.244V242.244H4.88379V239.244ZM4.61523 239.244L7.42605 240.293L93.3108 10.0485L90.5 9L87.6892 7.95152L1.80442 238.196L4.61523 239.244ZM90.5 9L87.6892 10.0485L173.574 240.293L176.385 239.244L179.196 238.196L93.3108 7.95152L90.5 9Z" fill="black" mask="url(#path-1-outside-1_1124_4403)"/>
<mask id="path-3-outside-2_1124_4403" maskUnits="userSpaceOnUse" x="-0.148438" y="216.557" width="181" height="51" fill="black">
<rect fill="white" x="-0.148438" y="216.557" width="181" height="51"/>
<path d="M176.385 239.399H176.115C176.794 240.475 177.147 241.578 177.147 242.7C177.146 254.477 138.353 264.023 90.5 264.023C42.6465 264.023 3.85297 254.477 3.85156 242.7C3.85156 241.578 4.20458 240.475 4.88379 239.399H4.61426L11.2695 221.557C24.7465 229.026 55.1502 234.238 90.499 234.238C125.848 234.238 156.251 229.026 169.729 221.557L176.385 239.399Z"/>
</mask>
<path d="M176.385 239.399H176.115C176.794 240.475 177.147 241.578 177.147 242.7C177.146 254.477 138.353 264.023 90.5 264.023C42.6465 264.023 3.85297 254.477 3.85156 242.7C3.85156 241.578 4.20458 240.475 4.88379 239.399H4.61426L11.2695 221.557C24.7465 229.026 55.1502 234.238 90.499 234.238C125.848 234.238 156.251 229.026 169.729 221.557L176.385 239.399Z" fill="#FFE262"/>
<path d="M176.385 239.399V242.399H180.706L179.196 238.351L176.385 239.399ZM176.115 239.399V236.399H170.673L173.579 241.001L176.115 239.399ZM177.147 242.7L180.147 242.701V242.7H177.147ZM90.5 264.023V267.023H90.5L90.5 264.023ZM3.85156 242.7H0.851562V242.701L3.85156 242.7ZM4.88379 239.399L7.42045 241.001L10.326 236.399H4.88379V239.399ZM4.61426 239.399L1.80342 238.351L0.293377 242.399H4.61426V239.399ZM11.2695 221.557L12.7238 218.933L9.67634 217.244L8.4587 220.508L11.2695 221.557ZM90.499 234.238V237.238V234.238ZM169.729 221.557L172.539 220.508L171.322 217.244L168.274 218.933L169.729 221.557ZM176.385 239.399V236.399H176.115V239.399V242.399H176.385V239.399ZM176.115 239.399L173.579 241.001C174.009 241.682 174.147 242.237 174.147 242.7H177.147H180.147C180.147 240.918 179.58 239.268 178.652 237.798L176.115 239.399ZM177.147 242.7L174.147 242.7C174.147 243.905 173.074 245.937 168.829 248.407C164.798 250.752 158.767 252.966 151.051 254.865C135.667 258.651 114.258 261.023 90.5 261.023L90.5 264.023L90.5 267.023C114.595 267.023 136.509 264.623 152.485 260.691C160.45 258.731 167.107 256.35 171.846 253.593C176.371 250.961 180.147 247.383 180.147 242.701L177.147 242.7ZM90.5 264.023V261.023C66.7418 261.023 45.3321 258.651 29.9481 254.865C22.2328 252.966 16.2009 250.752 12.1702 248.407C7.92505 245.937 6.85171 243.905 6.85156 242.7L3.85156 242.7L0.851562 242.701C0.852121 247.383 4.62849 250.961 9.15293 253.593C13.8918 256.35 20.5494 258.731 28.5143 260.691C44.4908 264.623 66.4046 267.023 90.5 267.023V264.023ZM3.85156 242.7H6.85156C6.85156 242.237 6.9903 241.682 7.42045 241.001L4.88379 239.399L2.34713 237.798C1.41885 239.268 0.851562 240.918 0.851562 242.7H3.85156ZM4.88379 239.399V236.399H4.61426V239.399V242.399H4.88379V239.399ZM4.61426 239.399L7.42509 240.448L14.0804 222.605L11.2695 221.557L8.4587 220.508L1.80342 238.351L4.61426 239.399ZM11.2695 221.557L9.81526 224.181C17.0107 228.168 28.3897 231.405 42.1991 233.659C56.0847 235.926 72.6863 237.238 90.499 237.238V234.238V231.238C72.963 231.238 56.6883 229.945 43.1656 227.738C29.5667 225.518 19.0054 222.414 12.7238 218.933L11.2695 221.557ZM90.499 234.238V237.238C108.312 237.238 124.913 235.926 138.799 233.659C152.608 231.405 163.987 228.168 171.183 224.181L169.729 221.557L168.274 218.933C161.993 222.414 151.431 225.518 137.832 227.738C124.31 229.945 108.035 231.238 90.499 231.238V234.238ZM169.729 221.557L166.918 222.605L173.574 240.448L176.385 239.399L179.196 238.351L172.539 220.508L169.729 221.557Z" fill="black" mask="url(#path-3-outside-2_1124_4403)"/>
<circle cx="124.007" cy="167.403" r="18.085" fill="#FF914D" stroke="black" stroke-width="3"/>
<circle cx="100.652" cy="207.343" r="18.085" fill="#FF594D" stroke="black" stroke-width="3"/>
<circle cx="55.6367" cy="187.712" r="18.085" fill="#FF914D" stroke="black" stroke-width="3"/>
<circle cx="90.8369" cy="74.3242" r="18.085" fill="#FF914D" stroke="black" stroke-width="3"/>
<circle cx="84.0684" cy="125.433" r="18.085" fill="#FF594D" stroke="black" stroke-width="3"/>
</svg>
