<svg width="2047" height="3861" viewBox="0 0 2047 3861" fill="none" xmlns="http://www.w3.org/2000/svg">
<g filter="url(#filter0_d_1664_4950)">
<circle cx="1878.5" cy="285.499" r="77.5" fill="#FF91E8"/>
<circle cx="1878.5" cy="285.499" r="75.5" stroke="black" stroke-width="4"/>
</g>
<g filter="url(#filter1_d_1664_4950)">
<path d="M155.794 1213.56C157.59 1208.03 165.41 1208.03 167.206 1213.56L182.268 1259.91C183.071 1262.39 185.375 1264.06 187.974 1264.06H236.713C242.525 1264.06 244.942 1271.5 240.24 1274.91L200.809 1303.56C198.706 1305.09 197.826 1307.8 198.629 1310.27L213.691 1356.62C215.487 1362.15 209.16 1366.75 204.457 1363.33L165.027 1334.68C162.924 1333.16 160.076 1333.16 157.973 1334.68L118.543 1363.33C113.84 1366.75 107.513 1362.15 109.309 1356.62L124.371 1310.27C125.174 1307.8 124.294 1305.09 122.191 1303.56L82.7603 1274.91C78.058 1271.5 80.4747 1264.06 86.287 1264.06H135.026C137.625 1264.06 139.929 1262.39 140.732 1259.91L155.794 1213.56Z" fill="#FFF5CC"/>
<path d="M157.695 1214.18C158.893 1210.49 164.107 1210.49 165.305 1214.18L180.365 1260.53C181.436 1263.83 184.508 1266.06 187.974 1266.06H236.713C240.588 1266.06 242.199 1271.02 239.064 1273.3L199.634 1301.94C196.83 1303.98 195.657 1307.59 196.728 1310.89L211.788 1357.24C212.985 1360.93 208.768 1363.99 205.633 1361.71L166.202 1333.07C163.398 1331.03 159.602 1331.03 156.798 1333.07L117.367 1361.71C114.232 1363.99 110.015 1360.93 111.212 1357.24L126.272 1310.89C127.343 1307.59 126.17 1303.98 123.366 1301.94L83.9355 1273.3C80.801 1271.02 82.4123 1266.06 86.2871 1266.06H135.026C138.492 1266.06 141.564 1263.83 142.635 1260.53L157.695 1214.18Z" stroke="black" stroke-width="4"/>
</g>
<path d="M1890.08 1084C1961.4 1084 2019.41 1140.92 2021.17 1211.81H1759C1760.76 1140.92 1818.77 1084 1890.08 1084Z" fill="#4FD3C6"/>
<mask id="path-6-outside-1_1664_4950" maskUnits="userSpaceOnUse" x="1774.83" y="1101.37" width="272" height="136" fill="black">
<rect fill="white" x="1774.83" y="1101.37" width="272" height="136"/>
<path d="M1910.91 1105.37C1982.23 1105.37 2040.24 1162.29 2042 1233.18H1779.83C1781.59 1162.29 1839.6 1105.37 1910.91 1105.37Z"/>
</mask>
<path d="M1910.91 1105.37L1910.91 1101.37H1910.91V1105.37ZM2042 1233.18V1237.18H2046.1L2046 1233.08L2042 1233.18ZM1779.83 1233.18L1775.83 1233.08L1775.73 1237.18H1779.83V1233.18ZM1910.91 1105.37L1910.91 1109.37C1980.05 1109.37 2036.3 1164.56 2038 1233.28L2042 1233.18L2046 1233.08C2044.19 1160.03 1984.4 1101.37 1910.91 1101.37L1910.91 1105.37ZM2042 1233.18V1229.18H1779.83V1233.18V1237.18H2042V1233.18ZM1779.83 1233.18L1783.83 1233.28C1785.53 1164.56 1841.78 1109.37 1910.91 1109.37V1105.37V1101.37C1837.43 1101.37 1777.64 1160.03 1775.83 1233.08L1779.83 1233.18Z" fill="black" mask="url(#path-6-outside-1_1664_4950)"/>
<path d="M296.646 104.323L140.161 194.669L140.161 13.9766L296.646 104.323Z" fill="#FFE262"/>
<path d="M331.646 106.055L175.161 196.401L172.161 198.134L172.161 10.5127L175.161 12.2441L331.646 102.591L334.646 104.323L331.646 106.055Z" stroke="black" stroke-width="4"/>
<g filter="url(#filter2_d_1664_4950)">
<path d="M43.2741 2852.73C43.4472 2853.11 43.6544 2853.46 43.9035 2853.79C53.8607 2866.95 73.2522 2882.78 99.7027 2887.96C126.538 2893.22 162.477 2887.89 205.543 2854.04L205.604 2853.99L205.665 2853.94C221.236 2842.01 234.201 2833.73 245.046 2828.77C255.606 2823.94 265.929 2821.43 275.294 2823.77C285.649 2826.36 291.587 2833.95 294.735 2841.88C297.716 2849.39 298.72 2858.31 299.075 2866.8C299.437 2875.46 299.15 2885.02 298.905 2894.11C298.654 2903.41 298.441 2912.34 298.831 2920.59C299.224 2928.91 300.207 2935.71 301.977 2940.87C303.713 2945.91 305.847 2948.38 307.975 2949.63C312.938 2952.56 319.311 2953.54 327.848 2952.1C336.518 2950.64 346.516 2946.83 357.636 2941.26C368.685 2935.72 380.195 2928.79 391.909 2921.52C403.446 2914.37 415.346 2906.77 426.486 2900.42C437.563 2894.12 448.817 2888.49 459.308 2885.55C469.646 2882.64 481.595 2881.69 492.005 2888.08C502.491 2894.52 507.925 2906.24 510.332 2920.37C512.56 2933.45 512.554 2950.48 510.327 2972.03C509.986 2975.33 506.998 2977.69 503.707 2977.3L490.885 2975.79C487.594 2975.4 485.247 2972.42 485.584 2969.12C487.659 2948.84 487.46 2934.45 485.776 2924.57C483.91 2913.61 480.629 2910.35 478.982 2909.34C477.258 2908.28 473.652 2907.41 466.034 2909.55C458.569 2911.65 449.466 2916.02 438.804 2922.1C428.205 2928.13 416.983 2935.3 405.035 2942.72C393.265 2950.02 380.927 2957.47 368.784 2963.56C356.712 2969.6 344.172 2974.64 331.98 2976.69C319.657 2978.77 306.845 2977.92 295.316 2971.11C286.432 2965.86 281.354 2957.51 278.422 2948.98C275.525 2940.55 274.386 2931.01 273.949 2921.77C273.508 2912.45 273.756 2902.6 274.003 2893.43C274.256 2884.06 274.505 2875.46 274.187 2867.85C273.862 2860.06 272.971 2854.58 271.585 2851.08C270.367 2848.01 269.466 2848.01 269.261 2847.96C268.065 2847.66 264.103 2847.47 255.401 2851.45C246.983 2855.3 235.707 2862.32 220.806 2873.74C173.104 2911.19 130.005 2919.31 94.914 2912.43C60.3496 2905.65 35.3418 2884.66 22.6344 2866.94L22.2769 2866.44C22.056 2866.13 21.8648 2865.8 21.7058 2865.46L2.51414 2823.91C1.12534 2820.9 2.43565 2817.34 5.44154 2815.94L17.1623 2810.52C20.1711 2809.13 23.7388 2810.44 25.129 2813.45L43.2741 2852.73Z" fill="#ADDFFF"/>
<path d="M18.002 2812.34C20.0078 2811.41 22.3866 2812.28 23.3135 2814.29L41.458 2853.57C41.6866 2854.07 41.9663 2854.55 42.3086 2855C52.5113 2868.48 72.3075 2884.63 99.3174 2889.93C126.817 2895.32 163.333 2889.75 206.773 2855.61L206.835 2855.57L206.834 2855.57L206.875 2855.54L206.881 2855.53C222.399 2843.64 235.228 2835.46 245.878 2830.59C256.289 2825.83 266.101 2823.53 274.809 2825.71C284.343 2828.09 289.88 2835.07 292.876 2842.62C295.729 2849.8 296.725 2858.45 297.077 2866.89C297.435 2875.46 297.151 2884.94 296.905 2894.05C296.654 2903.34 296.439 2912.35 296.833 2920.68C297.23 2929.07 298.225 2936.1 300.086 2941.52C301.919 2946.85 304.291 2949.78 306.958 2951.35C312.446 2954.6 319.336 2955.57 328.181 2954.08C337.133 2952.57 347.335 2948.66 358.531 2943.05C369.668 2937.47 381.245 2930.5 392.964 2923.22C404.533 2916.04 416.379 2908.48 427.476 2902.16C438.519 2895.87 449.601 2890.35 459.849 2887.47C469.971 2884.63 481.249 2883.83 490.959 2889.79C500.734 2895.79 505.995 2906.83 508.36 2920.71C510.544 2933.53 510.555 2950.35 508.337 2971.83C508.112 2974 506.141 2975.57 503.94 2975.31L491.118 2973.8C488.934 2973.55 487.345 2971.56 487.573 2969.33C489.657 2948.96 489.476 2934.37 487.748 2924.23C485.837 2913.01 482.38 2909.08 480.028 2907.64C477.612 2906.15 473.34 2905.42 465.493 2907.63C457.785 2909.79 448.508 2914.27 437.814 2920.36C427.172 2926.42 415.895 2933.62 403.98 2941.02C392.215 2948.32 379.943 2955.73 367.888 2961.77C355.893 2967.77 343.557 2972.71 331.648 2974.72C319.629 2976.74 307.334 2975.88 296.333 2969.38C287.993 2964.46 283.15 2956.58 280.313 2948.33C277.507 2940.16 276.38 2930.84 275.946 2921.67C275.51 2912.44 275.755 2902.66 276.003 2893.49C276.255 2884.13 276.507 2875.46 276.186 2867.76C275.858 2859.93 274.959 2854.16 273.444 2850.35C272.787 2848.69 272.128 2847.63 271.436 2846.95C271.072 2846.6 270.695 2846.35 270.312 2846.19C269.996 2846.06 269.525 2845.96 269.746 2846.02C267.894 2845.56 263.421 2845.58 254.569 2849.63C245.957 2853.57 234.544 2860.7 219.59 2872.15L219.581 2872.16L219.571 2872.17C172.245 2909.32 129.724 2917.22 95.2988 2910.47C61.3113 2903.8 36.7193 2883.15 24.2598 2865.77V2865.77L23.9023 2865.27C23.7551 2865.07 23.6275 2864.85 23.5215 2864.62L4.33008 2823.07C3.40422 2821.06 4.27739 2818.69 6.28125 2817.76L18.002 2812.34Z" stroke="black" stroke-width="4"/>
</g>
<g filter="url(#filter3_d_1664_4950)">
<path d="M1897.53 2049.85C1899.66 2050.75 1901.09 2052.79 1901.2 2055.09L1901.69 2065.55C1901.8 2067.86 1900.57 2070.03 1898.53 2071.12L1854.38 2094.79C1850.49 2096.87 1845.76 2094.19 1845.55 2089.79L1845.13 2080.76C1845.01 2078.36 1846.34 2076.12 1848.51 2075.07L1876.19 2061.72C1876.27 2061.69 1876.32 2061.6 1876.32 2061.51V2061.51C1876.31 2061.42 1876.26 2061.35 1876.17 2061.32L1847.34 2050.57C1845.09 2049.73 1843.56 2047.63 1843.44 2045.23L1843.02 2036.21C1842.81 2031.8 1847.27 2028.69 1851.34 2030.4L1897.53 2049.85Z" fill="#A2E59C"/>
<path d="M1817.25 2053.65C1819.38 2054.55 1820.8 2056.59 1820.91 2058.9L1821.41 2069.35C1821.52 2071.66 1820.29 2073.83 1818.25 2074.92L1774.1 2098.59C1770.21 2100.68 1765.48 2097.99 1765.27 2093.59L1764.84 2084.56C1764.73 2082.16 1766.06 2079.92 1768.23 2078.88L1795.91 2065.53C1795.99 2065.49 1796.04 2065.4 1796.04 2065.32V2065.32C1796.03 2065.23 1795.98 2065.15 1795.89 2065.12L1767.06 2054.37C1764.81 2053.54 1763.27 2051.43 1763.16 2049.04L1762.73 2040.02C1762.52 2035.61 1766.99 2032.49 1771.05 2034.2L1817.25 2053.65Z" fill="#A2E59C"/>
<path d="M1736.96 2057.45C1739.09 2058.35 1740.52 2060.39 1740.63 2062.7L1741.12 2073.15C1741.23 2075.46 1740.01 2077.63 1737.97 2078.72L1693.82 2102.39C1689.93 2104.48 1685.2 2101.79 1684.99 2097.39L1684.56 2088.37C1684.45 2085.96 1685.78 2083.72 1687.95 2082.68L1715.63 2069.33C1715.71 2069.29 1715.76 2069.21 1715.75 2069.12V2069.12C1715.75 2069.03 1715.69 2068.95 1715.61 2068.92L1686.78 2058.18C1684.52 2057.34 1682.99 2055.24 1682.88 2052.84L1682.45 2043.82C1682.24 2039.41 1686.7 2036.29 1690.77 2038L1736.96 2057.45Z" fill="#A2E59C"/>
<path d="M1684.45 2043.72C1684.31 2040.78 1687.28 2038.71 1690 2039.85L1736.19 2059.3C1737.61 2059.89 1738.56 2061.25 1738.63 2062.79L1739.13 2073.25C1739.2 2074.79 1738.38 2076.23 1737.02 2076.96L1692.87 2100.63C1690.28 2102.02 1687.12 2100.23 1686.98 2097.29L1686.56 2088.27C1686.48 2086.67 1687.37 2085.18 1688.82 2084.48L1716.5 2071.13C1717.3 2070.74 1717.79 2069.91 1717.75 2069.02C1717.71 2068.13 1717.14 2067.36 1716.31 2067.05L1687.47 2056.3C1685.97 2055.74 1684.95 2054.34 1684.88 2052.74L1684.45 2043.72ZM1764.73 2039.92C1764.59 2036.98 1767.57 2034.9 1770.28 2036.04L1816.47 2055.49C1817.89 2056.09 1818.84 2057.45 1818.91 2058.99L1819.41 2069.45C1819.48 2070.99 1818.66 2072.43 1817.3 2073.16L1773.15 2096.83C1770.56 2098.22 1767.41 2096.43 1767.27 2093.49L1766.84 2084.47C1766.76 2082.87 1767.65 2081.37 1769.1 2080.68L1796.78 2067.33C1797.58 2066.94 1798.08 2066.11 1798.03 2065.22C1797.99 2064.33 1797.42 2063.55 1796.59 2063.24L1767.76 2052.5C1766.26 2051.94 1765.23 2050.54 1765.16 2048.94L1764.73 2039.92ZM1845.01 2036.12C1844.87 2033.18 1847.85 2031.1 1850.56 2032.24L1896.75 2051.69C1898.17 2052.29 1899.12 2053.65 1899.2 2055.19L1899.69 2065.64C1899.77 2067.18 1898.95 2068.63 1897.59 2069.36L1853.44 2093.03C1850.84 2094.42 1847.69 2092.63 1847.55 2089.69L1847.12 2080.67C1847.05 2079.07 1847.94 2077.57 1849.38 2076.88L1877.06 2063.53C1877.86 2063.14 1878.36 2062.31 1878.32 2061.42C1878.27 2060.53 1877.71 2059.75 1876.87 2059.44L1848.04 2048.7C1846.54 2048.14 1845.52 2046.74 1845.44 2045.14L1845.01 2036.12Z" stroke="black" stroke-width="4"/>
</g>
<g filter="url(#filter4_d_1664_4950)">
<rect x="46" y="1949.67" width="148.179" height="132.598" transform="rotate(-11.1552 46 1949.67)" fill="#FF914D"/>
<rect x="48.3491" y="1951.24" width="144.179" height="128.598" transform="rotate(-11.1552 48.3491 1951.24)" stroke="black" stroke-width="4"/>
</g>
<g filter="url(#filter5_d_1664_4950)">
<path d="M2019.41 3744.28C1982.96 3719.85 1949.81 3716.08 1916.09 3710.87C1882.25 3705.64 1847.82 3698.87 1816.13 3664.87C1788.83 3635.58 1785.91 3600.17 1782.37 3570.89C1778.72 3540.66 1774.5 3516.36 1751.36 3497.68C1737.72 3486.66 1718.93 3479.86 1697.36 3476.27C1675.89 3472.7 1652.59 3472.46 1630.82 3473.83C1609.11 3475.19 1589.27 3478.13 1574.85 3480.73C1567.65 3482.03 1561.82 3483.24 1557.82 3484.13C1555.82 3484.57 1554.28 3484.92 1553.25 3485.17C1552.74 3485.29 1552.35 3485.38 1552.1 3485.44C1551.98 3485.47 1551.89 3485.5 1551.83 3485.51C1551.8 3485.52 1551.78 3485.52 1551.77 3485.53C1551.77 3485.53 1551.77 3485.53 1551.76 3485.53C1551.76 3485.51 1551.65 3485.06 1548.77 3473.21C1545.83 3461.09 1545.79 3460.89 1545.79 3460.89C1545.79 3460.89 1545.79 3460.89 1545.8 3460.89C1545.81 3460.88 1545.82 3460.88 1545.83 3460.88C1545.85 3460.87 1545.89 3460.86 1545.93 3460.85C1546.02 3460.83 1546.14 3460.8 1546.29 3460.76C1546.6 3460.69 1547.05 3460.58 1547.62 3460.44C1548.78 3460.17 1550.45 3459.78 1552.59 3459.31C1556.87 3458.37 1563.01 3457.09 1570.57 3455.73C1585.67 3453 1606.52 3449.91 1629.49 3448.47C1652.4 3447.03 1677.78 3447.21 1701.79 3451.2C1725.7 3455.18 1749.21 3463.09 1767.48 3477.85C1799.25 3503.51 1804.01 3537.6 1807.63 3567.59C1811.37 3598.52 1814.03 3625.13 1834.83 3647.45C1860.41 3674.9 1887.41 3680.68 1920.24 3685.76C1953.19 3690.85 1991.95 3695.13 2033.73 3723.13L2019.41 3744.28Z" fill="#91A8EC"/>
<path d="M2019.28 3743.58C1982.88 3719.34 1949.74 3715.56 1916.17 3710.38C1882.34 3705.15 1848.06 3698.4 1816.5 3664.53C1789.33 3635.38 1786.41 3600.14 1782.87 3570.83C1779.22 3540.61 1774.99 3516.11 1751.68 3497.29C1737.94 3486.19 1719.06 3479.37 1697.44 3475.78C1675.92 3472.2 1652.58 3471.96 1630.79 3473.33C1609.05 3474.7 1589.2 3477.64 1574.76 3480.24C1567.55 3481.54 1561.72 3482.76 1557.72 3483.64C1555.71 3484.08 1554.17 3484.44 1553.14 3484.68C1552.72 3484.78 1552.38 3484.86 1552.13 3484.92C1552.07 3484.67 1551.98 3484.28 1551.83 3483.69C1551.45 3482.09 1550.7 3479.01 1549.26 3473.09C1547.79 3467.03 1547.04 3463.95 1546.66 3462.39C1546.53 3461.85 1546.45 3461.49 1546.39 3461.25C1546.4 3461.25 1546.4 3461.25 1546.41 3461.25C1546.72 3461.17 1547.16 3461.07 1547.74 3460.93C1548.89 3460.66 1550.56 3460.27 1552.7 3459.8C1556.97 3458.86 1563.11 3457.58 1570.66 3456.22C1585.74 3453.5 1606.58 3450.41 1629.52 3448.97C1652.41 3447.53 1677.74 3447.71 1701.71 3451.69C1725.57 3455.66 1748.98 3463.55 1767.17 3478.24C1798.76 3503.76 1803.51 3537.66 1807.13 3567.65C1810.87 3598.54 1813.54 3625.33 1834.47 3647.79C1860.17 3675.37 1887.32 3681.17 1920.16 3686.25C1953.02 3691.33 1991.52 3695.58 2033.04 3723.26L2019.28 3743.58Z" stroke="black"/>
</g>
<defs>
<filter id="filter0_d_1664_4950" x="1801" y="207.999" width="163" height="163" filterUnits="userSpaceOnUse" color-interpolation-filters="sRGB">
<feFlood flood-opacity="0" result="BackgroundImageFix"/>
<feColorMatrix in="SourceAlpha" type="matrix" values="0 0 0 0 0 0 0 0 0 0 0 0 0 0 0 0 0 0 127 0" result="hardAlpha"/>
<feOffset dx="8" dy="8"/>
<feComposite in2="hardAlpha" operator="out"/>
<feColorMatrix type="matrix" values="0 0 0 0 0 0 0 0 0 0 0 0 0 0 0 0 0 0 1 0"/>
<feBlend mode="normal" in2="BackgroundImageFix" result="effect1_dropShadow_1664_4950"/>
<feBlend mode="normal" in="SourceGraphic" in2="effect1_dropShadow_1664_4950" result="shape"/>
</filter>
<filter id="filter1_d_1664_4950" x="80.2754" y="1209.41" width="166.449" height="159.091" filterUnits="userSpaceOnUse" color-interpolation-filters="sRGB">
<feFlood flood-opacity="0" result="BackgroundImageFix"/>
<feColorMatrix in="SourceAlpha" type="matrix" values="0 0 0 0 0 0 0 0 0 0 0 0 0 0 0 0 0 0 127 0" result="hardAlpha"/>
<feOffset dx="4" dy="4"/>
<feComposite in2="hardAlpha" operator="out"/>
<feColorMatrix type="matrix" values="0 0 0 0 0 0 0 0 0 0 0 0 0 0 0 0 0 0 1 0"/>
<feBlend mode="normal" in2="BackgroundImageFix" result="effect1_dropShadow_1664_4950"/>
<feBlend mode="normal" in="SourceGraphic" in2="effect1_dropShadow_1664_4950" result="shape"/>
</filter>
<filter id="filter2_d_1664_4950" x="1.95996" y="2809.97" width="514.04" height="171.722" filterUnits="userSpaceOnUse" color-interpolation-filters="sRGB">
<feFlood flood-opacity="0" result="BackgroundImageFix"/>
<feColorMatrix in="SourceAlpha" type="matrix" values="0 0 0 0 0 0 0 0 0 0 0 0 0 0 0 0 0 0 127 0" result="hardAlpha"/>
<feOffset dx="4" dy="4"/>
<feComposite in2="hardAlpha" operator="out"/>
<feColorMatrix type="matrix" values="0 0 0 0 0 0 0 0 0 0 0 0 0 0 0 0 0 0 1 0"/>
<feBlend mode="normal" in2="BackgroundImageFix" result="effect1_dropShadow_1664_4950"/>
<feBlend mode="normal" in="SourceGraphic" in2="effect1_dropShadow_1664_4950" result="shape"/>
</filter>
<filter id="filter3_d_1664_4950" x="1682.44" y="2029.92" width="223.254" height="77.1897" filterUnits="userSpaceOnUse" color-interpolation-filters="sRGB">
<feFlood flood-opacity="0" result="BackgroundImageFix"/>
<feColorMatrix in="SourceAlpha" type="matrix" values="0 0 0 0 0 0 0 0 0 0 0 0 0 0 0 0 0 0 127 0" result="hardAlpha"/>
<feOffset dx="4" dy="4"/>
<feComposite in2="hardAlpha" operator="out"/>
<feColorMatrix type="matrix" values="0 0 0 0 0 0 0 0 0 0 0 0 0 0 0 0 0 0 1 0"/>
<feBlend mode="normal" in2="BackgroundImageFix" result="effect1_dropShadow_1664_4950"/>
<feBlend mode="normal" in="SourceGraphic" in2="effect1_dropShadow_1664_4950" result="shape"/>
</filter>
<filter id="filter4_d_1664_4950" x="46" y="1921" width="179.033" height="166.76" filterUnits="userSpaceOnUse" color-interpolation-filters="sRGB">
<feFlood flood-opacity="0" result="BackgroundImageFix"/>
<feColorMatrix in="SourceAlpha" type="matrix" values="0 0 0 0 0 0 0 0 0 0 0 0 0 0 0 0 0 0 127 0" result="hardAlpha"/>
<feOffset dx="8" dy="8"/>
<feComposite in2="hardAlpha" operator="out"/>
<feColorMatrix type="matrix" values="0 0 0 0 0 0 0 0 0 0 0 0 0 0 0 0 0 0 1 0"/>
<feBlend mode="normal" in2="BackgroundImageFix" result="effect1_dropShadow_1664_4950"/>
<feBlend mode="normal" in="SourceGraphic" in2="effect1_dropShadow_1664_4950" result="shape"/>
</filter>
<filter id="filter5_d_1664_4950" x="1545.79" y="3447.64" width="495.946" height="304.632" filterUnits="userSpaceOnUse" color-interpolation-filters="sRGB">
<feFlood flood-opacity="0" result="BackgroundImageFix"/>
<feColorMatrix in="SourceAlpha" type="matrix" values="0 0 0 0 0 0 0 0 0 0 0 0 0 0 0 0 0 0 127 0" result="hardAlpha"/>
<feOffset dx="8" dy="8"/>
<feComposite in2="hardAlpha" operator="out"/>
<feColorMatrix type="matrix" values="0 0 0 0 0 0 0 0 0 0 0 0 0 0 0 0 0 0 1 0"/>
<feBlend mode="normal" in2="BackgroundImageFix" result="effect1_dropShadow_1664_4950"/>
<feBlend mode="normal" in="SourceGraphic" in2="effect1_dropShadow_1664_4950" result="shape"/>
</filter>
</defs>
</svg>
