<svg width="2071" height="978" viewBox="0 0 2071 978" fill="none" xmlns="http://www.w3.org/2000/svg">
<g filter="url(#filter0_d_1982_4935)">
<circle cx="1966.5" cy="724.5" r="77.5" fill="#BFADFF"/>
<circle cx="1966.5" cy="724.5" r="75.5" stroke="black" stroke-width="4"/>
</g>
<g filter="url(#filter1_d_1982_4935)">
<path d="M1248.79 37.5623C1250.59 32.0345 1258.41 32.0344 1260.21 37.5623L1267.86 61.1135C1268.66 63.5856 1270.97 65.2594 1273.56 65.2594H1298.33C1304.14 65.2594 1306.56 72.6971 1301.85 76.1135L1281.82 90.6689C1279.72 92.1968 1278.84 94.905 1279.64 97.3771L1287.29 120.928C1289.09 126.456 1282.76 131.053 1278.06 127.637L1258.03 113.081C1255.92 111.553 1253.08 111.553 1250.97 113.081L1230.94 127.637C1226.24 131.053 1219.91 126.456 1221.71 120.928L1229.36 97.3771C1230.16 94.905 1229.28 92.1968 1227.18 90.6689L1207.15 76.1135C1202.44 72.6971 1204.86 65.2594 1210.67 65.2594H1235.44C1238.03 65.2594 1240.34 63.5856 1241.14 61.1135L1248.79 37.5623Z" fill="#ADDFFF"/>
<path d="M1250.7 38.1807C1251.89 34.4954 1257.11 34.4954 1258.3 38.1807L1265.96 61.7314C1267.03 65.0275 1270.1 67.2596 1273.56 67.2598H1298.33C1302.2 67.2598 1303.81 72.2174 1300.68 74.4951L1280.65 89.0508C1277.84 91.0879 1276.67 94.6989 1277.74 97.9951L1285.39 121.546C1286.59 125.231 1282.37 128.296 1279.24 126.019L1259.2 111.463C1256.4 109.426 1252.6 109.426 1249.8 111.463L1229.76 126.019C1226.63 128.296 1222.41 125.231 1223.61 121.546L1231.26 97.9951C1232.33 94.6989 1231.16 91.0879 1228.35 89.0508L1208.32 74.4951C1205.19 72.2174 1206.8 67.2598 1210.67 67.2598H1235.44C1238.9 67.2596 1241.97 65.0275 1243.04 61.7314L1250.7 38.1807Z" stroke="black" stroke-width="4"/>
</g>
<path d="M1246.08 824C1317.4 824 1375.41 880.925 1377.17 951.813H1115C1116.76 880.925 1174.77 824 1246.08 824Z" fill="#FF914D"/>
<mask id="path-6-outside-1_1982_4935" maskUnits="userSpaceOnUse" x="1130.83" y="841.368" width="272" height="136" fill="black">
<rect fill="white" x="1130.83" y="841.368" width="272" height="136"/>
<path d="M1266.91 845.368C1338.23 845.368 1396.24 902.293 1398 973.182H1135.83C1137.59 902.293 1195.6 845.368 1266.91 845.368Z"/>
</mask>
<path d="M1266.91 845.368L1266.91 841.368H1266.91V845.368ZM1398 973.182V977.182H1402.1L1402 973.082L1398 973.182ZM1135.83 973.182L1131.83 973.082L1131.73 977.182H1135.83V973.182ZM1266.91 845.368L1266.91 849.368C1336.05 849.368 1392.3 904.557 1394 973.281L1398 973.182L1402 973.082C1400.19 900.03 1340.4 841.368 1266.91 841.368L1266.91 845.368ZM1398 973.182V969.182H1135.83V973.182V977.182H1398V973.182ZM1135.83 973.182L1139.83 973.281C1141.53 904.557 1197.78 849.368 1266.91 849.368V845.368V841.368C1193.43 841.368 1133.64 900.03 1131.83 973.082L1135.83 973.182Z" fill="black" mask="url(#path-6-outside-1_1982_4935)"/>
<path d="M1943.32 93.3545L2033.67 249.839H1852.98L1943.32 93.3545Z" fill="#A2E59C"/>
<path d="M1968.39 80L2058.74 236.484L2060.47 239.484H1872.85L1874.58 236.484L1964.93 80L1966.66 77L1968.39 80Z" stroke="black" stroke-width="4"/>
<g filter="url(#filter2_d_1982_4935)">
<path d="M44.2741 783.735C44.4472 784.11 44.6544 784.462 44.9035 784.791C54.8607 797.945 74.2522 813.776 100.703 818.963C127.538 824.225 163.477 818.886 206.543 785.038L206.604 784.99L206.665 784.944C222.236 773.012 235.201 764.731 246.046 759.77C256.606 754.939 266.929 752.43 276.294 754.77C286.649 757.357 292.587 764.948 295.735 772.879C298.716 780.388 299.72 789.311 300.075 797.805C300.437 806.465 300.15 816.015 299.905 825.106C299.654 834.405 299.441 843.342 299.831 851.588C300.224 859.906 301.207 866.714 302.977 871.866C304.713 876.915 306.847 879.375 308.975 880.632C313.938 883.564 320.311 884.541 328.848 883.104C337.518 881.644 347.516 877.829 358.636 872.259C369.685 866.724 381.195 859.794 392.909 852.524C404.446 845.365 416.346 837.769 427.486 831.425C438.563 825.115 449.817 819.491 460.308 816.546C470.646 813.644 482.595 812.695 493.005 819.085C503.491 825.522 508.925 837.243 511.332 851.374C513.56 864.448 513.554 881.475 511.327 903.031C510.986 906.328 507.998 908.686 504.707 908.298L491.885 906.789C488.594 906.402 486.247 903.418 486.584 900.122C488.659 879.838 488.46 865.45 486.776 855.565C484.91 844.611 481.629 841.351 479.982 840.34C478.258 839.282 474.652 838.414 467.034 840.553C459.569 842.649 450.466 847.023 439.804 853.095C429.205 859.132 417.983 866.301 406.035 873.716C394.265 881.02 381.927 888.472 369.784 894.555C357.712 900.602 345.172 905.639 332.98 907.691C320.657 909.766 307.845 908.915 296.316 902.106C287.432 896.859 282.354 888.506 279.422 879.977C276.525 871.55 275.386 862.014 274.949 852.766C274.508 843.447 274.756 833.597 275.003 824.432C275.256 815.058 275.505 806.464 275.187 798.847C274.862 791.065 273.971 785.576 272.585 782.084C271.367 779.014 270.466 779.011 270.261 778.96C269.065 778.661 265.103 778.466 256.401 782.447C247.983 786.297 236.707 793.325 221.806 804.742C174.104 842.19 131.005 850.312 95.914 843.431C61.3496 836.653 36.3418 815.66 23.6344 797.936L23.2769 797.438C23.056 797.13 22.8648 796.801 22.7058 796.457L3.51414 754.906C2.12534 751.899 3.43565 748.336 6.44154 746.945L18.1623 741.521C21.1711 740.129 24.7388 741.441 26.129 744.451L44.2741 783.735Z" fill="#FF91E8"/>
<path d="M19.002 743.337C21.0078 742.409 23.3866 743.283 24.3135 745.289L42.458 784.573C42.6866 785.068 42.9663 785.546 43.3086 785.998C53.5113 799.477 73.3075 815.629 100.317 820.926C127.817 826.318 164.333 820.754 207.773 786.614L207.835 786.566L207.834 786.565L207.875 786.535L207.881 786.531C223.399 774.641 236.228 766.46 246.878 761.588C257.289 756.826 267.101 754.534 275.809 756.71C285.343 759.092 290.88 766.068 293.876 773.617C296.729 780.805 297.725 789.453 298.077 797.889C298.435 806.465 298.151 815.939 297.905 825.052C297.654 834.34 297.439 843.35 297.833 851.683C298.23 860.074 299.225 867.102 301.086 872.516C302.919 877.849 305.291 880.779 307.958 882.354C313.446 885.596 320.336 886.565 329.181 885.076C338.133 883.569 348.335 879.655 359.531 874.047C370.668 868.468 382.245 861.496 393.964 854.224C405.533 847.044 417.379 839.482 428.476 833.162C439.519 826.872 450.601 821.349 460.849 818.472C470.971 815.63 482.249 814.829 491.959 820.789C501.734 826.789 506.995 837.829 509.36 851.71C511.544 864.528 511.555 881.352 509.337 902.826C509.112 904.996 507.141 906.571 504.94 906.312L492.118 904.803C489.934 904.546 488.345 902.555 488.573 900.325C490.657 879.962 490.476 865.37 488.748 855.229C486.837 844.012 483.38 840.079 481.028 838.636C478.612 837.153 474.34 836.424 466.493 838.627C458.785 840.791 449.508 845.267 438.814 851.357C428.172 857.419 416.895 864.623 404.98 872.017C393.215 879.318 380.943 886.728 368.888 892.767C356.893 898.775 344.557 903.714 332.648 905.719C320.629 907.742 308.334 906.881 297.333 900.384C288.993 895.458 284.15 887.579 281.313 879.327C278.507 871.162 277.38 861.844 276.946 852.672C276.51 843.439 276.755 833.661 277.003 824.485C277.255 815.135 277.507 806.465 277.186 798.764C276.858 790.927 275.959 785.162 274.444 781.347C273.787 779.69 273.128 778.626 272.436 777.954C272.072 777.602 271.695 777.354 271.312 777.193C270.996 777.061 270.525 776.964 270.746 777.02C268.894 776.557 264.421 776.579 255.569 780.628C246.957 784.568 235.544 791.696 220.59 803.154L220.581 803.161L220.571 803.169C173.245 840.322 130.724 848.219 96.2988 841.469C62.3113 834.804 37.7193 814.15 25.2598 796.771V796.771L24.9023 796.272C24.7551 796.067 24.6275 795.848 24.5215 795.618L5.33008 754.067C4.40422 752.063 5.27739 749.687 7.28125 748.76L19.002 743.337Z" stroke="black" stroke-width="4"/>
</g>
<g filter="url(#filter3_d_1982_4935)">
<rect y="55.0566" width="227.723" height="105.155" transform="rotate(-11.1552 0 55.0566)" fill="#FF6D4D"/>
<rect x="2.34915" y="56.6319" width="223.723" height="101.155" transform="rotate(-11.1552 2.34915 56.6319)" stroke="black" stroke-width="4"/>
</g>
<g filter="url(#filter4_d_1982_4935)">
<path d="M864.427 58.3605C866.335 59.6655 867.323 61.9502 866.968 64.234L865.361 74.576C865.006 76.862 863.368 78.7401 861.151 79.403L813.156 93.7562C808.93 95.02 804.831 91.4449 805.509 87.0863L806.896 78.1607C807.265 75.7829 809.02 73.8559 811.352 73.2655L841.146 65.7253C841.232 65.7035 841.297 65.6322 841.311 65.5442V65.5442C841.324 65.4564 841.284 65.369 841.209 65.3219L815.109 49.0247C813.072 47.7524 811.989 45.3876 812.358 43.0139L813.745 34.0909C814.423 29.7296 819.419 27.5682 823.062 30.0604L864.427 58.3605Z" fill="#4FD3C6"/>
<path d="M785.008 46.0173C786.916 47.3223 787.904 49.607 787.549 51.8908L785.942 62.2328C785.587 64.5188 783.949 66.3969 781.732 67.0598L733.737 81.413C729.511 82.6768 725.412 79.1017 726.089 74.7431L727.476 65.8175C727.846 63.4397 729.6 61.5127 731.933 60.9223L761.727 53.3821C761.813 53.3603 761.878 53.289 761.891 53.201V53.201C761.905 53.1133 761.865 53.0258 761.79 52.9787L735.69 36.6815C733.652 35.4092 732.57 33.0444 732.939 30.6707L734.326 21.7477C735.004 17.3864 740 15.225 743.642 17.7172L785.008 46.0173Z" fill="#4FD3C6"/>
<path d="M705.589 33.6741C707.497 34.9792 708.485 37.2638 708.13 39.5476L706.523 49.8896C706.167 52.1756 704.529 54.0537 702.313 54.7166L654.318 69.0698C650.092 70.3336 645.993 66.7586 646.67 62.3999L648.057 53.4743C648.427 51.0965 650.181 49.1695 652.514 48.5791L682.307 41.0389C682.394 41.0171 682.458 40.9458 682.472 40.8579V40.8579C682.486 40.7701 682.446 40.6826 682.37 40.6355L656.271 24.3383C654.233 23.0661 653.151 20.7012 653.52 18.3276L654.907 9.40455C655.584 5.04324 660.58 2.88183 664.223 5.374L705.589 33.6741Z" fill="#4FD3C6"/>
<path d="M656.883 9.71182C657.335 6.80437 660.665 5.36321 663.094 7.02442L704.46 35.3252C705.731 36.1952 706.391 37.718 706.154 39.2403L704.547 49.5829C704.31 51.1067 703.217 52.3585 701.74 52.8004L653.745 67.1535C650.928 67.9958 648.195 65.6129 648.646 62.7074L650.034 53.7814C650.28 52.1963 651.449 50.9119 653.005 50.5183L682.798 42.978C683.662 42.7593 684.312 42.0456 684.449 41.1651C684.585 40.2861 684.184 39.4104 683.43 38.9392L657.33 22.6419C655.972 21.7938 655.25 20.2173 655.496 18.635L656.883 9.71182ZM736.302 22.0551C736.754 19.1475 740.085 17.7062 742.513 19.3677L783.879 47.6683C785.15 48.5383 785.809 50.0609 785.573 51.5834L783.965 61.926C783.728 63.4498 782.636 64.7016 781.159 65.1435L733.164 79.4967C730.347 80.3393 727.615 77.9563 728.066 75.0507L729.453 66.1246C729.7 64.5395 730.869 63.2551 732.424 62.8615L762.217 55.3211C763.081 55.1025 763.73 54.3887 763.867 53.5081C764.004 52.6291 763.603 51.7534 762.848 51.2823L736.749 34.985C735.391 34.1368 734.67 32.5604 734.916 30.9782L736.302 22.0551ZM815.721 34.3982C816.173 31.4908 819.504 30.0497 821.932 31.7108L863.298 60.0116C864.57 60.8816 865.229 62.4042 864.992 63.9266L863.385 74.2692C863.148 75.7931 862.056 77.0448 860.578 77.4867L812.584 91.84C809.767 92.6825 807.033 90.2994 807.485 87.3938L808.872 78.4677C809.118 76.8827 810.288 75.5983 811.843 75.2046L841.636 67.6643C842.5 67.4457 843.15 66.7319 843.287 65.8514C843.424 64.9724 843.023 64.0967 842.268 63.6255L816.168 47.3283C814.81 46.4801 814.088 44.9036 814.334 43.3213L815.721 34.3982Z" stroke="black" stroke-width="4"/>
</g>
<defs>
<filter id="filter0_d_1982_4935" x="1889" y="647" width="163" height="163" filterUnits="userSpaceOnUse" color-interpolation-filters="sRGB">
<feFlood flood-opacity="0" result="BackgroundImageFix"/>
<feColorMatrix in="SourceAlpha" type="matrix" values="0 0 0 0 0 0 0 0 0 0 0 0 0 0 0 0 0 0 127 0" result="hardAlpha"/>
<feOffset dx="8" dy="8"/>
<feComposite in2="hardAlpha" operator="out"/>
<feColorMatrix type="matrix" values="0 0 0 0 0 0 0 0 0 0 0 0 0 0 0 0 0 0 1 0"/>
<feBlend mode="normal" in2="BackgroundImageFix" result="effect1_dropShadow_1982_4935"/>
<feBlend mode="normal" in="SourceGraphic" in2="effect1_dropShadow_1982_4935" result="shape"/>
</filter>
<filter id="filter1_d_1982_4935" x="1204.66" y="33.4165" width="103.68" height="99.3931" filterUnits="userSpaceOnUse" color-interpolation-filters="sRGB">
<feFlood flood-opacity="0" result="BackgroundImageFix"/>
<feColorMatrix in="SourceAlpha" type="matrix" values="0 0 0 0 0 0 0 0 0 0 0 0 0 0 0 0 0 0 127 0" result="hardAlpha"/>
<feOffset dx="4" dy="4"/>
<feComposite in2="hardAlpha" operator="out"/>
<feColorMatrix type="matrix" values="0 0 0 0 0 0 0 0 0 0 0 0 0 0 0 0 0 0 1 0"/>
<feBlend mode="normal" in2="BackgroundImageFix" result="effect1_dropShadow_1982_4935"/>
<feBlend mode="normal" in="SourceGraphic" in2="effect1_dropShadow_1982_4935" result="shape"/>
</filter>
<filter id="filter2_d_1982_4935" x="2.95996" y="740.965" width="514.04" height="171.722" filterUnits="userSpaceOnUse" color-interpolation-filters="sRGB">
<feFlood flood-opacity="0" result="BackgroundImageFix"/>
<feColorMatrix in="SourceAlpha" type="matrix" values="0 0 0 0 0 0 0 0 0 0 0 0 0 0 0 0 0 0 127 0" result="hardAlpha"/>
<feOffset dx="4" dy="4"/>
<feComposite in2="hardAlpha" operator="out"/>
<feColorMatrix type="matrix" values="0 0 0 0 0 0 0 0 0 0 0 0 0 0 0 0 0 0 1 0"/>
<feBlend mode="normal" in2="BackgroundImageFix" result="effect1_dropShadow_1982_4935"/>
<feBlend mode="normal" in="SourceGraphic" in2="effect1_dropShadow_1982_4935" result="shape"/>
</filter>
<filter id="filter3_d_1982_4935" x="0" y="10.9995" width="251.765" height="155.225" filterUnits="userSpaceOnUse" color-interpolation-filters="sRGB">
<feFlood flood-opacity="0" result="BackgroundImageFix"/>
<feColorMatrix in="SourceAlpha" type="matrix" values="0 0 0 0 0 0 0 0 0 0 0 0 0 0 0 0 0 0 127 0" result="hardAlpha"/>
<feOffset dx="8" dy="8"/>
<feComposite in2="hardAlpha" operator="out"/>
<feColorMatrix type="matrix" values="0 0 0 0 0 0 0 0 0 0 0 0 0 0 0 0 0 0 1 0"/>
<feBlend mode="normal" in2="BackgroundImageFix" result="effect1_dropShadow_1982_4935"/>
<feBlend mode="normal" in="SourceGraphic" in2="effect1_dropShadow_1982_4935" result="shape"/>
</filter>
<filter id="filter4_d_1982_4935" x="646.597" y="4.31982" width="224.443" height="93.6938" filterUnits="userSpaceOnUse" color-interpolation-filters="sRGB">
<feFlood flood-opacity="0" result="BackgroundImageFix"/>
<feColorMatrix in="SourceAlpha" type="matrix" values="0 0 0 0 0 0 0 0 0 0 0 0 0 0 0 0 0 0 127 0" result="hardAlpha"/>
<feOffset dx="4" dy="4"/>
<feComposite in2="hardAlpha" operator="out"/>
<feColorMatrix type="matrix" values="0 0 0 0 0 0 0 0 0 0 0 0 0 0 0 0 0 0 1 0"/>
<feBlend mode="normal" in2="BackgroundImageFix" result="effect1_dropShadow_1982_4935"/>
<feBlend mode="normal" in="SourceGraphic" in2="effect1_dropShadow_1982_4935" result="shape"/>
</filter>
</defs>
</svg>
