<svg width="1858" height="773" viewBox="0 0 1858 773" fill="none" xmlns="http://www.w3.org/2000/svg">
<g filter="url(#filter0_d_1148_7324)">
<path d="M381.108 682.158C345.432 682.718 321.525 695.554 296.573 707.69C271.527 719.872 245.376 731.295 208.448 723.25C176.63 716.318 158.275 693.999 142.346 676.068C125.901 657.556 111.826 643.269 87.7042 641.495C73.4782 640.449 57.7712 644.607 41.6892 652.202C25.6856 659.761 10.0028 670.395 -3.9148 681.393C-17.7983 692.365 -29.6972 703.517 -38.1336 711.94C-42.3447 716.145 -45.676 719.652 -47.9415 722.093C-49.0738 723.313 -49.9387 724.266 -50.5132 724.906C-50.8004 725.225 -51.0149 725.466 -51.1537 725.623C-51.223 725.702 -51.2736 725.759 -51.3048 725.794C-51.3204 725.812 -51.3313 725.825 -51.3372 725.831C-51.3396 725.834 -51.3416 725.835 -51.3424 725.836C-51.3524 725.826 -51.6341 725.574 -59.047 718.987C-66.6291 712.25 -66.75 712.139 -66.75 712.135C-66.7489 712.134 -66.7465 712.131 -66.7443 712.128C-66.7399 712.123 -66.7341 712.117 -66.7272 712.109C-66.7134 712.093 -66.6949 712.072 -66.6714 712.045C-66.6242 711.992 -66.5573 711.916 -66.4714 711.819C-66.2997 711.625 -66.0511 711.346 -65.729 710.987C-65.0847 710.271 -64.1451 709.236 -62.9333 707.93C-60.5101 705.318 -56.9943 701.618 -52.5735 697.204C-43.7456 688.39 -31.2387 676.662 -16.5562 665.059C-1.90779 653.483 15.1359 641.848 33.0374 633.393C50.8608 624.975 70.2384 619.374 89.2944 620.775C122.41 623.21 141.386 643.797 157.698 662.159C174.527 681.103 188.636 697.66 212.88 702.942C242.69 709.436 263.416 700.798 287.707 688.983C312.092 677.123 339.981 662.028 380.884 661.386L381.108 682.158Z" fill="#A2E59C"/>
<path d="M380.603 681.667C345.074 682.34 321.176 695.167 296.354 707.24C271.326 719.413 245.308 730.768 208.554 722.761C176.922 715.869 158.67 693.691 142.72 675.736C126.279 657.228 112.083 642.786 87.7405 640.997C73.3962 639.942 57.5992 644.135 41.4753 651.75C25.4258 659.33 9.71049 669.989 -4.22457 681.001C-18.1273 691.988 -30.0408 703.154 -38.4865 711.587C-42.7026 715.796 -46.0384 719.307 -48.3077 721.753C-49.442 722.975 -50.3092 723.93 -50.8853 724.571C-51.0876 724.797 -51.2536 724.983 -51.3831 725.129C-51.5413 724.988 -51.7665 724.788 -52.0864 724.504C-53.0848 723.616 -55.0082 721.906 -58.7143 718.613C-62.5053 715.245 -64.4318 713.533 -65.4096 712.663C-65.6964 712.408 -65.9013 712.225 -66.0479 712.094C-65.88 711.905 -65.6485 711.646 -65.357 711.322C-64.7144 710.607 -63.7766 709.574 -62.5668 708.27C-60.1474 705.663 -56.6362 701.967 -52.2205 697.558C-43.4021 688.754 -30.909 677.038 -16.2458 665.451C-1.61506 653.889 15.3953 642.278 33.2506 633.845C51.0318 625.447 70.3199 619.882 89.2573 621.274C122.153 623.692 141.009 644.125 157.325 662.492C174.13 681.409 188.343 698.108 212.774 703.43C242.759 709.962 263.618 701.256 287.926 689.433C312.224 677.615 339.888 662.651 380.389 661.896L380.603 681.667Z" stroke="black"/>
</g>
<rect x="1682" y="117.667" width="108.333" height="108.333" fill="#FF6D4D"/>
<rect x="1691.19" y="107" width="112.333" height="112.333" stroke="black" stroke-width="4"/>
<g filter="url(#filter1_d_1148_7324)">
<path d="M157.754 108.853C157.509 108.199 154.754 98.4605 151.632 87.211L145.955 66.7573L124.399 60.8296C112.542 57.5693 102.913 54.7834 103.001 54.6387C103.088 54.4939 112.789 51.7181 124.56 48.4701L145.96 42.5647L151.881 21.2824C155.138 9.57706 157.941 0 158.109 0C158.278 0 161.08 9.57706 164.337 21.2824L170.259 42.5647L191.629 48.4619C203.383 51.7053 213 54.4964 213 54.6642C213 54.832 203.383 57.6232 191.628 60.8668L170.257 66.7643L164.228 88.4029C159.26 106.234 158.121 109.832 157.754 108.853Z" fill="#ADDFFF"/>
<path d="M158.219 1.82812C158.555 2.90461 159.021 4.4648 159.585 6.39258C160.713 10.2472 162.228 15.5651 163.855 21.416L169.777 42.6992L169.854 42.9717L170.126 43.0469L191.496 48.9443C197.371 50.5656 202.712 52.0729 206.583 53.1963C208.519 53.7581 210.085 54.223 211.166 54.5576C211.285 54.5943 211.397 54.6307 211.503 54.6641C211.397 54.6975 211.285 54.7338 211.166 54.7705C210.085 55.1051 208.519 55.57 206.583 56.1318C202.712 57.2553 197.371 58.7634 191.495 60.3848L170.124 66.2822L169.851 66.3574L169.775 66.6299L163.747 88.2686C161.262 97.187 159.738 102.535 158.789 105.531C158.444 106.621 158.179 107.381 157.978 107.886C157.655 106.798 157.049 104.685 156.253 101.869C155.144 97.9475 153.674 92.7012 152.113 87.0771L146.437 66.624L146.361 66.3506L146.088 66.2754L124.531 60.3477C118.605 58.7179 113.235 57.2072 109.359 56.0859C107.421 55.5252 105.858 55.0616 104.787 54.7305C104.705 54.7049 104.625 54.6792 104.549 54.6553C104.658 54.6222 104.773 54.5862 104.895 54.5498C105.997 54.2194 107.583 53.758 109.536 53.1992C113.442 52.0817 118.808 50.5758 124.692 48.9521L146.093 43.0469L146.365 42.9717L146.441 42.6992L152.363 21.416C153.991 15.5651 155.506 10.2472 156.634 6.39258C157.198 4.4648 157.664 2.90461 158 1.82812C158.038 1.70671 158.075 1.59195 158.109 1.4834C158.144 1.59195 158.181 1.70671 158.219 1.82812Z" stroke="black"/>
</g>
<g filter="url(#filter2_d_1148_7324)">
<path d="M1784.29 641.562C1786.09 636.034 1793.91 636.034 1795.71 641.562L1803.92 666.841C1804.72 669.313 1807.03 670.987 1809.63 670.987L1836.21 670.987C1842.02 670.987 1844.43 678.425 1839.73 681.841L1818.23 697.464C1816.13 698.992 1815.25 701.7 1816.05 704.172L1824.26 729.451C1826.06 734.979 1819.73 739.575 1815.03 736.159L1793.53 720.536C1791.42 719.008 1788.58 719.008 1786.47 720.536L1764.97 736.159C1760.27 739.575 1753.94 734.979 1755.74 729.451L1763.95 704.172C1764.75 701.7 1763.87 698.992 1761.77 697.464L1740.27 681.841C1735.57 678.425 1737.98 670.987 1743.79 670.987L1770.37 670.987C1772.97 670.987 1775.28 669.313 1776.08 666.841L1784.29 641.562Z" fill="#FFA764"/>
<path d="M1786.2 642.181C1787.39 638.495 1792.61 638.495 1793.8 642.181L1802.02 667.459C1803.09 670.755 1806.16 672.987 1809.63 672.987H1836.21C1840.08 672.988 1841.69 677.945 1838.56 680.223L1817.05 695.846C1814.25 697.883 1813.08 701.494 1814.15 704.79L1822.36 730.069C1823.56 733.754 1819.34 736.818 1816.21 734.541L1794.7 718.918C1791.9 716.881 1788.1 716.881 1785.3 718.918L1763.79 734.541C1760.66 736.818 1756.44 733.754 1757.64 730.069L1765.85 704.79C1766.92 701.494 1765.75 697.883 1762.95 695.846L1741.44 680.223C1738.31 677.945 1739.92 672.988 1743.79 672.987H1770.37C1773.84 672.987 1776.91 670.755 1777.98 667.459L1786.2 642.181Z" stroke="black" stroke-width="4"/>
</g>
<defs>
<filter id="filter0_d_1148_7324" x="-66.75" y="620.561" width="455.858" height="113.379" filterUnits="userSpaceOnUse" color-interpolation-filters="sRGB">
<feFlood flood-opacity="0" result="BackgroundImageFix"/>
<feColorMatrix in="SourceAlpha" type="matrix" values="0 0 0 0 0 0 0 0 0 0 0 0 0 0 0 0 0 0 127 0" result="hardAlpha"/>
<feOffset dx="8" dy="8"/>
<feComposite in2="hardAlpha" operator="out"/>
<feColorMatrix type="matrix" values="0 0 0 0 0 0 0 0 0 0 0 0 0 0 0 0 0 0 1 0"/>
<feBlend mode="normal" in2="BackgroundImageFix" result="effect1_dropShadow_1148_7324"/>
<feBlend mode="normal" in="SourceGraphic" in2="effect1_dropShadow_1148_7324" result="shape"/>
</filter>
<filter id="filter1_d_1148_7324" x="103" y="0" width="118" height="117" filterUnits="userSpaceOnUse" color-interpolation-filters="sRGB">
<feFlood flood-opacity="0" result="BackgroundImageFix"/>
<feColorMatrix in="SourceAlpha" type="matrix" values="0 0 0 0 0 0 0 0 0 0 0 0 0 0 0 0 0 0 127 0" result="hardAlpha"/>
<feOffset dx="8" dy="8"/>
<feComposite in2="hardAlpha" operator="out"/>
<feColorMatrix type="matrix" values="0 0 0 0 0 0 0 0 0 0 0 0 0 0 0 0 0 0 1 0"/>
<feBlend mode="normal" in2="BackgroundImageFix" result="effect1_dropShadow_1148_7324"/>
<feBlend mode="normal" in="SourceGraphic" in2="effect1_dropShadow_1148_7324" result="shape"/>
</filter>
<filter id="filter2_d_1148_7324" x="1737.78" y="637.417" width="108.434" height="103.916" filterUnits="userSpaceOnUse" color-interpolation-filters="sRGB">
<feFlood flood-opacity="0" result="BackgroundImageFix"/>
<feColorMatrix in="SourceAlpha" type="matrix" values="0 0 0 0 0 0 0 0 0 0 0 0 0 0 0 0 0 0 127 0" result="hardAlpha"/>
<feOffset dx="4" dy="4"/>
<feComposite in2="hardAlpha" operator="out"/>
<feColorMatrix type="matrix" values="0 0 0 0 0 0 0 0 0 0 0 0 0 0 0 0 0 0 1 0"/>
<feBlend mode="normal" in2="BackgroundImageFix" result="effect1_dropShadow_1148_7324"/>
<feBlend mode="normal" in="SourceGraphic" in2="effect1_dropShadow_1148_7324" result="shape"/>
</filter>
</defs>
</svg>
