<svg width="1782" height="1077" viewBox="0 0 1782 1077" fill="none" xmlns="http://www.w3.org/2000/svg">
<circle cx="653.968" cy="1026.03" r="50.9677" fill="#E9B349"/>
<circle cx="666.079" cy="1018.97" r="51.9677" stroke="black" stroke-width="2"/>
<circle cx="665.826" cy="1019.22" r="27.9977" stroke="black" stroke-width="2"/>
<g filter="url(#filter0_d_1148_6874)">
<mask id="path-4-inside-1_1148_6874" fill="white">
<path d="M131.365 0C200.604 0 257.308 53.6636 262.155 121.668C262.395 125.031 259.672 127.813 256.3 127.813H6.43094C3.05898 127.813 0.335426 125.031 0.575186 121.668C5.42281 53.6637 62.1267 3.75049e-05 131.365 0Z"/>
</mask>
<path d="M131.365 0C200.604 0 257.308 53.6636 262.155 121.668C262.395 125.031 259.672 127.813 256.3 127.813H6.43094C3.05898 127.813 0.335426 125.031 0.575186 121.668C5.42281 53.6637 62.1267 3.75049e-05 131.365 0Z" fill="#91A8EC"/>
<path d="M131.365 0V-4V0ZM262.155 121.668L258.165 121.952L262.155 121.668ZM131.365 0V4C198.49 4 253.466 56.0264 258.165 121.952L262.155 121.668L266.145 121.383C261.149 51.3008 202.718 -4 131.365 -4V0ZM256.3 127.813V123.813H6.43094V127.813V131.813H256.3V127.813ZM0.575186 121.668L4.56506 121.952C9.26453 56.0265 64.2406 4.00004 131.365 4V0V-4C60.0128 -3.99996 1.58109 51.3009 -3.41469 121.383L0.575186 121.668ZM6.43094 127.813V123.813C5.25677 123.813 4.49899 122.879 4.56506 121.952L0.575186 121.668L-3.41469 121.383C-3.82814 127.183 0.86119 131.813 6.43094 131.813V127.813ZM262.155 121.668L258.165 121.952C258.231 122.879 257.474 123.813 256.3 123.813V127.813V131.813C261.869 131.813 266.559 127.183 266.145 121.383L262.155 121.668Z" fill="black" mask="url(#path-4-inside-1_1148_6874)"/>
</g>
<g filter="url(#filter1_d_1148_6874)">
<path d="M1292.8 927.334C1292.98 927.708 1293.18 928.06 1293.43 928.39C1303.74 942.012 1323.82 958.413 1351.21 963.785C1378.99 969.233 1416.19 963.705 1460.77 928.662L1460.83 928.613L1460.89 928.565C1477.01 916.213 1490.43 907.639 1501.66 902.503C1512.59 897.502 1523.28 894.904 1532.97 897.326C1543.69 900.005 1549.84 907.864 1553.1 916.075C1556.18 923.849 1557.22 933.086 1557.59 941.88C1557.96 950.846 1557.67 960.733 1557.41 970.145C1557.15 979.772 1556.93 989.024 1557.34 997.562C1557.74 1006.17 1558.76 1013.22 1560.59 1018.55C1562.39 1023.78 1564.6 1026.33 1566.8 1027.63C1571.94 1030.67 1578.54 1031.68 1587.37 1030.19C1596.35 1028.68 1606.7 1024.73 1618.21 1018.96C1629.65 1013.23 1641.56 1006.06 1653.69 998.531C1665.63 991.119 1677.95 983.255 1689.48 976.687C1700.95 970.155 1712.6 964.332 1723.46 961.283C1734.16 958.279 1746.53 957.296 1757.3 963.911C1768.16 970.575 1773.78 982.71 1776.27 997.34C1778.59 1010.92 1778.57 1028.61 1776.25 1051.03C1775.9 1054.33 1772.92 1056.69 1769.62 1056.3L1755.93 1054.69C1752.64 1054.3 1750.29 1051.31 1750.63 1048.02C1752.8 1026.91 1752.6 1011.95 1750.85 1001.68C1748.92 990.338 1745.53 986.964 1743.82 985.917C1742.04 984.821 1738.3 983.923 1730.42 986.137C1722.69 988.307 1713.27 992.836 1702.23 999.122C1691.26 1005.37 1679.64 1012.79 1667.27 1020.47C1655.09 1028.03 1642.32 1035.75 1629.75 1042.05C1617.25 1048.31 1604.27 1053.52 1591.65 1055.65C1578.9 1057.79 1565.63 1056.91 1553.7 1049.86C1544.5 1044.43 1539.25 1035.78 1536.21 1026.95C1533.21 1018.23 1532.03 1008.36 1531.58 998.782C1531.12 989.134 1531.38 978.936 1531.64 969.447C1531.9 959.742 1532.16 950.845 1531.83 942.959C1531.49 934.902 1530.57 929.22 1529.13 925.605C1527.87 922.426 1526.94 922.424 1526.73 922.37C1525.49 922.061 1521.39 921.859 1512.38 925.98C1503.67 929.967 1491.99 937.242 1476.57 949.062C1427.19 987.832 1382.58 996.24 1346.25 989.117C1310.47 982.1 1284.58 960.366 1271.43 942.016L1271.05 941.484C1270.83 941.176 1270.64 940.848 1270.48 940.503L1250.51 897.275C1249.13 894.268 1250.44 890.705 1253.44 889.314L1265.96 883.522C1268.97 882.129 1272.53 883.441 1273.92 886.451L1292.8 927.334Z" fill="#FF6D4D"/>
<path d="M1266.8 885.337C1268.8 884.409 1271.18 885.283 1272.11 887.29L1290.99 928.172C1291.22 928.667 1291.5 929.144 1291.84 929.596C1302.39 943.543 1322.87 960.266 1350.82 965.748C1379.27 971.326 1417.05 965.573 1462 930.238L1462.04 930.205L1462.11 930.157L1462.11 930.153C1478.18 917.842 1491.46 909.368 1502.49 904.321C1513.28 899.388 1523.45 897.008 1532.49 899.267C1542.39 901.74 1548.13 908.983 1551.24 916.812C1554.2 924.265 1555.23 933.228 1555.59 941.964C1555.96 950.846 1555.67 960.657 1555.41 970.091C1555.15 979.707 1554.93 989.033 1555.34 997.656C1555.75 1006.34 1556.78 1013.61 1558.7 1019.21C1560.6 1024.72 1563.04 1027.73 1565.79 1029.35C1571.45 1032.7 1578.56 1033.7 1587.71 1032.16C1596.96 1030.6 1607.52 1026.56 1619.1 1020.75C1630.63 1014.98 1642.61 1007.76 1654.74 1000.23C1666.72 992.799 1678.98 984.968 1690.47 978.425C1701.9 971.912 1713.38 966.19 1724 963.209C1734.48 960.265 1746.18 959.429 1756.26 965.615C1766.4 971.843 1771.85 983.296 1774.3 997.676C1776.57 1011 1776.58 1028.49 1774.26 1050.82C1774.03 1053 1772.06 1054.57 1769.86 1054.31V1054.31L1756.17 1052.7C1753.98 1052.44 1752.39 1050.45 1752.62 1048.22C1754.8 1027.03 1754.62 1011.87 1752.83 1001.34C1750.85 989.739 1747.28 985.691 1744.87 984.212C1742.39 982.691 1737.99 981.934 1729.88 984.212C1721.91 986.45 1712.31 991.079 1701.24 997.384C1690.23 1003.66 1678.55 1011.12 1666.22 1018.77C1654.04 1026.33 1641.33 1034 1628.85 1040.26C1616.43 1046.48 1603.66 1051.6 1591.32 1053.67C1578.87 1055.77 1566.12 1054.88 1554.71 1048.14C1546.06 1043.03 1541.04 1034.86 1538.1 1026.3C1535.19 1017.84 1534.03 1008.19 1533.58 998.688C1533.13 989.125 1533.38 979 1533.64 969.501C1533.9 959.819 1534.16 950.846 1533.82 942.876C1533.49 934.764 1532.56 928.806 1530.99 924.867C1530.31 923.156 1529.64 922.066 1528.93 921.38C1528.56 921.021 1528.18 920.769 1527.79 920.606C1527.55 920.506 1527.22 920.426 1527.16 920.416L1527.21 920.43C1525.38 919.971 1520.99 919.972 1512.39 923.781L1511.55 924.161C1502.64 928.237 1490.83 935.613 1475.35 947.475L1475.34 947.481L1475.33 947.489C1426.33 985.964 1382.29 994.147 1346.64 987.154C1311.43 980.251 1285.96 958.855 1273.06 940.852L1272.67 940.318C1272.53 940.113 1272.4 939.894 1272.29 939.665L1252.33 896.437C1251.4 894.432 1252.28 892.056 1254.28 891.129L1266.8 885.337Z" stroke="black" stroke-width="4"/>
</g>
<g filter="url(#filter2_d_1148_6874)">
<path d="M561.113 143.208C563.36 143.748 565.096 145.532 565.578 147.792L567.103 154.959C567.585 157.222 566.722 159.56 564.887 160.968L533.896 184.748C530.396 187.433 525.293 185.551 524.375 181.237L523.31 176.233C522.809 173.88 523.762 171.454 525.732 170.072L545.947 155.891C546.007 155.848 546.036 155.774 546.021 155.702C546.006 155.631 545.949 155.575 545.877 155.561L521.617 150.787C519.26 150.323 517.407 148.498 516.907 146.149L515.842 141.148C514.923 136.831 518.823 133.033 523.114 134.065L561.113 143.208Z" fill="#FF91E8"/>
<path d="M496.182 157.027C498.429 157.568 500.166 159.351 500.647 161.612L502.172 168.779C502.654 171.041 501.792 173.38 499.956 174.788L468.965 198.568C465.466 201.253 460.362 199.371 459.444 195.057L458.379 190.053C457.878 187.699 458.832 185.274 460.802 183.892L481.017 169.71C481.077 169.668 481.106 169.594 481.091 169.522C481.075 169.45 481.019 169.395 480.947 169.38L456.686 164.607C454.329 164.143 452.476 162.318 451.976 159.969L450.912 154.968C449.993 150.651 453.893 146.853 458.184 147.885L496.182 157.027Z" fill="#FF91E8"/>
<path d="M431.252 170.847C433.499 171.388 435.236 173.171 435.717 175.432L437.242 182.598C437.724 184.861 436.861 187.199 435.026 188.608L404.035 212.387C400.535 215.073 395.432 213.191 394.514 208.876L393.449 203.873C392.948 201.519 393.902 199.094 395.871 197.712L416.086 183.53C416.146 183.488 416.176 183.414 416.16 183.342C416.145 183.27 416.088 183.214 416.016 183.2L391.756 178.426C389.399 177.963 387.546 176.138 387.046 173.788L385.981 168.787C385.062 164.47 388.962 160.672 393.253 161.705L431.252 170.847Z" fill="#FF91E8"/>
<path d="M387.938 168.371C387.325 165.493 389.925 162.961 392.785 163.649L430.784 172.792C432.282 173.152 433.44 174.341 433.761 175.848L435.286 183.015C435.607 184.523 435.032 186.082 433.808 187.021L402.817 210.801C400.484 212.591 397.082 211.336 396.47 208.46L395.405 203.456C395.071 201.887 395.707 200.271 397.02 199.35L417.235 185.167C417.952 184.665 418.299 183.781 418.117 182.925C417.935 182.07 417.26 181.407 416.403 181.238L392.142 176.464C390.571 176.155 389.336 174.939 389.002 173.372L387.938 168.371ZM452.868 154.551C452.255 151.674 454.855 149.141 457.716 149.829L495.714 158.972C497.212 159.332 498.37 160.521 498.691 162.029L500.216 169.195C500.537 170.704 499.962 172.262 498.739 173.201L467.747 196.981C465.414 198.771 462.012 197.516 461.4 194.64L460.335 189.637C460.001 188.068 460.637 186.451 461.95 185.53L482.166 171.348C482.882 170.845 483.229 169.962 483.047 169.105C482.865 168.251 482.19 167.587 481.333 167.418L457.073 162.644C455.501 162.335 454.266 161.119 453.932 159.553L452.868 154.551ZM517.798 140.732C517.186 137.854 519.785 135.322 522.646 136.01L560.644 145.152C562.143 145.513 563.301 146.702 563.621 148.209L565.147 155.375C565.468 156.884 564.893 158.442 563.669 159.381L532.678 183.161C530.345 184.951 526.943 183.696 526.331 180.82L525.266 175.817C524.932 174.248 525.568 172.631 526.881 171.71L547.096 157.528C547.813 157.025 548.16 156.142 547.977 155.286C547.795 154.431 547.121 153.767 546.264 153.599L522.003 148.825C520.432 148.516 519.196 147.299 518.863 145.733L517.798 140.732Z" stroke="black" stroke-width="4"/>
</g>
<defs>
<filter id="filter0_d_1148_6874" x="0.560547" y="0" width="265.609" height="131.813" filterUnits="userSpaceOnUse" color-interpolation-filters="sRGB">
<feFlood flood-opacity="0" result="BackgroundImageFix"/>
<feColorMatrix in="SourceAlpha" type="matrix" values="0 0 0 0 0 0 0 0 0 0 0 0 0 0 0 0 0 0 127 0" result="hardAlpha"/>
<feOffset dx="4" dy="4"/>
<feComposite in2="hardAlpha" operator="out"/>
<feColorMatrix type="matrix" values="0 0 0 0 0 0 0 0 0 0 0 0 0 0 0 0 0 0 1 0"/>
<feBlend mode="normal" in2="BackgroundImageFix" result="effect1_dropShadow_1148_6874"/>
<feBlend mode="normal" in="SourceGraphic" in2="effect1_dropShadow_1148_6874" result="shape"/>
</filter>
<filter id="filter1_d_1148_6874" x="1249.96" y="882.966" width="532.041" height="177.71" filterUnits="userSpaceOnUse" color-interpolation-filters="sRGB">
<feFlood flood-opacity="0" result="BackgroundImageFix"/>
<feColorMatrix in="SourceAlpha" type="matrix" values="0 0 0 0 0 0 0 0 0 0 0 0 0 0 0 0 0 0 127 0" result="hardAlpha"/>
<feOffset dx="4" dy="4"/>
<feComposite in2="hardAlpha" operator="out"/>
<feColorMatrix type="matrix" values="0 0 0 0 0 0 0 0 0 0 0 0 0 0 0 0 0 0 1 0"/>
<feBlend mode="normal" in2="BackgroundImageFix" result="effect1_dropShadow_1148_6874"/>
<feBlend mode="normal" in="SourceGraphic" in2="effect1_dropShadow_1148_6874" result="shape"/>
</filter>
<filter id="filter2_d_1148_6874" x="385.846" y="133.894" width="185.389" height="83.7383" filterUnits="userSpaceOnUse" color-interpolation-filters="sRGB">
<feFlood flood-opacity="0" result="BackgroundImageFix"/>
<feColorMatrix in="SourceAlpha" type="matrix" values="0 0 0 0 0 0 0 0 0 0 0 0 0 0 0 0 0 0 127 0" result="hardAlpha"/>
<feOffset dx="4" dy="4"/>
<feComposite in2="hardAlpha" operator="out"/>
<feColorMatrix type="matrix" values="0 0 0 0 0 0 0 0 0 0 0 0 0 0 0 0 0 0 1 0"/>
<feBlend mode="normal" in2="BackgroundImageFix" result="effect1_dropShadow_1148_6874"/>
<feBlend mode="normal" in="SourceGraphic" in2="effect1_dropShadow_1148_6874" result="shape"/>
</filter>
</defs>
</svg>
