<svg width="1920" height="3678" viewBox="0 0 1920 3678" fill="none" xmlns="http://www.w3.org/2000/svg">
<circle cx="1718.28" cy="934.441" r="73.2842" fill="#E9B349"/>
<circle cx="1735.7" cy="924.284" r="74.2842" stroke="black" stroke-width="2"/>
<circle cx="1735.33" cy="924.648" r="39.8188" stroke="black" stroke-width="2"/>
<g filter="url(#filter0_d_1230_10400)">
<mask id="path-4-inside-1_1230_10400" fill="white">
<path d="M64.8047 3546C134.043 3546 190.747 3599.66 195.595 3667.67C195.835 3671.03 193.111 3673.81 189.739 3673.81H-60.1296C-63.5016 3673.81 -66.2251 3671.03 -65.9854 3667.67C-61.1377 3599.66 -4.43388 3546 64.8047 3546Z"/>
</mask>
<path d="M64.8047 3546C134.043 3546 190.747 3599.66 195.595 3667.67C195.835 3671.03 193.111 3673.81 189.739 3673.81H-60.1296C-63.5016 3673.81 -66.2251 3671.03 -65.9854 3667.67C-61.1377 3599.66 -4.43388 3546 64.8047 3546Z" fill="#A2E59C"/>
<path d="M64.8047 3546V3550C131.929 3550 186.905 3602.03 191.605 3667.95L195.595 3667.67L199.585 3667.38C194.589 3597.3 136.157 3542 64.8047 3542V3546ZM189.739 3673.81V3669.81H-60.1296V3673.81V3677.81H189.739V3673.81ZM-65.9854 3667.67L-61.9955 3667.95C-57.296 3602.03 -2.32001 3550 64.8047 3550V3546V3542C-6.54774 3542 -64.9795 3597.3 -69.9752 3667.38L-65.9854 3667.67ZM-60.1296 3673.81V3669.81C-61.3038 3669.81 -62.0616 3668.88 -61.9955 3667.95L-65.9854 3667.67L-69.9752 3667.38C-70.3887 3673.18 -65.6994 3677.81 -60.1296 3677.81V3673.81ZM195.595 3667.67L191.605 3667.95C191.671 3668.88 190.913 3669.81 189.739 3669.81V3673.81V3677.81C195.309 3677.81 199.998 3673.18 199.585 3667.38L195.595 3667.67Z" fill="black" mask="url(#path-4-inside-1_1230_10400)"/>
</g>
<g filter="url(#filter1_d_1230_10400)">
<path d="M1521.8 1971.33C1521.98 1971.71 1522.18 1972.06 1522.43 1972.39C1532.74 1986.01 1552.82 2002.41 1580.21 2007.79C1607.99 2013.23 1645.19 2007.71 1689.77 1972.66L1689.83 1972.61L1689.89 1972.57C1706.01 1960.21 1719.43 1951.64 1730.66 1946.5C1741.59 1941.5 1752.28 1938.9 1761.97 1941.33C1772.69 1944 1778.84 1951.86 1782.1 1960.07C1785.18 1967.85 1786.22 1977.09 1786.59 1985.88C1786.96 1994.85 1786.67 2004.73 1786.41 2014.15C1786.15 2023.77 1785.93 2033.02 1786.34 2041.56C1786.74 2050.17 1787.76 2057.22 1789.59 2062.55C1791.39 2067.78 1793.6 2070.33 1795.8 2071.63C1800.94 2074.67 1807.54 2075.68 1816.37 2074.19C1825.35 2072.68 1835.7 2068.73 1847.21 2062.96C1858.65 2057.23 1870.56 2050.06 1882.69 2042.53C1894.63 2035.12 1906.95 2027.25 1918.48 2020.69C1929.95 2014.15 1941.6 2008.33 1952.46 2005.28C1963.16 2002.28 1975.53 2001.3 1986.3 2007.91C1997.16 2014.58 2002.78 2026.71 2005.27 2041.34C2007.59 2054.92 2007.57 2072.61 2005.25 2095.03C2004.9 2098.33 2001.92 2100.69 1998.62 2100.3L1984.93 2098.69C1981.64 2098.3 1979.29 2095.31 1979.63 2092.02C1981.8 2070.91 1981.6 2055.95 1979.85 2045.68C1977.92 2034.34 1974.53 2030.96 1972.82 2029.92C1971.04 2028.82 1967.3 2027.92 1959.42 2030.14C1951.69 2032.31 1942.27 2036.84 1931.23 2043.12C1920.26 2049.37 1908.64 2056.79 1896.27 2064.47C1884.09 2072.03 1871.32 2079.75 1858.75 2086.05C1846.25 2092.31 1833.27 2097.52 1820.65 2099.65C1807.9 2101.79 1794.63 2100.91 1782.7 2093.86C1773.5 2088.43 1768.25 2079.78 1765.21 2070.95C1762.21 2062.23 1761.03 2052.36 1760.58 2042.78C1760.12 2033.13 1760.38 2022.94 1760.64 2013.45C1760.9 2003.74 1761.16 1994.85 1760.83 1986.96C1760.49 1978.9 1759.57 1973.22 1758.13 1969.6C1756.87 1966.43 1755.94 1966.42 1755.73 1966.37C1754.49 1966.06 1750.39 1965.86 1741.38 1969.98C1732.67 1973.97 1720.99 1981.24 1705.57 1993.06C1656.19 2031.83 1611.58 2040.24 1575.25 2033.12C1539.47 2026.1 1513.58 2004.37 1500.43 1986.02L1500.05 1985.48C1499.83 1985.18 1499.64 1984.85 1499.48 1984.5L1479.51 1941.27C1478.13 1938.27 1479.44 1934.7 1482.44 1933.31L1494.96 1927.52C1497.97 1926.13 1501.53 1927.44 1502.92 1930.45L1521.8 1971.33Z" fill="#91A8EC"/>
<path d="M1495.8 1929.34C1497.8 1928.41 1500.18 1929.28 1501.11 1931.29L1519.99 1972.17C1520.22 1972.67 1520.5 1973.14 1520.84 1973.6C1531.39 1987.54 1551.87 2004.27 1579.82 2009.75C1608.27 2015.33 1646.05 2009.57 1691 1974.24L1691.04 1974.21L1691.11 1974.16L1691.11 1974.15C1707.18 1961.84 1720.46 1953.37 1731.49 1948.32C1742.28 1943.39 1752.45 1941.01 1761.49 1943.27C1771.39 1945.74 1777.13 1952.98 1780.24 1960.81C1783.2 1968.27 1784.23 1977.23 1784.59 1985.96C1784.96 1994.85 1784.67 2004.66 1784.41 2014.09C1784.15 2023.71 1783.93 2033.03 1784.34 2041.66C1784.75 2050.34 1785.78 2057.61 1787.7 2063.21C1789.6 2068.72 1792.04 2071.73 1794.79 2073.35C1800.45 2076.7 1807.56 2077.7 1816.71 2076.16C1825.96 2074.6 1836.52 2070.56 1848.1 2064.75C1859.63 2058.98 1871.61 2051.76 1883.74 2044.23C1895.72 2036.8 1907.98 2028.97 1919.47 2022.42C1930.9 2015.91 1942.38 2010.19 1953 2007.21C1963.48 2004.26 1975.18 2003.43 1985.26 2009.62C1995.4 2015.84 2000.85 2027.3 2003.3 2041.68C2005.57 2055 2005.58 2072.49 2003.26 2094.82C2003.03 2097 2001.06 2098.57 1998.86 2098.31V2098.31L1985.17 2096.7C1982.98 2096.44 1981.39 2094.45 1981.62 2092.22C1983.8 2071.03 1983.62 2055.87 1981.83 2045.34C1979.85 2033.74 1976.28 2029.69 1973.87 2028.21C1971.39 2026.69 1966.99 2025.93 1958.88 2028.21C1950.91 2030.45 1941.31 2035.08 1930.24 2041.38C1919.23 2047.66 1907.55 2055.12 1895.22 2062.77C1883.04 2070.33 1870.33 2078 1857.85 2084.26C1845.43 2090.48 1832.66 2095.6 1820.32 2097.67C1807.87 2099.77 1795.12 2098.88 1783.71 2092.14C1775.06 2087.03 1770.04 2078.86 1767.1 2070.3C1764.19 2061.84 1763.03 2052.19 1762.58 2042.69C1762.13 2033.13 1762.38 2023 1762.64 2013.5C1762.9 2003.82 1763.16 1994.85 1762.82 1986.88C1762.49 1978.76 1761.56 1972.81 1759.99 1968.87C1759.31 1967.16 1758.64 1966.07 1757.93 1965.38C1757.56 1965.02 1757.18 1964.77 1756.79 1964.61C1756.55 1964.51 1756.22 1964.43 1756.16 1964.42L1756.21 1964.43C1754.38 1963.97 1749.99 1963.97 1741.39 1967.78L1740.55 1968.16C1731.64 1972.24 1719.83 1979.61 1704.35 1991.47L1704.34 1991.48L1704.33 1991.49C1655.33 2029.96 1611.29 2038.15 1575.64 2031.15C1540.43 2024.25 1514.96 2002.86 1502.06 1984.85L1501.67 1984.32C1501.53 1984.11 1501.4 1983.89 1501.29 1983.67L1481.33 1940.44C1480.4 1938.43 1481.28 1936.06 1483.28 1935.13L1495.8 1929.34Z" stroke="black" stroke-width="4"/>
</g>
<g filter="url(#filter2_d_1230_10400)">
<path d="M327.633 2471.34C329.815 2472.11 331.364 2474.06 331.617 2476.35L333.008 2489.01C333.261 2491.3 332.169 2493.54 330.202 2494.76L280.846 2525.31C277.096 2527.64 272.206 2525.25 271.724 2520.87L270.428 2509.08C270.165 2506.69 271.357 2504.37 273.455 2503.2L304.049 2486.02C304.136 2485.97 304.186 2485.87 304.175 2485.77C304.164 2485.68 304.095 2485.59 303.999 2485.56L270.385 2475.37C268.086 2474.67 266.425 2472.67 266.162 2470.28L264.866 2458.5C264.384 2454.11 268.644 2450.72 272.811 2452.18L327.633 2471.34Z" fill="#FFD000"/>
<path d="M237.72 2481.23C239.902 2481.99 241.451 2483.94 241.704 2486.24L243.095 2498.89C243.348 2501.19 242.256 2503.43 240.289 2504.65L190.933 2535.2C187.183 2537.52 182.293 2535.14 181.811 2530.75L180.515 2518.97C180.252 2516.58 181.444 2514.26 183.542 2513.08L214.136 2495.91C214.223 2495.86 214.273 2495.76 214.262 2495.66C214.251 2495.56 214.182 2495.48 214.086 2495.45L180.471 2485.25C178.173 2484.56 176.511 2482.56 176.249 2480.17L174.953 2468.38C174.471 2464 178.731 2460.61 182.897 2462.07L237.72 2481.23Z" fill="#FFD000"/>
<path d="M147.807 2491.12C149.988 2491.88 151.538 2493.83 151.791 2496.12L153.182 2508.78C153.435 2511.08 152.343 2513.32 150.376 2514.53L101.02 2545.09C97.2694 2547.41 92.3799 2545.03 91.8979 2540.64L90.6021 2528.86C90.3391 2526.46 91.5305 2524.15 93.6288 2522.97L124.223 2505.79C124.31 2505.74 124.36 2505.65 124.349 2505.55C124.338 2505.45 124.269 2505.36 124.173 2505.34L90.5583 2495.14C88.2596 2494.44 86.5982 2492.44 86.3357 2490.05L85.0402 2478.27C84.5578 2473.88 88.8179 2470.49 92.9843 2471.95L147.807 2491.12Z" fill="#FFD000"/>
<path d="M87.0071 2477.78C86.8842 2474.99 89.6335 2472.9 92.3241 2473.84L147.146 2493C148.601 2493.51 149.634 2494.81 149.803 2496.34L151.194 2509C151.362 2510.53 150.634 2512.02 149.323 2512.83L99.9669 2543.39C97.4667 2544.93 94.2075 2543.35 93.8859 2540.42L92.5901 2528.64C92.4148 2527.04 93.2089 2525.5 94.6077 2524.71L125.202 2507.54C125.988 2507.09 126.435 2506.22 126.337 2505.33C126.238 2504.43 125.615 2503.68 124.753 2503.42L91.1389 2493.23C89.6064 2492.76 88.4988 2491.43 88.3237 2489.84L87.0282 2478.05L87.0071 2477.78ZM176.941 2468.17C176.62 2465.24 179.46 2462.98 182.237 2463.95L237.06 2483.12C238.514 2483.63 239.548 2484.93 239.716 2486.46L241.107 2499.11C241.276 2500.64 240.548 2502.14 239.236 2502.95L189.88 2533.5C187.38 2535.05 184.121 2533.46 183.799 2530.54L182.503 2518.75C182.328 2517.16 183.122 2515.61 184.521 2514.83L215.115 2497.65C215.902 2497.21 216.348 2496.34 216.25 2495.44C216.151 2494.55 215.528 2493.8 214.667 2493.54L181.052 2483.34C179.52 2482.87 178.412 2481.54 178.237 2479.95L176.941 2468.17ZM266.855 2458.28C266.533 2455.36 269.373 2453.1 272.15 2454.07L326.973 2473.23C328.427 2473.74 329.461 2475.04 329.629 2476.57L331.02 2489.22C331.189 2490.76 330.461 2492.25 329.149 2493.06L279.793 2523.61C277.293 2525.16 274.034 2523.57 273.712 2520.65L272.417 2508.87C272.241 2507.27 273.035 2505.72 274.434 2504.94L305.028 2487.76C305.815 2487.32 306.262 2486.45 306.163 2485.56C306.064 2484.66 305.442 2483.91 304.58 2483.65L270.965 2473.45C269.433 2472.99 268.325 2471.65 268.15 2470.06L266.855 2458.28Z" stroke="black" stroke-width="4"/>
</g>
<g filter="url(#filter3_d_1230_10400)">
<path d="M391.107 605.158C355.431 605.718 331.524 618.554 306.572 630.69C281.526 642.872 255.375 654.295 218.447 646.25C186.629 639.318 168.274 616.999 152.345 599.068C135.9 580.556 121.825 566.269 97.7032 564.495C83.4772 563.449 67.7702 567.607 51.6883 575.202C35.6846 582.761 20.0018 593.395 6.08423 604.393C-7.79927 615.365 -19.6982 626.517 -28.1346 634.94C-32.3457 639.145 -35.6769 642.652 -37.9425 645.093C-39.0747 646.313 -39.9397 647.266 -40.5141 647.906C-40.8013 648.225 -41.0159 648.466 -41.1547 648.623C-41.224 648.702 -41.2746 648.759 -41.3058 648.794C-41.3214 648.812 -41.3323 648.824 -41.3382 648.831C-41.3405 648.834 -41.3434 648.836 -41.3434 648.836C-41.3533 648.826 -41.6351 648.573 -49.048 641.987C-56.63 635.25 -56.751 635.139 -56.7509 635.135C-56.7509 635.135 -56.7475 635.131 -56.7453 635.128C-56.7409 635.123 -56.735 635.117 -56.7281 635.109C-56.7144 635.093 -56.6958 635.072 -56.6724 635.045C-56.6252 634.992 -56.5583 634.916 -56.4724 634.819C-56.3007 634.625 -56.0521 634.346 -55.73 633.987C-55.0857 633.271 -54.1461 632.236 -52.9343 630.93C-50.5111 628.318 -46.9953 624.618 -42.5744 620.204C-33.7466 611.39 -21.2397 599.662 -6.55719 588.059C8.09124 576.483 25.1349 564.848 43.0364 556.393C60.8598 547.975 80.2374 542.374 99.2934 543.775C132.41 546.21 151.385 566.797 167.697 585.159C184.526 604.103 198.635 620.66 222.879 625.942C252.689 632.436 273.415 623.798 297.707 611.983C322.091 600.123 349.981 585.028 390.883 584.386L391.107 605.158Z" fill="#FF91E8"/>
<path d="M390.602 604.667C355.073 605.34 331.175 618.167 306.353 630.24C281.325 642.413 255.307 653.768 218.553 645.761C186.921 638.869 168.669 616.691 152.719 598.736C136.278 580.228 122.082 565.786 97.7396 563.997C83.3952 562.942 67.5983 567.135 51.4744 574.75C35.4248 582.33 19.7095 592.989 5.77445 604.001C-8.12825 614.988 -20.0417 626.154 -28.4875 634.587C-32.7036 638.796 -36.0394 642.307 -38.3087 644.753C-39.4429 645.975 -40.3102 646.93 -40.8862 647.571C-41.0886 647.797 -41.2546 647.983 -41.3841 648.129C-41.5423 647.988 -41.7674 647.788 -42.0874 647.504C-43.0858 646.616 -45.0091 644.906 -48.7153 641.613C-52.5063 638.245 -54.4327 636.533 -55.4106 635.663C-55.6974 635.408 -55.9023 635.225 -56.0489 635.094C-55.881 634.905 -55.6494 634.646 -55.358 634.322C-54.7154 633.607 -53.7776 632.574 -52.5677 631.27C-50.1484 628.663 -46.6372 624.967 -42.2215 620.558C-33.403 611.754 -20.91 600.038 -6.24673 588.451C8.38396 576.889 25.3944 565.278 43.2496 556.845C61.0308 548.447 80.3189 542.882 99.2563 544.274C132.152 546.692 151.008 567.125 167.324 585.492C184.129 604.409 198.342 621.108 222.773 626.43C252.758 632.962 273.617 624.256 297.925 612.433C322.223 600.615 349.887 585.651 390.388 584.896L390.602 604.667ZM-56.3614 635.449L-56.363 635.451C-56.3636 635.452 -56.3666 635.453 -56.3691 635.456L-56.3684 635.457L-56.3681 635.456C-56.3673 635.455 -56.3658 635.454 -56.3642 635.452L-56.3614 635.449Z" stroke="black"/>
</g>
<rect x="1810" y="2741.24" width="140.482" height="140.482" fill="#FF914D"/>
<rect x="1822.52" y="2728" width="144.482" height="144.482" fill="#FF914D" stroke="black" stroke-width="4"/>
<g filter="url(#filter4_d_1230_10400)">
<path d="M1789.75 108.853C1789.51 108.199 1786.75 98.4605 1783.63 87.211L1777.96 66.7573L1756.4 60.8296C1744.54 57.5693 1734.91 54.7834 1735 54.6387C1735.09 54.4939 1744.79 51.7181 1756.56 48.4701L1777.96 42.5647L1783.88 21.2824C1787.14 9.57706 1789.94 0 1790.11 0C1790.28 0 1793.08 9.57706 1796.34 21.2824L1802.26 42.5647L1823.63 48.4619C1835.38 51.7053 1845 54.4964 1845 54.6642C1845 54.832 1835.38 57.6232 1823.63 60.8668L1802.26 66.7643L1796.23 88.4028C1791.26 106.234 1790.12 109.832 1789.75 108.853Z" fill="#ADDFFF"/>
<path d="M1790.22 1.82812C1790.55 2.90461 1791.02 4.4648 1791.58 6.39258C1792.71 10.2472 1794.23 15.5651 1795.86 21.416L1801.78 42.6992L1801.85 42.9717L1802.13 43.0469L1823.5 48.9443C1829.37 50.5656 1834.71 52.0729 1838.58 53.1963C1840.52 53.7581 1842.09 54.223 1843.17 54.5576C1843.28 54.5943 1843.4 54.6307 1843.5 54.6641C1843.4 54.6975 1843.28 54.7338 1843.17 54.7705C1842.09 55.1051 1840.52 55.57 1838.58 56.1318C1834.71 57.2553 1829.37 58.7634 1823.5 60.3848L1802.12 66.2822L1801.85 66.3574L1801.78 66.6299L1795.75 88.2686C1793.26 97.187 1791.74 102.535 1790.79 105.531C1790.44 106.621 1790.18 107.382 1789.98 107.886C1789.66 106.798 1789.05 104.685 1788.25 101.869C1787.14 97.9475 1785.67 92.7012 1784.11 87.0771L1778.44 66.624L1778.36 66.3506L1778.09 66.2754L1756.53 60.3477C1750.6 58.7179 1745.24 57.2072 1741.36 56.0859C1739.42 55.5252 1737.86 55.0616 1736.79 54.7305C1736.7 54.7049 1736.63 54.6792 1736.55 54.6553C1736.66 54.6222 1736.77 54.5862 1736.89 54.5498C1738 54.2194 1739.58 53.758 1741.54 53.1992C1745.44 52.0817 1750.81 50.5758 1756.69 48.9521L1778.09 43.0469L1778.37 42.9717L1778.44 42.6992L1784.36 21.416C1785.99 15.5651 1787.51 10.2472 1788.63 6.39258C1789.2 4.4648 1789.66 2.90461 1790 1.82812C1790.04 1.70671 1790.07 1.59195 1790.11 1.4834C1790.14 1.59195 1790.18 1.70671 1790.22 1.82812Z" stroke="black"/>
</g>
<g filter="url(#filter5_d_1230_10400)">
<path d="M196.294 1397.56C198.09 1392.03 205.91 1392.03 207.706 1397.56L222.206 1442.19C223.01 1444.66 225.313 1446.33 227.913 1446.33H274.835C280.648 1446.33 283.064 1453.77 278.362 1457.19L240.401 1484.77C238.298 1486.3 237.418 1489.01 238.221 1491.48L252.721 1536.1C254.517 1541.63 248.19 1546.23 243.488 1542.81L205.527 1515.23C203.424 1513.7 200.576 1513.7 198.473 1515.23L160.512 1542.81C155.81 1546.23 149.483 1541.63 151.279 1536.1L165.779 1491.48C166.582 1489.01 165.702 1486.3 163.599 1484.77L125.638 1457.19C120.936 1453.77 123.352 1446.33 129.165 1446.33H176.087C178.687 1446.33 180.99 1444.66 181.794 1442.19L196.294 1397.56Z" fill="#FFA764"/>
<path d="M198.195 1398.18C199.393 1394.5 204.607 1394.5 205.805 1398.18L220.304 1442.81C221.375 1446.1 224.447 1448.33 227.913 1448.33H274.835C278.71 1448.33 280.321 1453.29 277.187 1455.57L239.226 1483.15C236.422 1485.19 235.249 1488.8 236.319 1492.09L250.819 1536.72C252.016 1540.41 247.798 1543.47 244.663 1541.19L206.702 1513.61C203.898 1511.58 200.102 1511.58 197.298 1513.61L159.337 1541.19C156.202 1543.47 151.984 1540.41 153.181 1536.72L167.681 1492.09C168.751 1488.8 167.578 1485.19 164.774 1483.15L126.813 1455.57C123.679 1453.29 125.29 1448.33 129.165 1448.33H176.088C179.554 1448.33 182.625 1446.1 183.696 1442.81L198.195 1398.18Z" stroke="black" stroke-width="4"/>
</g>
<defs>
<filter id="filter0_d_1230_10400" x="-66" y="3546" width="265.609" height="131.813" filterUnits="userSpaceOnUse" color-interpolation-filters="sRGB">
<feFlood flood-opacity="0" result="BackgroundImageFix"/>
<feColorMatrix in="SourceAlpha" type="matrix" values="0 0 0 0 0 0 0 0 0 0 0 0 0 0 0 0 0 0 127 0" result="hardAlpha"/>
<feOffset dx="4" dy="4"/>
<feComposite in2="hardAlpha" operator="out"/>
<feColorMatrix type="matrix" values="0 0 0 0 0 0 0 0 0 0 0 0 0 0 0 0 0 0 1 0"/>
<feBlend mode="normal" in2="BackgroundImageFix" result="effect1_dropShadow_1230_10400"/>
<feBlend mode="normal" in="SourceGraphic" in2="effect1_dropShadow_1230_10400" result="shape"/>
</filter>
<filter id="filter1_d_1230_10400" x="1478.96" y="1926.97" width="532.041" height="177.71" filterUnits="userSpaceOnUse" color-interpolation-filters="sRGB">
<feFlood flood-opacity="0" result="BackgroundImageFix"/>
<feColorMatrix in="SourceAlpha" type="matrix" values="0 0 0 0 0 0 0 0 0 0 0 0 0 0 0 0 0 0 127 0" result="hardAlpha"/>
<feOffset dx="4" dy="4"/>
<feComposite in2="hardAlpha" operator="out"/>
<feColorMatrix type="matrix" values="0 0 0 0 0 0 0 0 0 0 0 0 0 0 0 0 0 0 1 0"/>
<feBlend mode="normal" in2="BackgroundImageFix" result="effect1_dropShadow_1230_10400"/>
<feBlend mode="normal" in="SourceGraphic" in2="effect1_dropShadow_1230_10400" result="shape"/>
</filter>
<filter id="filter2_d_1230_10400" x="85.002" y="2451.84" width="252.043" height="98.1553" filterUnits="userSpaceOnUse" color-interpolation-filters="sRGB">
<feFlood flood-opacity="0" result="BackgroundImageFix"/>
<feColorMatrix in="SourceAlpha" type="matrix" values="0 0 0 0 0 0 0 0 0 0 0 0 0 0 0 0 0 0 127 0" result="hardAlpha"/>
<feOffset dx="4" dy="4"/>
<feComposite in2="hardAlpha" operator="out"/>
<feColorMatrix type="matrix" values="0 0 0 0 0 0 0 0 0 0 0 0 0 0 0 0 0 0 1 0"/>
<feBlend mode="normal" in2="BackgroundImageFix" result="effect1_dropShadow_1230_10400"/>
<feBlend mode="normal" in="SourceGraphic" in2="effect1_dropShadow_1230_10400" result="shape"/>
</filter>
<filter id="filter3_d_1230_10400" x="-56.75" y="543.561" width="455.857" height="113.379" filterUnits="userSpaceOnUse" color-interpolation-filters="sRGB">
<feFlood flood-opacity="0" result="BackgroundImageFix"/>
<feColorMatrix in="SourceAlpha" type="matrix" values="0 0 0 0 0 0 0 0 0 0 0 0 0 0 0 0 0 0 127 0" result="hardAlpha"/>
<feOffset dx="8" dy="8"/>
<feComposite in2="hardAlpha" operator="out"/>
<feColorMatrix type="matrix" values="0 0 0 0 0 0 0 0 0 0 0 0 0 0 0 0 0 0 1 0"/>
<feBlend mode="normal" in2="BackgroundImageFix" result="effect1_dropShadow_1230_10400"/>
<feBlend mode="normal" in="SourceGraphic" in2="effect1_dropShadow_1230_10400" result="shape"/>
</filter>
<filter id="filter4_d_1230_10400" x="1735" y="0" width="118" height="117" filterUnits="userSpaceOnUse" color-interpolation-filters="sRGB">
<feFlood flood-opacity="0" result="BackgroundImageFix"/>
<feColorMatrix in="SourceAlpha" type="matrix" values="0 0 0 0 0 0 0 0 0 0 0 0 0 0 0 0 0 0 127 0" result="hardAlpha"/>
<feOffset dx="8" dy="8"/>
<feComposite in2="hardAlpha" operator="out"/>
<feColorMatrix type="matrix" values="0 0 0 0 0 0 0 0 0 0 0 0 0 0 0 0 0 0 1 0"/>
<feBlend mode="normal" in2="BackgroundImageFix" result="effect1_dropShadow_1230_10400"/>
<feBlend mode="normal" in="SourceGraphic" in2="effect1_dropShadow_1230_10400" result="shape"/>
</filter>
<filter id="filter5_d_1230_10400" x="123.152" y="1393.42" width="161.695" height="154.568" filterUnits="userSpaceOnUse" color-interpolation-filters="sRGB">
<feFlood flood-opacity="0" result="BackgroundImageFix"/>
<feColorMatrix in="SourceAlpha" type="matrix" values="0 0 0 0 0 0 0 0 0 0 0 0 0 0 0 0 0 0 127 0" result="hardAlpha"/>
<feOffset dx="4" dy="4"/>
<feComposite in2="hardAlpha" operator="out"/>
<feColorMatrix type="matrix" values="0 0 0 0 0 0 0 0 0 0 0 0 0 0 0 0 0 0 1 0"/>
<feBlend mode="normal" in2="BackgroundImageFix" result="effect1_dropShadow_1230_10400"/>
<feBlend mode="normal" in="SourceGraphic" in2="effect1_dropShadow_1230_10400" result="shape"/>
</filter>
</defs>
</svg>
