<svg width="1920" height="843" viewBox="0 0 1920 843" fill="none" xmlns="http://www.w3.org/2000/svg">
<g filter="url(#filter0_d_1148_5535)">
<circle cx="152" cy="55" r="55" fill="#FF6D4D"/>
<circle cx="152" cy="55" r="53" stroke="black" stroke-width="4"/>
</g>
<path d="M49.0117 636.977L72.1392 708.156H146.982L86.4329 752.147L109.56 823.326L49.0117 779.335L-11.5371 823.326L11.5905 752.147L-48.9583 708.156H25.8841L49.0117 636.977Z" fill="#4FD3C6"/>
<path d="M64.4238 625.382L87.1016 695.18H166.646L161.667 698.797L102.293 741.935L124.973 811.731L126.874 817.586L121.895 813.968L62.5215 770.83L3.14844 813.968L-1.83105 817.586L0.0703125 811.731L22.749 741.935L-36.624 698.797L-41.6035 695.18H37.9414L60.6191 625.382L62.5215 619.528L64.4238 625.382Z" stroke="black" stroke-width="4"/>
<g filter="url(#filter1_d_1148_5535)">
<rect x="1630" y="697" width="122" height="122" fill="#EEAF27"/>
<rect x="1632" y="699" width="118" height="118" stroke="black" stroke-width="4"/>
</g>
<g filter="url(#filter2_d_1148_5535)">
<path d="M1969 72.053C1939.73 79.4433 1922.53 94.652 1904.34 109.488C1886.09 124.379 1866.77 138.86 1834.79 139.411C1807.24 139.886 1787.79 125.081 1771.19 113.416C1754.05 101.374 1739.68 92.3483 1719.47 95.5739C1707.55 97.4763 1695.42 103.949 1683.66 113.324C1671.95 122.654 1661.1 134.453 1651.77 146.208C1642.47 157.935 1634.84 169.426 1629.53 177.997C1626.88 182.276 1624.82 185.809 1623.42 188.259C1622.73 189.483 1622.2 190.435 1621.85 191.073C1621.68 191.392 1621.55 191.632 1621.47 191.788C1621.42 191.866 1621.39 191.923 1621.37 191.958C1621.36 191.976 1621.36 191.988 1621.35 191.995C1621.35 191.998 1621.35 191.999 1621.35 192C1621.34 191.993 1621.06 191.84 1613.68 187.859C1606.12 183.787 1606 183.719 1606 183.716C1606 183.715 1606 183.712 1606 183.709C1606.01 183.704 1606.01 183.698 1606.01 183.69C1606.02 183.674 1606.03 183.653 1606.05 183.627C1606.08 183.573 1606.12 183.498 1606.17 183.401C1606.27 183.209 1606.42 182.93 1606.62 182.573C1607.01 181.858 1607.58 180.823 1608.33 179.513C1609.81 176.893 1611.99 173.165 1614.77 168.673C1620.33 159.704 1628.35 147.621 1638.19 135.219C1648 122.846 1659.78 109.959 1672.88 99.5234C1685.92 89.1329 1700.79 80.7593 1716.75 78.2111C1744.5 73.7827 1764.13 87.0412 1781.13 98.9866C1798.67 111.31 1813.51 122.197 1834.5 121.836C1860.31 121.391 1875.7 110.255 1893.41 95.8126C1911.18 81.3146 1931.22 63.4729 1964.78 55L1969 72.053Z" fill="#9747FF"/>
<path d="M1968.4 71.6924C1939.29 79.1588 1922.11 94.3565 1904.03 109.101C1885.79 123.979 1866.58 138.363 1834.79 138.911C1807.43 139.383 1788.1 124.69 1771.48 113.007C1754.34 100.968 1739.82 91.8195 1719.39 95.0801C1707.35 97.0012 1695.15 103.528 1683.34 112.933C1671.59 122.294 1660.72 134.124 1651.38 145.897C1642.06 157.644 1634.42 169.151 1629.1 177.733C1626.45 182.018 1624.38 185.557 1622.99 188.012C1622.29 189.238 1621.77 190.193 1621.42 190.833C1621.31 191.025 1621.22 191.188 1621.15 191.322C1621 191.24 1620.79 191.129 1620.52 190.98C1619.52 190.444 1617.6 189.41 1613.91 187.419C1610.14 185.383 1608.22 184.349 1607.24 183.822C1607 183.691 1606.81 183.59 1606.67 183.515C1606.77 183.334 1606.9 183.099 1607.06 182.812C1607.45 182.099 1608.02 181.067 1608.76 179.76C1610.25 177.145 1612.42 173.422 1615.2 168.937C1620.75 159.979 1628.76 147.913 1638.58 135.53C1648.38 123.175 1660.13 110.318 1673.19 99.9141C1686.19 89.5527 1700.98 81.2347 1716.83 78.7051C1744.36 74.3115 1763.83 87.4472 1780.84 99.3955C1798.35 111.699 1813.32 122.7 1834.51 122.335C1860.5 121.887 1876 110.655 1893.72 96.2002C1911.43 81.7633 1931.27 64.1009 1964.41 55.6104L1968.4 71.6924ZM1606.45 183.943C1606.45 183.941 1606.45 183.94 1606.45 183.938C1606.45 183.936 1606.45 183.933 1606.45 183.93L1606.45 183.943Z" stroke="black"/>
</g>
<g filter="url(#filter3_d_1148_5535)">
<path d="M677.189 357.814C676.88 356.986 673.398 344.656 669.453 330.414L662.28 304.518L635.04 297.014C620.058 292.886 607.89 289.359 608.001 289.176C608.111 288.992 620.37 285.478 635.243 281.366L662.286 273.889L669.768 246.945C673.884 232.125 677.425 220 677.638 220C677.851 220 681.393 232.125 685.508 246.945L692.991 273.889L719.995 281.355C734.848 285.462 747 288.995 747 289.208C747 289.42 734.847 292.954 719.994 297.061L692.988 304.527L685.37 331.923C679.093 354.499 677.653 359.054 677.189 357.814Z" fill="#FFDED0"/>
<path d="M677.901 222.274C678.326 223.638 678.917 225.614 679.63 228.055C681.055 232.936 682.969 239.67 685.026 247.078L692.509 274.023L692.585 274.296L692.857 274.371L719.862 281.837C727.287 283.89 734.036 285.799 738.928 287.222C741.374 287.933 743.354 288.522 744.721 288.946C745.029 289.042 745.306 289.13 745.549 289.208C745.306 289.286 745.029 289.374 744.721 289.47C743.354 289.894 741.374 290.483 738.928 291.194C734.036 292.617 727.286 294.526 719.86 296.579L692.854 304.045L692.582 304.121L692.506 304.394L684.889 331.789C681.749 343.079 679.822 349.853 678.623 353.648C678.102 355.298 677.725 356.361 677.452 356.984C677.08 355.744 676.266 352.904 675.166 349.009C673.764 344.044 671.907 337.401 669.935 330.28L662.762 304.385L662.686 304.111L662.412 304.036L635.173 296.531C627.683 294.468 620.898 292.555 616 291.135C613.551 290.425 611.575 289.839 610.22 289.42C609.956 289.338 609.717 289.262 609.503 289.193C609.754 289.116 610.039 289.031 610.356 288.936C611.751 288.517 613.756 287.932 616.224 287.225C621.159 285.81 627.941 283.903 635.377 281.848L662.419 274.371L662.691 274.296L662.768 274.023L670.25 247.078C672.307 239.67 674.221 232.936 675.646 228.055C676.359 225.614 676.95 223.638 677.375 222.274C677.472 221.964 677.559 221.687 677.638 221.443C677.716 221.687 677.805 221.964 677.901 222.274Z" stroke="black"/>
</g>
<defs>
<filter id="filter0_d_1148_5535" x="97" y="0" width="118" height="118" filterUnits="userSpaceOnUse" color-interpolation-filters="sRGB">
<feFlood flood-opacity="0" result="BackgroundImageFix"/>
<feColorMatrix in="SourceAlpha" type="matrix" values="0 0 0 0 0 0 0 0 0 0 0 0 0 0 0 0 0 0 127 0" result="hardAlpha"/>
<feOffset dx="8" dy="8"/>
<feComposite in2="hardAlpha" operator="out"/>
<feColorMatrix type="matrix" values="0 0 0 0 0 0 0 0 0 0 0 0 0 0 0 0 0 0 1 0"/>
<feBlend mode="normal" in2="BackgroundImageFix" result="effect1_dropShadow_1148_5535"/>
<feBlend mode="normal" in="SourceGraphic" in2="effect1_dropShadow_1148_5535" result="shape"/>
</filter>
<filter id="filter1_d_1148_5535" x="1630" y="697" width="132" height="130" filterUnits="userSpaceOnUse" color-interpolation-filters="sRGB">
<feFlood flood-opacity="0" result="BackgroundImageFix"/>
<feColorMatrix in="SourceAlpha" type="matrix" values="0 0 0 0 0 0 0 0 0 0 0 0 0 0 0 0 0 0 127 0" result="hardAlpha"/>
<feOffset dx="10" dy="8"/>
<feComposite in2="hardAlpha" operator="out"/>
<feColorMatrix type="matrix" values="0 0 0 0 0 0 0 0 0 0 0 0 0 0 0 0 0 0 1 0"/>
<feBlend mode="normal" in2="BackgroundImageFix" result="effect1_dropShadow_1148_5535"/>
<feBlend mode="normal" in="SourceGraphic" in2="effect1_dropShadow_1148_5535" result="shape"/>
</filter>
<filter id="filter2_d_1148_5535" x="1606" y="55" width="371" height="145" filterUnits="userSpaceOnUse" color-interpolation-filters="sRGB">
<feFlood flood-opacity="0" result="BackgroundImageFix"/>
<feColorMatrix in="SourceAlpha" type="matrix" values="0 0 0 0 0 0 0 0 0 0 0 0 0 0 0 0 0 0 127 0" result="hardAlpha"/>
<feOffset dx="8" dy="8"/>
<feComposite in2="hardAlpha" operator="out"/>
<feColorMatrix type="matrix" values="0 0 0 0 0 0 0 0 0 0 0 0 0 0 0 0 0 0 1 0"/>
<feBlend mode="normal" in2="BackgroundImageFix" result="effect1_dropShadow_1148_5535"/>
<feBlend mode="normal" in="SourceGraphic" in2="effect1_dropShadow_1148_5535" result="shape"/>
</filter>
<filter id="filter3_d_1148_5535" x="608" y="220" width="147" height="146" filterUnits="userSpaceOnUse" color-interpolation-filters="sRGB">
<feFlood flood-opacity="0" result="BackgroundImageFix"/>
<feColorMatrix in="SourceAlpha" type="matrix" values="0 0 0 0 0 0 0 0 0 0 0 0 0 0 0 0 0 0 127 0" result="hardAlpha"/>
<feOffset dx="8" dy="8"/>
<feComposite in2="hardAlpha" operator="out"/>
<feColorMatrix type="matrix" values="0 0 0 0 0 0 0 0 0 0 0 0 0 0 0 0 0 0 1 0"/>
<feBlend mode="normal" in2="BackgroundImageFix" result="effect1_dropShadow_1148_5535"/>
<feBlend mode="normal" in="SourceGraphic" in2="effect1_dropShadow_1148_5535" result="shape"/>
</filter>
</defs>
</svg>
