<svg width="2070" height="1537" viewBox="0 0 2070 1537" fill="none" xmlns="http://www.w3.org/2000/svg">
<g filter="url(#filter0_d_1942_4935)">
<circle cx="202" cy="55" r="55" fill="#FF6D4D"/>
<circle cx="202" cy="55" r="53" stroke="black" stroke-width="4"/>
</g>
<path d="M1951.98 751.03L1966.8 796.624H2014.74L1975.95 824.803L1990.77 870.397L1951.98 842.219L1913.2 870.397L1928.01 824.803L1889.23 796.624H1937.17L1951.98 751.03Z" fill="#4FD3C6"/>
<path d="M1962.54 743.381L1976.91 787.593H2029.55L2024.57 791.211L1986.96 818.535L2001.33 862.748L2003.23 868.603L1998.25 864.984L1960.64 837.659L1923.03 864.984L1918.05 868.603L1919.95 862.748L1934.32 818.535L1896.71 791.211L1891.73 787.593H1944.37L1958.74 743.381L1960.64 737.527L1962.54 743.381Z" stroke="black" stroke-width="4"/>
<g filter="url(#filter1_d_1942_4935)">
<path d="M1856.31 1480.58L1876.39 1455.68L1793.08 1388.5L1835.5 1335.9L1918.81 1403.09L1938.89 1378.19L1967.03 1485.38L1856.31 1480.58Z" fill="#FFE262"/>
<path d="M1860.36 1478.76L1879.21 1455.38L1795.89 1388.19L1835.8 1338.71L1919.11 1405.9L1937.96 1382.52L1964.41 1483.26L1860.36 1478.76Z" stroke="black" stroke-width="4"/>
</g>
<g filter="url(#filter2_d_1942_4935)">
<path d="M104.323 1021L194.669 1177.48H13.9766L104.323 1021Z" fill="#9747FF"/>
<path d="M191.205 1175.48H17.4414L104.322 1025L191.205 1175.48Z" stroke="black" stroke-width="4"/>
</g>
<circle cx="1963.17" cy="141.833" r="84.1667" fill="#FFF5CC"/>
<circle cx="1983.17" cy="130.166" r="85.1667" stroke="black" stroke-width="2"/>
<circle cx="1982.75" cy="130.582" r="45.5833" stroke="black" stroke-width="2"/>
<g filter="url(#filter3_d_1942_4935)">
<path d="M216.189 488.813C215.88 487.985 212.398 475.655 208.453 461.413L201.28 435.517L174.04 428.013C159.058 423.885 146.89 420.358 147.001 420.175C147.111 419.991 159.37 416.477 174.243 412.365L201.286 404.888L208.768 377.944C212.884 363.124 216.425 350.999 216.638 350.999C216.851 350.999 220.393 363.124 224.508 377.944L231.991 404.888L258.995 412.354C273.848 416.461 286 419.994 286 420.207C286 420.419 273.847 423.953 258.994 428.06L231.988 435.526L224.37 462.922C218.093 485.498 216.653 490.053 216.189 488.813Z" fill="#FFDED0"/>
<path d="M216.901 353.273C217.326 354.637 217.917 356.613 218.63 359.054C220.055 363.935 221.969 370.669 224.026 378.077L231.509 405.022L231.585 405.295L231.857 405.37L258.862 412.836C266.287 414.889 273.036 416.798 277.928 418.221C280.374 418.932 282.354 419.521 283.721 419.945C284.029 420.041 284.306 420.129 284.549 420.207C284.306 420.285 284.029 420.373 283.721 420.469C282.354 420.893 280.374 421.482 277.928 422.193C273.036 423.616 266.286 425.525 258.86 427.578L231.854 435.044L231.582 435.12L231.506 435.393L223.889 462.788C220.749 474.078 218.822 480.852 217.623 484.647C217.102 486.297 216.725 487.36 216.452 487.983C216.08 486.743 215.266 483.903 214.166 480.008C212.764 475.043 210.907 468.4 208.935 461.279L201.762 435.384L201.686 435.11L201.412 435.035L174.173 427.53C166.683 425.467 159.898 423.554 155 422.134C152.551 421.424 150.575 420.839 149.22 420.419C148.956 420.337 148.717 420.261 148.503 420.192C148.754 420.115 149.039 420.03 149.356 419.935C150.751 419.516 152.756 418.931 155.224 418.224C160.159 416.809 166.941 414.902 174.377 412.847L201.419 405.37L201.691 405.295L201.768 405.022L209.25 378.077C211.307 370.669 213.221 363.935 214.646 359.054C215.359 356.613 215.95 354.637 216.375 353.273C216.472 352.963 216.559 352.686 216.638 352.442C216.716 352.686 216.805 352.963 216.901 353.273Z" stroke="black"/>
</g>
<defs>
<filter id="filter0_d_1942_4935" x="147" y="0" width="118" height="118" filterUnits="userSpaceOnUse" color-interpolation-filters="sRGB">
<feFlood flood-opacity="0" result="BackgroundImageFix"/>
<feColorMatrix in="SourceAlpha" type="matrix" values="0 0 0 0 0 0 0 0 0 0 0 0 0 0 0 0 0 0 127 0" result="hardAlpha"/>
<feOffset dx="8" dy="8"/>
<feComposite in2="hardAlpha" operator="out"/>
<feColorMatrix type="matrix" values="0 0 0 0 0 0 0 0 0 0 0 0 0 0 0 0 0 0 1 0"/>
<feBlend mode="normal" in2="BackgroundImageFix" result="effect1_dropShadow_1942_4935"/>
<feBlend mode="normal" in="SourceGraphic" in2="effect1_dropShadow_1942_4935" result="shape"/>
</filter>
<filter id="filter1_d_1942_4935" x="1793.08" y="1335.9" width="181.949" height="157.477" filterUnits="userSpaceOnUse" color-interpolation-filters="sRGB">
<feFlood flood-opacity="0" result="BackgroundImageFix"/>
<feColorMatrix in="SourceAlpha" type="matrix" values="0 0 0 0 0 0 0 0 0 0 0 0 0 0 0 0 0 0 127 0" result="hardAlpha"/>
<feOffset dx="8" dy="8"/>
<feComposite in2="hardAlpha" operator="out"/>
<feColorMatrix type="matrix" values="0 0 0 0 0 0 0 0 0 0 0 0 0 0 0 0 0 0 1 0"/>
<feBlend mode="normal" in2="BackgroundImageFix" result="effect1_dropShadow_1942_4935"/>
<feBlend mode="normal" in="SourceGraphic" in2="effect1_dropShadow_1942_4935" result="shape"/>
</filter>
<filter id="filter2_d_1942_4935" x="13.9766" y="1021" width="188.692" height="164.484" filterUnits="userSpaceOnUse" color-interpolation-filters="sRGB">
<feFlood flood-opacity="0" result="BackgroundImageFix"/>
<feColorMatrix in="SourceAlpha" type="matrix" values="0 0 0 0 0 0 0 0 0 0 0 0 0 0 0 0 0 0 127 0" result="hardAlpha"/>
<feOffset dx="8" dy="8"/>
<feComposite in2="hardAlpha" operator="out"/>
<feColorMatrix type="matrix" values="0 0 0 0 0 0 0 0 0 0 0 0 0 0 0 0 0 0 1 0"/>
<feBlend mode="normal" in2="BackgroundImageFix" result="effect1_dropShadow_1942_4935"/>
<feBlend mode="normal" in="SourceGraphic" in2="effect1_dropShadow_1942_4935" result="shape"/>
</filter>
<filter id="filter3_d_1942_4935" x="147" y="350.999" width="147" height="146" filterUnits="userSpaceOnUse" color-interpolation-filters="sRGB">
<feFlood flood-opacity="0" result="BackgroundImageFix"/>
<feColorMatrix in="SourceAlpha" type="matrix" values="0 0 0 0 0 0 0 0 0 0 0 0 0 0 0 0 0 0 127 0" result="hardAlpha"/>
<feOffset dx="8" dy="8"/>
<feComposite in2="hardAlpha" operator="out"/>
<feColorMatrix type="matrix" values="0 0 0 0 0 0 0 0 0 0 0 0 0 0 0 0 0 0 1 0"/>
<feBlend mode="normal" in2="BackgroundImageFix" result="effect1_dropShadow_1942_4935"/>
<feBlend mode="normal" in="SourceGraphic" in2="effect1_dropShadow_1942_4935" result="shape"/>
</filter>
</defs>
</svg>
