<svg width="760" height="855" viewBox="0 0 760 855" fill="none" xmlns="http://www.w3.org/2000/svg">
<mask id="path-1-outside-1_425_61" maskUnits="userSpaceOnUse" x="-11.6263" y="-15.2913" width="779.428" height="877.637" fill="black">
<rect fill="white" x="-11.6263" y="-15.2913" width="779.428" height="877.637"/>
<path d="M725.781 568.92L725.118 569.271C728.193 571.035 730.499 573.29 731.962 576.055C747.312 605.062 664.202 679.144 546.33 741.52C428.458 803.896 320.46 830.947 305.109 801.94C303.645 799.175 303.078 796 303.349 792.465L302.687 792.816L214.12 113.745L725.781 568.92Z"/>
</mask>
<path d="M725.781 568.92L725.118 569.271C728.193 571.035 730.499 573.29 731.962 576.055C747.312 605.062 664.202 679.144 546.33 741.52C428.458 803.896 320.46 830.947 305.109 801.94C303.645 799.175 303.078 796 303.349 792.465L302.687 792.816L214.12 113.745L725.781 568.92Z" fill="#FFF5CC"/>
<path d="M725.781 568.92L728.119 573.339L734.485 569.971L729.104 565.184L725.781 568.92ZM725.118 569.271L722.779 564.851L714.762 569.094L722.63 573.608L725.118 569.271ZM731.962 576.055L736.381 573.716L736.381 573.716L731.962 576.055ZM546.33 741.52L548.669 745.939L546.33 741.52ZM305.109 801.94L300.689 804.278L300.689 804.279L305.109 801.94ZM303.349 792.465L308.334 792.847L309.027 783.804L301.01 788.046L303.349 792.465ZM302.687 792.816L297.729 793.462L298.66 800.604L305.025 797.235L302.687 792.816ZM214.12 113.745L217.443 110.009L207.428 101.1L209.162 114.392L214.12 113.745ZM725.781 568.92L723.442 564.501L722.779 564.851L725.118 569.271L727.457 573.69L728.119 573.339L725.781 568.92ZM725.118 569.271L722.63 573.608C725.03 574.985 726.593 576.6 727.542 578.393L731.962 576.055L736.381 573.716C734.404 569.979 731.356 567.085 727.606 564.934L725.118 569.271ZM731.962 576.055L727.542 578.393C730.024 583.084 729.097 590.961 721.764 602.731C714.651 614.15 702.413 627.713 685.777 642.542C652.564 672.147 602.679 706.044 543.991 737.101L546.33 741.52L548.669 745.939C607.853 714.62 658.459 680.288 692.431 650.007C709.387 634.892 722.416 620.597 730.252 608.018C737.869 595.791 741.574 583.529 736.381 573.716L731.962 576.055ZM546.33 741.52L543.991 737.101C485.304 768.157 429.218 790.338 386.059 801.149C364.441 806.563 346.344 809.053 332.901 808.512C319.045 807.955 312.01 804.292 309.528 799.601L305.109 801.94L300.689 804.279C305.883 814.092 318.104 817.925 332.499 818.504C347.307 819.1 366.455 816.368 388.489 810.849C432.635 799.792 489.484 777.259 548.669 745.939L546.33 741.52ZM305.109 801.94L309.528 799.601C308.579 797.808 308.123 795.607 308.334 792.847L303.349 792.465L298.363 792.084C298.033 796.394 298.712 800.542 300.689 804.278L305.109 801.94ZM303.349 792.465L301.01 788.046L300.348 788.396L302.687 792.816L305.025 797.235L305.687 796.885L303.349 792.465ZM302.687 792.816L307.645 792.169L219.078 113.099L214.12 113.745L209.162 114.392L297.729 793.462L302.687 792.816ZM214.12 113.745L210.797 117.481L722.458 572.656L725.781 568.92L729.104 565.184L217.443 110.009L214.12 113.745Z" fill="black" mask="url(#path-1-outside-1_425_61)"/>
<mask id="path-3-outside-2_425_61" maskUnits="userSpaceOnUse" x="268.71" y="514.458" width="499.256" height="348.198" fill="black">
<rect fill="white" x="268.71" y="514.458" width="499.256" height="348.198"/>
<path d="M725.984 569.304L725.322 569.655C728.397 571.419 730.702 573.674 732.165 576.438C747.514 605.446 664.404 679.528 546.533 741.904C428.661 804.28 320.663 831.33 305.312 802.323C303.849 799.559 303.281 796.385 303.551 792.85L302.89 793.2L296.026 740.581C338.959 741.412 420.64 714.614 507.709 668.538C594.778 622.463 662.876 569.999 686.337 534.034L725.984 569.304Z"/>
</mask>
<path d="M725.984 569.304L725.322 569.655C728.397 571.419 730.702 573.674 732.165 576.438C747.514 605.446 664.404 679.528 546.533 741.904C428.661 804.28 320.663 831.33 305.312 802.323C303.849 799.559 303.281 796.385 303.551 792.85L302.89 793.2L296.026 740.581C338.959 741.412 420.64 714.614 507.709 668.538C594.778 622.463 662.876 569.999 686.337 534.034L725.984 569.304Z" fill="#FFE262"/>
<path d="M725.984 569.304L728.323 573.724L734.688 570.355L729.308 565.569L725.984 569.304ZM725.322 569.655L722.984 565.235L714.967 569.478L722.834 573.991L725.322 569.655ZM732.165 576.438L736.584 574.1L736.584 574.1L732.165 576.438ZM546.533 741.904L548.872 746.323L546.533 741.904ZM305.312 802.323L300.892 804.662L300.892 804.662L305.312 802.323ZM303.551 792.85L308.537 793.232L309.229 784.189L301.213 788.431L303.551 792.85ZM302.89 793.2L297.932 793.847L298.864 800.988L305.229 797.62L302.89 793.2ZM296.026 740.581L296.123 735.582L290.317 735.47L291.068 741.228L296.026 740.581ZM507.709 668.538L510.048 672.957L507.709 668.538ZM686.337 534.034L689.66 530.298L685.322 526.439L682.149 531.302L686.337 534.034ZM725.984 569.304L723.646 564.885L722.984 565.235L725.322 569.655L727.661 574.074L728.323 573.724L725.984 569.304ZM725.322 569.655L722.834 573.991C725.233 575.368 726.796 576.984 727.745 578.777L732.165 576.438L736.584 574.1C734.607 570.364 731.56 567.469 727.811 565.318L725.322 569.655ZM732.165 576.438L727.745 578.777C730.227 583.468 729.299 591.344 721.967 603.115C714.853 614.534 702.616 628.096 685.98 642.926C652.767 672.531 602.882 706.428 544.194 737.484L546.533 741.904L548.872 746.323C608.056 715.004 658.661 680.672 692.634 650.39C709.59 635.276 722.619 620.981 730.455 608.402C738.072 596.175 741.777 583.913 736.584 574.1L732.165 576.438ZM546.533 741.904L544.194 737.484C485.507 768.541 429.422 790.722 386.262 801.532C364.644 806.947 346.547 809.437 333.104 808.896C319.248 808.338 312.213 804.675 309.731 799.985L305.312 802.323L300.892 804.662C306.086 814.475 318.308 818.308 332.702 818.888C347.51 819.484 366.658 816.751 388.692 811.232C432.838 800.175 489.688 777.642 548.872 746.323L546.533 741.904ZM305.312 802.323L309.731 799.985C308.782 798.192 308.326 795.991 308.537 793.232L303.551 792.85L298.566 792.469C298.236 796.779 298.915 800.926 300.892 804.662L305.312 802.323ZM303.551 792.85L301.213 788.431L300.551 788.781L302.89 793.2L305.229 797.62L305.89 797.27L303.551 792.85ZM302.89 793.2L307.848 792.554L300.984 739.935L296.026 740.581L291.068 741.228L297.932 793.847L302.89 793.2ZM296.026 740.581L295.93 745.58C318.266 746.012 350.074 739.3 386.913 726.888C423.874 714.435 466.31 696.103 510.048 672.957L507.709 668.538L505.37 664.119C462.04 687.049 420.1 705.154 383.72 717.411C347.218 729.71 316.719 735.981 296.123 735.582L296.026 740.581ZM507.709 668.538L510.048 672.957C553.786 649.812 592.811 625.035 623.896 601.479C654.878 578.001 678.319 555.477 690.525 536.766L686.337 534.034L682.149 531.302C670.895 548.555 648.555 570.246 617.856 593.509C587.259 616.695 548.701 641.189 505.37 664.119L507.709 668.538ZM686.337 534.034L683.014 537.77L722.661 573.04L725.984 569.304L729.308 565.569L689.66 530.298L686.337 534.034Z" fill="black" mask="url(#path-3-outside-2_425_61)"/>
<circle cx="503.129" cy="460.239" r="48.2186" transform="rotate(-27.8872 503.129 460.239)" fill="#FF914D" stroke="black" stroke-width="4"/>
<circle cx="497.663" cy="589.057" r="48.2186" transform="rotate(-27.8872 497.663 589.057)" fill="#FF594D" stroke="black" stroke-width="4"/>
<circle cx="361.193" cy="599.38" r="48.2186" transform="rotate(-27.8872 361.193 599.38)" fill="#FF914D" stroke="black" stroke-width="4"/>
<circle cx="300.101" cy="274.208" r="48.2186" transform="rotate(-27.8872 300.101 274.208)" fill="#FF914D" stroke="black" stroke-width="4"/>
<circle cx="350.046" cy="408.92" r="48.2186" transform="rotate(-27.8872 350.046 408.92)" fill="#FF594D" stroke="black" stroke-width="4"/>
</svg>
