<svg width="675" height="333" viewBox="0 0 675 333" fill="none" xmlns="http://www.w3.org/2000/svg">
<g filter="url(#filter0_d_1148_7222)">
<path d="M382.223 203.504V190.43H234.053V140.184H382.223V59.622H234.053V9.37524H432.127V203.504H382.223Z" fill="#FFE262"/>
<path d="M206 324.485V217.47H462.989V321.839H403.637V315.989H265.337V324.5L206 324.485ZM403.637 280.19V253.254H265.337V280.19H403.637Z" fill="#FFE262"/>
<path d="M470.924 220.599L488.277 215.334C562.041 192.916 601.828 144.732 609.34 68.2646H459.86V11.057H623.505L643.289 5.5L663 28.8978L662.854 34.7473C660.045 157.469 609.806 237.021 513.549 271.372L504.611 274.56L470.924 220.599Z" fill="#FFE262"/>
<path d="M154.436 271.372C58.1798 237.021 7.95524 157.469 5.13102 34.7617L5 28.9123L24.6968 5.51448L44.4809 11.0715H208.126V68.2937H58.6456C66.2157 144.746 105.944 192.931 179.709 215.349L197.062 220.613L163.375 274.575L154.436 271.372Z" fill="#FFE262"/>
<path d="M464.989 215.47V323.839H401.637V317.989H267.338V326.501L265.337 326.5L205.999 326.485H204V215.47H464.989ZM267.338 278.19H401.637V255.254H267.338V278.19ZM25.2373 3.58887L44.7568 9.07129H210.126V70.2939H60.8643C64.8488 107.207 76.4863 137.241 95.8984 160.812C115.695 184.85 143.697 202.314 180.288 213.435H180.289L197.643 218.699L200.141 219.458L198.758 221.673L165.071 275.634L164.218 277.001L162.7 276.457L153.764 273.255C105.255 255.943 68.2576 227.201 43.0557 187.268C17.8702 147.36 4.54977 96.4141 3.13184 34.8076V34.8066L3.00098 28.957L2.9834 28.2021L3.46973 27.624L23.167 4.22656L23.9971 3.24023L25.2373 3.58887ZM644.818 4.21094L664.529 27.6094L665.019 28.1895L664.999 28.9473L664.854 34.7969C663.442 96.4089 650.122 147.357 624.936 187.266C599.732 227.201 562.731 255.944 514.222 273.256H514.221L505.282 276.444L503.767 276.984L502.914 275.619L469.228 221.658L467.845 219.443L470.344 218.685L487.695 213.421L489.404 212.895C525.161 201.752 552.615 184.46 572.109 160.796C591.529 137.223 603.166 107.184 607.123 70.2646H457.86V9.05664H623.231L642.748 3.57422L643.988 3.22656L644.818 4.21094ZM434.127 7.375V205.504H380.223V192.431H232.053V138.184H380.223V61.6221H232.053V7.375H434.127Z" stroke="black" stroke-width="4"/>
</g>
<defs>
<filter id="filter0_d_1148_7222" x="0.966797" y="0.952148" width="673.069" height="331.549" filterUnits="userSpaceOnUse" color-interpolation-filters="sRGB">
<feFlood flood-opacity="0" result="BackgroundImageFix"/>
<feColorMatrix in="SourceAlpha" type="matrix" values="0 0 0 0 0 0 0 0 0 0 0 0 0 0 0 0 0 0 127 0" result="hardAlpha"/>
<feOffset dx="7" dy="4"/>
<feComposite in2="hardAlpha" operator="out"/>
<feColorMatrix type="matrix" values="0 0 0 0 0 0 0 0 0 0 0 0 0 0 0 0 0 0 1 0"/>
<feBlend mode="normal" in2="BackgroundImageFix" result="effect1_dropShadow_1148_7222"/>
<feBlend mode="normal" in="SourceGraphic" in2="effect1_dropShadow_1148_7222" result="shape"/>
</filter>
</defs>
</svg>
