<svg width="231" height="230" viewBox="0 0 231 230" fill="none" xmlns="http://www.w3.org/2000/svg">
<path d="M29.25 57.4998H48.4167H201.75" fill="#ADDFFF"/>
<path d="M182.583 57.4998V191.667C182.583 196.75 180.564 201.625 176.97 205.219C173.375 208.814 168.5 210.833 163.417 210.833H67.5833C62.5 210.833 57.6249 208.814 54.0305 205.219C50.436 201.625 48.4167 196.75 48.4167 191.667V57.4998M77.1667 57.4998V38.3332C77.1667 33.2499 79.186 28.3747 82.7805 24.7803C86.3749 21.1858 91.25 19.1665 96.3333 19.1665H134.667C139.75 19.1665 144.625 21.1858 148.22 24.7803C151.814 28.3747 153.833 33.2499 153.833 38.3332V57.4998" fill="#ADDFFF"/>
<path d="M29.25 57.4998H48.4167M48.4167 57.4998H201.75M48.4167 57.4998V191.667C48.4167 196.75 50.436 201.625 54.0305 205.219C57.6249 208.814 62.5 210.833 67.5833 210.833H163.417C168.5 210.833 173.375 208.814 176.97 205.219C180.564 201.625 182.583 196.75 182.583 191.667V57.4998M77.1667 57.4998V38.3332C77.1667 33.2499 79.186 28.3747 82.7805 24.7803C86.3749 21.1858 91.25 19.1665 96.3333 19.1665H134.667C139.75 19.1665 144.625 21.1858 148.22 24.7803C151.814 28.3747 153.833 33.2499 153.833 38.3332V57.4998M96.3333 105.417V162.917M134.667 105.417V162.917" stroke="black" stroke-width="8" stroke-linecap="round" stroke-linejoin="round"/>
</svg>
