<svg width="231" height="230" viewBox="0 0 231 230" fill="none" xmlns="http://www.w3.org/2000/svg">
<path d="M163.417 201.25V182.083C163.417 171.917 159.379 162.166 152.19 154.978C145.001 147.789 135.251 143.75 125.084 143.75H48.4173C38.2507 143.75 28.5005 147.789 21.3116 154.978C14.1227 162.166 10.084 171.917 10.084 182.083V201.25" fill="#FF91E8"/>
<path d="M86.7507 105.417C107.922 105.417 125.084 88.2542 125.084 67.0833C125.084 45.9124 107.922 28.75 86.7507 28.75C65.5797 28.75 48.4173 45.9124 48.4173 67.0833C48.4173 88.2542 65.5797 105.417 86.7507 105.417Z" fill="#FF91E8"/>
<path d="M220.917 201.25V182.083C220.911 173.59 218.084 165.339 212.88 158.626C207.677 151.914 200.391 147.119 192.167 144.996" fill="#FF91E8"/>
<path d="M153.834 29.9958C162.08 32.1071 169.388 36.9026 174.607 43.6263C179.826 50.3501 182.659 58.6196 182.659 67.1312C182.659 75.6429 179.826 83.9124 174.607 90.6362C169.388 97.3599 162.08 102.155 153.834 104.267" fill="#FF91E8"/>
<path d="M163.417 201.25V182.083C163.417 171.917 159.379 162.166 152.19 154.978C145.001 147.789 135.251 143.75 125.084 143.75H48.4173C38.2507 143.75 28.5005 147.789 21.3116 154.978C14.1227 162.166 10.084 171.917 10.084 182.083V201.25M220.917 201.25V182.083C220.911 173.59 218.084 165.339 212.88 158.626C207.677 151.914 200.391 147.119 192.167 144.996M153.834 29.9958C162.08 32.1071 169.388 36.9026 174.607 43.6263C179.826 50.3501 182.659 58.6196 182.659 67.1312C182.659 75.6429 179.826 83.9124 174.607 90.6362C169.388 97.3599 162.08 102.155 153.834 104.267M125.084 67.0833C125.084 88.2542 107.922 105.417 86.7507 105.417C65.5797 105.417 48.4173 88.2542 48.4173 67.0833C48.4173 45.9124 65.5797 28.75 86.7507 28.75C107.922 28.75 125.084 45.9124 125.084 67.0833Z" stroke="black" stroke-width="8" stroke-linecap="round" stroke-linejoin="round"/>
</svg>
